<?xml version="1.0" standalone="no"?>
<!DOCTYPE svg PUBLIC "-//W3C//DTD SVG 1.1//EN" "http://www.w3.org/Graphics/SVG/1.1/DTD/svg11.dtd" >
<svg xmlns="http://www.w3.org/2000/svg" xmlns:xlink="http://www.w3.org/1999/xlink" version="1.1">
<metadata></metadata>
<defs>
<font id="caveatbold" horiz-adv-x="655" >
<font-face units-per-em="2048" ascent="1638" descent="-410" />
<missing-glyph horiz-adv-x="495" />
<glyph unicode="ff" horiz-adv-x="1024" d="M186 96q0 162 84 455q29 102 102.5 274t90.5 187h4q8 0 8 18q0 4 16.5 32t30.5 56q41 57 112 118.5t120 82.5q31 12 61 12q51 0 98.5 -33.5t67.5 -85.5q20 25 53 50.5t62 44.5l41 30q45 23 73.5 31t71.5 8q59 0 137 -73q29 -31 33 -41.5t4 -38.5q-8 -39 -72.5 -137.5 t-83.5 -100.5q-6 -2 -16 -2q-31 0 -31 51q0 12 -13 24.5t-17 16.5q0 35 14 55q6 12 6 27q0 14 -8 23.5t-21 5.5q-20 -10 -64 -48t-44 -51q-2 -4 -11.5 -21t-27.5 -40q-37 -51 -37 -63q0 -27 -12 -27q-2 -4 -9.5 -23.5t-19.5 -42.5q-8 -20 -20.5 -41.5t-20.5 -29.5h2 q-6 -14 -22.5 -52t-16.5 -45q0 -8 25 -8q49 0 131 23q27 8 39 8q14 0 41 -8q14 -10 26.5 -39t17.5 -57.5t-1 -36.5q-2 -8 -44 -22.5t-87 -22.5l-78 -19q-117 -25 -117 -33q-8 0 -14 -8t-6 -16q0 -29 -8 -43q-16 -47 -39 -130t-23 -106q-16 -20 -16 -73q-12 -23 -13 -52 q0 -12 -2 -20q0 -10 -4 -49t-4 -72l-6 -59q-2 -29 -7 -59.5t-15 -41.5q-15 -8 -59 11.5t-70 52.5q-12 12 -16.5 23.5t-4.5 29.5l4 51q10 31 10 82q0 16 14.5 103.5t22.5 126.5l6 24q16 68 25 125q10 35 18 55q14 49 17 58q-45 0 -138.5 -15.5t-99.5 -21.5 q-12 -6 -27.5 -55.5t-27.5 -120.5q-27 -106 -27 -226q0 -70 11 -114q4 -20 4 -29q0 -39 -19.5 -70.5t-44.5 -40.5q-27 -2 -54.5 30t-45 87.5t-17.5 120.5q-2 16 -2 51zM492 639l32 -4q8 -2 84 12q113 20 117 21l12 22q53 152 92 234l5 18q0 4 9 25.5t9 40.5l16 71 q10 41 11 54q0 12 -10.5 16t-39.5 4q-18 2 -53 -15.5t-35 -31.5v-8q-10 2 -55 -56.5t-82 -117.5q-16 -35 -72 -176q-16 -37 -24 -60z" />
<glyph unicode="fi" horiz-adv-x="940" d="M135 -104q0 18 7.5 60t9.5 56q0 27 17 122t24 128q37 137 51 223q16 70 26.5 100.5t44.5 92.5q37 100 67 177t54 122l6 14q63 170 246 332q59 27 95 40t71 13q51 0 93 -27.5t65.5 -64.5t23.5 -61q-10 -41 -45 -97.5t-72.5 -99.5t-50.5 -43q-12 0 -18 9t-14 30 q-12 37 -29 53q0 6 9 36t9 46q0 12 -5 21.5t-13 9.5h-4l-17 -10q-35 -25 -57 -46.5t-59 -74.5q-43 -61 -52.5 -91t-15.5 -30l-22 -56q-23 -57 -48 -81h3q-6 -14 -22.5 -54t-16.5 -47q0 -8 20 -8t78 15q76 14 86 14q43 0 65.5 -35t22.5 -84q0 -16 -27.5 -27.5t-97.5 -27.5 l-80 -19q-88 -18 -114.5 -30.5t-34.5 -49.5q0 -10 -4 -22q-10 -29 -34 -137.5t-24 -132.5q-8 -10 -17 -48t-11 -63v-18q0 -10 -5.5 -53.5t-5.5 -84.5l-6 -59q-4 -39 -9 -57.5t-19 -18.5q-21 0 -56 21.5t-61.5 55.5t-26.5 67zM799 135q0 27 8 65t8 48v4l4 20l12 43 q29 76 68 202t43 136q4 23 33 23q31 0 73 -40t48 -77q0 -25 -25 -84q-43 -127 -78 -278q-27 -109 -45 -147t-59 -38q-35 0 -62.5 34t-27.5 89zM993 928q0 31 37 101.5t60 72.5q4 4 18 4q51 0 88 -39t37 -96q-4 -51 -41 -98.5t-92 -47.5q-49 0 -78 37t-29 66z" />
<glyph unicode="fl" horiz-adv-x="942" d="M121 -115l4 52q10 31 10 71q0 16 14.5 103.5t22.5 126.5l6 24q16 68 25 125q16 51 27.5 101.5t11.5 68.5q0 37 28 53q2 16 31 68q49 139 72.5 199.5t50.5 105.5q37 102 59 129q14 35 78 102.5t113 108.5q102 53 172 53q59 0 137 -73q27 -31 32 -41.5t5 -38.5 q-8 -39 -71.5 -137.5t-80.5 -100.5q-6 -2 -16 -2q-31 0 -31 51q0 12 -13 24.5t-17 16.5q0 31 14 51q6 12 6 31q0 16 -7 25.5t-20 5.5q-18 -10 -64 -49t-46 -52q-2 -4 -11.5 -21t-27.5 -40q-37 -51 -37 -63q0 -27 -12 -27q-2 -4 -9.5 -23.5t-19.5 -42.5q-8 -18 -20.5 -40.5 t-20.5 -30.5h2q-6 -14 -22.5 -54t-16.5 -47q0 -8 25 -8q45 0 127 23q27 8 39 8q14 0 41 -8q23 -14 37 -63.5t6 -61.5q-2 -8 -44 -22.5t-87 -22.5l-84 -19q-117 -25 -117 -32q-8 0 -14.5 -8.5t-6.5 -16.5q0 -29 -8 -43q-10 -29 -33.5 -137.5t-23.5 -132.5q-16 -20 -17 -74 q-12 -23 -12 -51q0 -12 -2 -21q0 -10 -4 -49t-4 -72l-6 -59q-2 -25 -6 -45.5t-15 -30.5q-12 -8 -56 19.5t-73 60.5q-12 12 -16 23.5t-4 29.5zM743 33q0 88 17 184l2 16q2 12 6 40t6 16l12 55q39 156 50 178l24 72q61 199 115 268q2 8 6 15.5t6 15.5q0 33 12 51q18 31 31 55 l6 23l58 117q6 20 25.5 44.5t39.5 33.5l-2 2q10 16 38 28.5t48 12.5q27 0 43.5 -16.5t16.5 -45.5v-20q0 -18 -3.5 -28.5t-13.5 -25.5h2q2 -2 -3 -13t-9 -21q-14 -37 -21 -41q-14 -18 -93 -173t-101 -214l-8 -31l-4 -13q-23 -49 -25 -53l-35 -127l-8 -43l-18 -47l-13 -39 q-4 -10 -6 -26.5t-6 -20.5l-2 -10q-2 -12 -14 -49q-37 -100 -39 -174l-2 -9q-6 -45 -25.5 -67.5t-48.5 -13.5q-62 20 -64 94z" />
<glyph unicode="ffi" horiz-adv-x="1339" d="M186 88q0 160 84 463q29 102 102.5 274t90.5 187h4q4 0 15.5 24.5t39.5 81.5q61 86 147.5 149.5t145.5 63.5q51 0 98.5 -33.5t67.5 -85.5q20 25 53 50.5t62 44.5l41 30q43 23 71.5 31t67.5 8q37 0 65.5 -15t63.5 -44l20 -23q23 -25 27 -34t4 -37q-8 -43 -45 -98.5 t-77 -98.5t-50 -43q-23 0 -31 43q0 4 -4 17.5t-10 21.5t-16 10q0 10 10 44t10 40q0 12 -5 20.5t-15 8.5h-4l-21 -12q-29 -20 -60.5 -54.5t-35.5 -44.5l-39 -59q-25 -37 -32 -59.5t-13 -22.5q-2 -4 -24.5 -59.5t-45.5 -77.5h2q-6 -14 -22.5 -52t-16.5 -45q0 -8 25 -8 q14 0 45 6.5t45 8.5q51 14 76 14q39 0 63.5 -38t24.5 -85v-10q-2 -6 -23.5 -19.5t-53.5 -23.5t-66 -10q-80 -18 -91 -21q-72 -18 -90 -29.5t-26 -46.5q0 -12 -4 -20q-35 -100 -63 -212t-28 -149q0 -2 -5 -43t-5 -98l-6 -59q-8 -25 -8 -56q-2 -25 -6 -36t-19 -11 q-20 0 -54 17.5t-59.5 44t-25.5 57.5q0 18 8 80q6 33 6 53q0 51 11.5 99.5t13.5 56.5q33 129 43 223q10 35 18 55q14 49 17 58q-45 0 -138.5 -15.5t-99.5 -21.5q-12 -6 -32.5 -76t-35 -161t-14.5 -163q0 -39 11 -106l4 -41q0 -35 -20.5 -66.5t-43.5 -39.5q-49 0 -84 80.5 t-35 197.5zM492 639l32 -4q19 0 76 12q86 14 125 21l12 22l17 49q23 66 55 140l20 45l5 18q0 4 9 25.5t9 40.5l16 73q10 35 11 47q0 16 -9.5 20.5t-40.5 4.5q-18 0 -53 -16.5t-35 -30.5v-8q-8 2 -57 -57.5t-80 -116.5q-27 -49 -96 -236zM1202 152q20 90 53 301l33 178l-2 16 q0 18 12 31q14 14 35 14q16 0 45 -17.5t51.5 -49t22.5 -74.5q0 -57 -21.5 -182t-49 -226.5t-46.5 -103.5q-12 0 -42.5 15.5t-32.5 23.5q-8 20 -33 39.5t-25 34.5zM1350 915q0 18 32.5 73.5t44.5 62.5q35 0 76 -21q12 -27 39 -61q25 -39 35 -58.5t10 -46.5q0 -39 -22.5 -64.5 t-65.5 -25.5q-18 0 -55 20.5t-65.5 53.5t-28.5 67z" />
<glyph unicode="ffl" horiz-adv-x="1372" d="M186 96q0 162 84 455q29 102 102.5 274t90.5 187h4q8 0 8 18q0 4 16.5 32t30.5 56q41 57 112 118.5t120 82.5q31 12 61 12q51 0 98.5 -33.5t67.5 -85.5q20 25 53 50.5t62 44.5l41 30q45 23 73.5 31t71.5 8q59 0 137 -73q29 -31 33 -41.5t4 -38.5q-8 -39 -72.5 -137.5 t-83.5 -100.5q-6 -2 -16 -2q-31 0 -31 51q0 12 -13 24.5t-17 16.5q0 35 14 55q6 12 6 27q0 14 -8 23.5t-21 5.5q-20 -10 -64 -48t-44 -51q-2 -4 -11.5 -21t-27.5 -40q-37 -51 -37 -63q0 -27 -12 -27q-2 -4 -9.5 -23.5t-19.5 -42.5q-8 -20 -20.5 -41.5t-20.5 -29.5h2 q-6 -14 -22.5 -52t-16.5 -45q0 -8 25 -8q49 0 131 23q27 8 39 8q14 0 41 -8q14 -10 26.5 -39t17.5 -57.5t-1 -36.5q-2 -8 -44 -22.5t-87 -22.5l-78 -19q-117 -25 -117 -33q-8 0 -14 -8t-6 -16q0 -29 -8 -43q-16 -47 -39 -130t-23 -106q-16 -20 -16 -73q-12 -23 -13 -52 q0 -12 -2 -20q0 -10 -4 -49t-4 -72l-6 -59q-2 -29 -7 -59.5t-15 -41.5q-15 -8 -59 11.5t-70 52.5q-12 12 -16.5 23.5t-4.5 29.5l4 51q10 31 10 82q0 16 14.5 103.5t22.5 126.5l6 24q16 68 25 125q10 35 18 55q14 49 17 58q-45 0 -138.5 -15.5t-99.5 -21.5 q-12 -6 -27.5 -55.5t-27.5 -120.5q-27 -106 -27 -226q0 -70 11 -114q4 -20 4 -29q0 -39 -19.5 -70.5t-44.5 -40.5q-27 -2 -54.5 30t-45 87.5t-17.5 120.5q-2 16 -2 51zM492 639l32 -4q8 -2 84 12q113 20 117 21l12 22q53 152 92 234l5 18q0 4 9 25.5t9 40.5l16 71 q10 41 11 54q0 12 -10.5 16t-39.5 4q-18 2 -53 -15.5t-35 -31.5v-8q-10 2 -55 -56.5t-82 -117.5q-16 -35 -72 -176q-16 -37 -24 -60zM1180 33q0 88 16 184l2 16q2 12 6 40t6 16l13 55q39 156 49 178l24 72q61 199 115 268q2 8 6 15.5t6 15.5q0 33 13 51q18 31 30 55l7 23 l57 117q6 20 25.5 44.5t39.5 33.5l-2 2q10 16 38 28.5t48 12.5q27 0 43.5 -16.5t16.5 -45.5v-20q0 -18 -3 -28.5t-14 -25.5h2q2 -2 -3 -13t-9 -21q-14 -37 -20 -41q-14 -18 -93 -173t-102 -214l-8 -31l-4 -13q-23 -49 -25 -53l-35 -127l-8 -43l-18 -47l-13 -39 q-4 -10 -6 -26.5t-6 -20.5l-2 -10q-2 -12 -14 -49q-37 -100 -39 -174l-2 -9q-6 -45 -25.5 -67.5t-48.5 -13.5q-61 20 -63 94z" />
<glyph unicode="ft" horiz-adv-x="1191" d="M125 -94q10 31 10 102q0 16 14.5 103.5t22.5 126.5l6 24q16 68 25 125q16 51 27.5 101.5t11.5 68.5q0 37 28 53q2 16 31 68l43 123q43 131 72 182q12 31 34.5 69t41.5 60q14 35 77.5 102.5t112.5 108.5q102 53 172 53q63 0 131 -63q29 -31 33 -41t4 -39 q-8 -39 -71.5 -142.5t-80.5 -105.5q-6 -2 -16 -2q-31 0 -31 51q0 12 -13 24.5t-17 16.5q2 12 8 38t14 38q6 12 6 23q0 10 -7 13t-21 -1q-23 -12 -71 -49t-48 -50q-2 -4 -11.5 -21t-27.5 -40q-37 -51 -37 -63q0 -27 -12 -27q-2 -4 -9.5 -23.5t-19.5 -42.5q-8 -18 -20.5 -40.5 t-20.5 -30.5h2l-29 -111q27 2 72 12t92 17q94 10 157.5 24.5t129.5 42.5q25 66 59.5 135.5t49.5 86.5q49 27 79 26q29 0 43 -24q4 -6 14.5 -14.5t16.5 -16.5t6 -23q0 -35 -55 -137l-27 -51q6 -2 29 -2t37 2q45 8 61 8q14 0 23 -2q45 0 67.5 -30.5t26.5 -75.5 q4 -23 -24.5 -35.5t-83.5 -12.5q-10 0 -109.5 -4t-101.5 -12q-10 -6 -39 -125l-15 -57q-14 -66 -24 -127.5t-10 -99.5q0 -55 18 -74q16 -16 53 -17q53 0 90 31q39 33 72 33q20 0 32.5 -14.5t12.5 -36.5q0 -35 -22 -64q-33 -49 -97.5 -86t-117.5 -37q-12 0 -29 4 q-45 12 -73 22.5t-54 35.5q-37 47 -48.5 102t-11.5 154q0 49 56 264l14 59q-8 14 -35 15q-29 0 -192 -25q-18 -4 -113.5 -27.5t-95.5 -33.5q-8 0 -14.5 -15.5t-6.5 -23.5q0 -29 -8 -43q-10 -31 -31.5 -119t-21.5 -113q-16 -20 -16 -73q-12 -23 -13 -52q0 -12 -2 -20 q0 -10 -4 -49t-4 -72l-6 -59q-2 -10 -5 -52.5t-16 -54.5q-12 -8 -39.5 4.5t-54.5 44.5q-8 8 -24.5 21.5t-25.5 33t-5 50.5z" />
<glyph horiz-adv-x="0" />
<glyph horiz-adv-x="0" />
<glyph unicode=" "  horiz-adv-x="495" />
<glyph unicode="&#x09;" horiz-adv-x="495" />
<glyph unicode="&#xa0;" horiz-adv-x="495" />
<glyph unicode="!" horiz-adv-x="430" d="M133 86q0 51 76 102q45 29 65 29q14 0 54 -16q61 -39 61 -84q0 -57 -90 -105q-39 -16 -66 -16q-31 0 -69 29q-31 31 -31 61zM303 457q0 51 19 127q29 57 28 86q10 35 33 89t37 83q8 0 17 14t9 29q0 18 7.5 37.5t15.5 27.5q0 6 8 21.5t8 21.5q0 4 5.5 13.5t5.5 15.5 q37 61 106.5 231t71.5 197q8 47 37 41q10 8 49 8q6 -2 22.5 -10t28.5 -23q14 -14 17 -34.5t3 -53.5q-2 -31 -18 -66.5t-38.5 -74.5t-31.5 -55l-26 -49q-33 -57 -33 -68q0 -8 -10 -29.5t-17 -36.5q-16 -27 -33.5 -73.5t-17.5 -57.5q-2 -4 -5 -14t-11 -18q-6 0 -8 -9.5 t-2 -13.5q0 -10 -10.5 -41t-28.5 -67q-70 -199 -76 -283q-4 -43 -19.5 -61.5t-37.5 -30.5q-7 -2 -19 -2q-39 0 -62.5 31.5t-23.5 97.5z" />
<glyph unicode="&#x22;" horiz-adv-x="485" d="M324 899q-8 35 26 84q78 127 99 184q2 16 12 57.5t10 75.5q-2 18 11.5 55.5t27.5 30.5q8 -4 42 -19t55.5 -35.5t17.5 -41.5q-6 -57 -28 -125.5t-24 -79.5q-20 -76 -114 -182q0 -4 -6.5 -7t-17.5 -6t-25 -7q-25 -4 -31 -4q-31 0 -55 20zM594 899q-10 35 24 84 q78 127 99 184q2 16 12 57.5t10 75.5q-2 18 11.5 55.5t27.5 30.5q8 -4 42 -19t55.5 -35.5t17.5 -41.5q-6 -57 -27.5 -125.5t-23.5 -79.5q-20 -76 -115 -182q0 -4 -6 -7t-17.5 -6t-25.5 -7q-21 -4 -29 -4q-31 0 -55 20z" />
<glyph unicode="#" horiz-adv-x="1144" d="M129 428q0 18 28.5 28.5t88.5 16.5q33 6 129 10l26 74q8 0 14.5 13.5t6.5 29.5q0 18 7 37.5t15 28.5q0 6 5.5 22.5t5.5 22.5q0 4 5 15t5 17l10 23h-63q-41 0 -72 10q-53 0 -74 37q-10 12 -10 25q0 35 115 47q31 6 159 12q74 182 154 395t80 230q0 16 21.5 33.5t39.5 17.5 q10 10 33 10l33 -33q20 -18 36.5 -44.5t16.5 -49.5q0 -31 -8 -53.5t-41 -91.5q-6 -14 -16.5 -34t-22.5 -48l-22 -51q-20 -47 -52 -121t-65 -154q92 4 327 8q72 180 150 386t78 225q0 16 21.5 33.5t39.5 17.5q10 10 33 10l33 -33q20 -18 36.5 -44.5t16.5 -49.5 q0 -31 -8 -53.5t-41 -91.5q-6 -14 -16.5 -34t-22.5 -48q-4 -10 -15.5 -38t-35.5 -79q-80 -186 -84 -199h74q49 0 68.5 -7t43.5 -32q18 -18 19 -40q0 -25 -18.5 -38.5t-49.5 -9.5l-113 -10l-77 -2q-25 -53 -51.5 -115.5t-26.5 -68.5q0 -23 -11 -33q-6 0 -8 -9t-2 -13 q0 -10 -8 -33h107q49 0 68.5 -7.5t43.5 -31.5q20 -20 21 -43q0 -23 -18.5 -36t-49.5 -9l-115 -10q-4 0 -24.5 -1.5t-75.5 -1.5q-55 -180 -103.5 -356t-48.5 -221q0 -43 -13 -59.5t-38 -28.5q-6 -2 -18 -2q-41 0 -68.5 47t-27.5 119q0 43 8 82q23 59 22 86q8 47 103 331 l-326 -4q-150 -494 -149 -571q0 -43 -13.5 -59.5t-38.5 -28.5q-6 -2 -18 -2q-41 0 -68.5 47t-27.5 119q0 43 8 82q23 59 22 86q4 23 35 123t66 202h-45q-41 0 -72 11q-29 0 -48.5 11t-27.5 27q-10 16 -10 25zM559 492l105 2q152 4 225 4l20 59q8 0 14.5 13.5t6.5 29.5 q0 18 7 37.5t15 28.5q0 6 5.5 22.5t5.5 22.5q0 4 5 15t5 17l14 29l-323 -4q-25 -51 -49.5 -111.5t-24.5 -66.5q0 -23 -10 -33q-6 0 -8.5 -9t-2.5 -13q0 -6 -10 -43z" />
<glyph unicode="$" horiz-adv-x="921" d="M92 250q0 39 27.5 61.5t73.5 22.5q29 0 57 -15q-2 -6 -12.5 -26.5t-10.5 -36.5q0 -18 30 -32.5t95 -14.5q49 0 72 2l29 65q125 283 133 293q8 0 18 14.5t12 28.5v13l-4 4q-23 37 -42 61.5t-42 36.5q-6 6 -16 25.5t-14 21.5q2 0 -15.5 20.5t-17.5 67.5q0 49 22.5 100.5 t69.5 88.5q23 27 82 68.5t72 41.5l8 2q6 2 53 20.5t92 18.5l45 10q121 264 121 283q10 27 31 27h4h6q4 4 21 4l8 -4l18 -11q29 -43 29 -86q-4 -27 -11.5 -44t-31.5 -60q-27 -41 -64 -111q52 -16 89.5 -45.5t39.5 -62.5q0 -20 -16 -50t-45 -30q-14 0 -51 18q-57 27 -96 31 l-125 -231l-27 -54l-47 -88q37 -37 49 -48t12 -21q4 0 33 -40t29 -48q0 6 13 -21.5t23.5 -69.5t10.5 -90q0 -25 -38 -70.5t-75 -74.5q-133 -109 -334 -137q-84 -209 -88 -248q-2 -55 -11 -69.5t-38 -14.5q-23 0 -36 16.5t-13 47.5q0 59 31 167q31 43 35 91h-29 q-33 0 -58.5 4t-31.5 10q-27 0 -64 27.5t-63.5 67.5t-26.5 73zM545 225q90 18 132 51t52 68v23q14 20 14 36q0 11 2.5 22t2.5 24q0 43 -56 106q0 -2 -4 -6q-8 0 -11 -13.5t-12.5 -37t-33.5 -60.5l-27 -63zM627 874q2 -6 10 -28.5t25 -40.5l30 -33q37 66 146 293 q-68 -12 -113 -64q-49 -31 -73.5 -65.5t-24.5 -61.5z" />
<glyph unicode="%" horiz-adv-x="1228" d="M207 -104q0 59 63 149q41 45 47 61q18 27 146.5 172.5t181.5 206.5h4q8 0 16.5 9.5t12.5 21.5q6 16 19.5 28.5t23.5 14.5q6 10 14 19.5t10 15.5q0 4 8.5 11t10.5 13q51 43 285.5 296t244.5 274q6 18 25 18q10 0 16 -2q8 4 17 4q8 0 16 -4q4 -6 20.5 -24.5t24.5 -34.5 q12 -18 12 -39q0 -18 -8 -33q-10 -27 -25.5 -43t-72.5 -67q-14 -14 -28.5 -26.5t-28.5 -25.5q-53 -53 -144.5 -149t-93.5 -103q-20 -16 -43 -45q-37 -35 -91 -86t-56 -57q-2 -2 -7.5 -10t-17.5 -12q-4 2 -8 -4.5t-6 -8.5q0 -18 -68 -82q-150 -180 -245 -298.5t-111 -157.5 q-14 -35 -40 -57.5t-44 -26.5q-35 4 -57.5 24.5t-22.5 57.5zM377 819q4 4 6 8q10 0 6 21q-4 12 14.5 58t42.5 87q88 156 134 191q72 61 155 78q37 10 47 10q12 0 21.5 -6t23.5 -23q41 -16 76 -57t39 -84q2 -12 2 -39q0 -106 -88 -238q-45 -61 -81 -98t-83 -65 q-37 -25 -90 -43.5t-90 -20.5q-20 0 -33.5 7t-32.5 26q-35 33 -54 71.5t-13 67.5q4 12 3 22.5t-1 14.5q-8 8 -4 12zM532 807q0 -47 37 -47q43 0 113 76q33 36 52.5 68t33.5 81q8 29 8 57q0 39 -10 45q-12 6 -27 7q-31 0 -59 -29q-39 -31 -67.5 -76t-67.5 -129 q-12 -31 -13 -53zM676 57q4 4 6 9q10 0 6 20q-4 12 14.5 58t42.5 87q27 49 66 108.5t68 80.5q74 63 155 80q37 10 47 10q12 0 21.5 -6t23.5 -23q41 -16 76 -57t39 -86q2 -12 2 -39q0 -106 -88 -238q-43 -59 -80 -96t-84 -65q-37 -25 -90 -44.5t-90 -21.5q-20 0 -33.5 7 t-32.5 26q-35 33 -54 73t-13 68q4 12 3 22.5t-1 14.5q-8 8 -4 12zM831 45q0 -47 37 -47q43 0 113 76q31 35 50.5 67.5t35.5 81.5q6 23 6 56q0 41 -8 47q-12 6 -29 6q-31 0 -59 -29q-39 -31 -66.5 -76t-66.5 -129q-12 -31 -13 -53z" />
<glyph unicode="&#x26;" horiz-adv-x="1155" d="M111 221l2 23q12 39 115.5 176t203.5 237q-76 111 -76 211q0 113 86 265q25 41 75 95t93 92t47 32q6 -10 15 -11q4 0 9 2.5t9 2.5q8 4 29 4q27 0 64.5 -6.5t66.5 -14.5q80 -10 107.5 -18t50.5 -35q43 -33 80.5 -87t37.5 -83q0 -27 -43 -82t-110 -117q-23 -27 -48.5 -52.5 t-33.5 -31.5q0 -10 -11.5 -23.5t-25.5 -19.5q-47 -41 -108.5 -98t-63.5 -64q-2 -8 41 -71.5t91 -121.5t60 -58q76 74 146 131q51 45 143 129q74 80 111 80q18 0 41 -23q29 -6 28 -51q0 -23 -6 -46.5t-10 -31.5q-47 -63 -213 -207q-94 -86 -123 -115q6 -8 27.5 -32.5 t48.5 -48.5q70 -72 105.5 -99.5t82.5 -42.5q61 -20 84 -46.5t27 -74.5q2 -20 -20.5 -30.5t-59.5 -10.5q-47 0 -103.5 14.5t-90.5 35.5q-35 10 -87.5 64t-150.5 171q-141 -78 -194.5 -103.5t-131.5 -47.5q-23 -2 -65 -2q-98 0 -182 28q-25 8 -78 43t-70 51q-10 6 -16 44 t-6 75zM324 207q0 -14 7 -20.5t21.5 -13.5t28.5 -15q43 -15 84 -15q49 0 96 23.5t150 93.5l39 29l-52 59q-16 20 -34 47q-23 35 -46 62q-25 23 -36 40t-13 21q-10 0 -50 -43t-58 -74q-37 -29 -59.5 -56.5t-41 -57t-26.5 -41.5q-10 -20 -10 -39zM545 858q0 -45 28 -86 q29 33 107 88q102 78 157.5 133.5t55.5 106.5q0 12 -2 18q-8 14 -45 29.5t-70 13.5q-39 2 -72.5 -26.5t-85.5 -102.5q-37 -53 -55 -95t-18 -79z" />
<glyph unicode="'" horiz-adv-x="239" d="M319 899q-10 35 25 84q78 127 98 184q2 16 12.5 57.5t10.5 75.5q-2 18 12.5 55.5t28.5 30.5q8 -4 42 -19t55.5 -35.5t17.5 -41.5q-4 -53 -27 -121.5t-27 -83.5q-20 -78 -112 -182q0 -4 -6.5 -7t-17.5 -6t-25 -7q-25 -4 -31 -4q-31 0 -56 20z" />
<glyph unicode="(" horiz-adv-x="675" d="M283 182q0 137 41 289q25 84 28 135q4 14 72 170q78 176 98 234q43 94 154.5 254.5t148.5 189.5q4 4 24.5 22.5t37.5 22.5q8 20 31.5 35.5t44.5 15.5q33 18 71 19q35 0 61.5 -18.5t37.5 -57.5l4 -25q0 -12 -8.5 -17t-41.5 -21q-27 -10 -55 -25.5t-41 -30.5 q-18 -25 -40.5 -46t-35.5 -30q-37 -14 -36 -32q-4 -10 -22.5 -44t-51.5 -75q-41 -66 -55 -92q-10 -18 -54 -90q-6 -10 -22.5 -41t-38.5 -58q0 -10 -7 -32.5t-24 -47.5q-12 -45 -49 -120q-25 -51 -52.5 -140.5t-27.5 -117.5q-6 0 -11 -25t-11 -84l-11 -74 q-4 -135 16.5 -204.5t78.5 -131.5q25 -20 47 -30.5t51 -12.5l70 -43q-12 -45 -48 -67.5t-75 -18.5q-95 13 -164.5 83.5t-98.5 164.5q-37 84 -36 217z" />
<glyph unicode=")" horiz-adv-x="675" d="M33 -168q0 4 1 24.5t9 32.5q2 -2 9 -5t22 -3q16 0 28 4q39 -2 60.5 7.5t52.5 46.5l37 47q47 55 55 77q29 20 43.5 38t30.5 44q0 45 37 105q27 57 39 78q25 49 24 55q2 4 7.5 18.5t3.5 30.5q12 6 21 27.5t7 44.5q2 8 19.5 50t19.5 83q33 104 43 184t21 254l4 109 q2 27 2 63q0 31 -4 48.5t-17 37.5q-20 66 -35 66q-4 0 -8 11t-4 30q0 18 6 37q-2 8 30 18t50 8q12 0 29.5 -11t25.5 -19q14 14 64 -121q18 -41 23.5 -61.5t5.5 -57.5l-4 -86l-5 -68q-2 -102 -18 -231t-39 -238q-27 -106 -93.5 -277t-96.5 -220q8 2 -70 -111l-80 -123 q-49 -68 -125 -118t-117 -37q-38 10 -75 43.5t-39 64.5z" />
<glyph unicode="*" horiz-adv-x="743" d="M369 864q0 43 6 62q20 27 110 120t107 105q16 14 16 23q0 6 -16 20l-8 8t-5 8t3 4q0 2 -2 7.5t-9 7.5q-12 18 -12 35q0 8 -7 26.5t-9 24.5q-10 6 -1 38.5t19 43.5q2 0 6 -2t13 -9q6 0 29.5 -27.5t41.5 -51.5q12 -25 17.5 -30t12.5 -4t13 1q4 8 17.5 34.5t17.5 57.5 q27 37 40 59.5t24 34.5q4 10 11 20.5t9 12.5q0 4 5 12t11 11q12 16 33 26t27 6q6 -8 16 -18t15 -23l36 -30l-26 -35q-41 -61 -72 -120.5t-24 -59.5q6 2 23 9t36 11q27 12 51 21q20 0 49 18q18 6 29 6q10 0 20 -6q14 -14 27.5 -46t13.5 -44q-2 -2 -33.5 -26.5t-93.5 -43.5 q-129 -39 -133 -53q-10 0 -10 -10q0 -8 10 -25q4 -12 6 -55q10 -39 15.5 -61.5t7.5 -28.5q6 0 7 3t1 9q0 8 19 8q8 0 28.5 -27.5t14.5 -31.5v-12q10 -2 -28 -38t-46 -36q-21 -12 -48.5 11.5t-49.5 64.5q-12 31 -19 53l-18 49l-4 76q-2 2 -56.5 -46t-136.5 -130 q-47 -43 -67.5 -57.5t-32.5 -14.5t-28.5 10t-16.5 12q-2 4 -2 33z" />
<glyph unicode="+" horiz-adv-x="913" d="M193 430q0 35 114 47q70 14 215 21q-2 63 -2 155q0 117 41 160q18 18 43 18t39 -18t10 -49l11 -160l4 -100q63 2 155 2q115 0 160 -43q18 -18 18 -43q0 -23 -19 -37t-48 -10l-160 -11l-104 -4l4 -180q0 -41 -10 -72q0 -51 -41 -73q-12 -10 -27 -10q-35 0 -47 114 q-14 70 -21 219l-180 -4q-41 0 -72 10q-51 0 -73 41q-10 12 -10 27z" />
<glyph unicode="," horiz-adv-x="405" d="M51 -141q0 12 8.5 24.5t22.5 24.5q49 47 108 160q10 31 33 120q0 41 10 52q37 31 58 30q47 0 65 -110q4 -29 4 -41q0 -53 -38 -131q-8 -20 -56.5 -77.5t-56.5 -57.5t-18.5 -8.5t-12.5 -10.5q-6 -6 -24.5 -8t-40.5 -2q-44 0 -62 35z" />
<glyph unicode="-" horiz-adv-x="667" d="M193 430q0 35 114 47q129 29 287 29q98 0 143 -43q18 -18 19 -43q0 -23 -19.5 -37t-48.5 -10l-143 -11q-10 0 -71.5 -5t-125.5 -5q-41 0 -72 10q-51 0 -73 41q-10 12 -10 27z" />
<glyph unicode="." horiz-adv-x="405" d="M166 180q0 51 76 105q41 27 63 26q16 0 55 -16q61 -41 62 -84q0 -57 -90 -105q-43 -14 -66 -14q-35 0 -69 27q-31 31 -31 61z" />
<glyph unicode="/" horiz-adv-x="675" d="M66 -125q0 68 36 154q4 8 19.5 36.5t17.5 45.5q14 35 124 242.5t157 293.5h2q8 0 15 11.5t12 27.5q4 20 14 37.5t20 21.5q2 6 9.5 21.5t7.5 21.5q0 4 7 14.5t7 16.5q43 55 214 359.5t175 330.5q2 31 39 25q14 10 33 6l23.5 -23.5t33.5 -39.5q14 -16 15 -39q0 -18 -7 -37 q-4 -31 -15 -51.5t-54 -81.5l-56 -78q-29 -41 -93 -152.5t-62 -119.5q-4 -6 -15.5 -25t-19.5 -39q-23 -29 -72 -104.5t-51 -83.5q-2 -4 -5 -13.5t-13 -15.5q-4 2 -9.5 -7t-5.5 -14q4 -16 -49 -102l-49 -98q-14 -31 -84 -170.5t-114 -236.5t-50 -126q-8 -45 -26.5 -78.5 t-34.5 -40.5q-43 -2 -69.5 27t-26.5 84z" />
<glyph unicode="0" horiz-adv-x="921" d="M268 399q0 39 8 101q23 131 95.5 261t171.5 216q113 100 221 127q29 8 121 8q39 0 90 -17.5t88 -41t37 -43.5t-3 -30.5t-18 -4.5h-20l20 -62q8 -18 14.5 -44.5t6.5 -49.5q0 -41 -20.5 -145.5t-35.5 -141.5q-8 -16 -8 -43q-8 -14 -32 -71l-21 -43q-8 -6 -12 -14.5t2 -14.5 q0 -10 -20.5 -48t-28.5 -38q-2 0 -6.5 -1t-4.5 -7q0 -8 -28.5 -44t-63.5 -71q-33 -35 -111.5 -83t-109.5 -48q-27 0 -95.5 22.5t-96.5 47.5q-139 119 -140 323zM446 375q0 -45 3.5 -59.5t10.5 -29t11 -20.5q8 -14 26.5 -34.5t22.5 -26.5q16 -16 27 -17q6 0 18.5 5.5 t30.5 9.5q49 -1 78 28q82 55 127 160q20 29 33.5 59.5t44.5 120.5q14 20 21 52t7 59q0 90 11 127q0 53 -2.5 61.5t-16.5 26.5q-23 18 -49 18q-16 0 -40 -7t-38 -17q-12 -4 -18 -4q-12 0 -21.5 5t-9.5 13q0 25 -21.5 3.5t-78.5 -93.5q-33 -33 -60.5 -73t-27.5 -48 q0 -6 -7.5 -22.5t-11.5 -26.5q-14 -23 -38.5 -79t-31.5 -81v-110z" />
<glyph unicode="1" horiz-adv-x="921" d="M358 743q4 2 80 58q72 51 94 65q4 0 22.5 15.5t35.5 25.5q6 8 96 72l109 80q70 43 132 73.5t70 28.5q12 -2 55.5 -31.5t45.5 -46.5q4 -8 4 -14q0 -14 -17 -51q-18 -39 -66 -180.5t-73 -223.5q-14 -53 -43 -131q-6 -18 -17.5 -52t-19.5 -69q-18 -45 -40.5 -124.5 t-34.5 -135.5q-14 -39 -25 -77q-14 -53 -23 -62q-8 -4 -18 -4q-23 0 -54.5 10.5t-45.5 24.5q-12 10 -18.5 20.5t-6.5 34.5q0 33 14 96q10 49 29 114t25 83q16 8 73 201q31 111 70 227q16 49 31.5 83t19.5 42q-14 -8 -65.5 -39t-104.5 -72q-23 -14 -76 -55q-57 -45 -84 -59 l-34 -27q-6 -4 -21.5 -16.5t-25 -16.5t-15.5 -4q-8 0 -16 6q-29 25 -51.5 68t-10.5 63z" />
<glyph unicode="2" horiz-adv-x="921" d="M240 129q0 14 6 32.5t12 18.5q6 -6 25.5 31t21.5 49q2 8 13.5 15.5t15.5 9.5q10 16 29.5 35.5t25.5 27.5q8 10 30.5 34t41.5 42q49 45 71 70q106 115 111 133l8 8t17 12q31 20 57 47q6 31 55 80q16 23 29.5 50.5t19.5 47.5t-2 26.5t-57 21.5q-35 10 -57 10 q-31 0 -65 -15.5t-85 -50.5q-29 -6 -45 -14q-37 -12 -47 -10q-6 2 -18.5 18t-22.5 27l-20 88l63 35q152 96 248 96q25 0 47 -6q18 0 36.5 -4t22.5 -7q27 2 82.5 -38.5t73.5 -81.5q27 -43 27 -93q0 -80 -62 -172q-45 -53 -137 -153t-113 -117q-25 -12 -119 -111.5t-85 -99.5 q-2 -8 25.5 2t37.5 15q47 16 123 29.5t119 13.5q20 0 28 -5q4 -8 7.5 -7t3.5 3q2 8 28 9q47 0 111 -19q20 -6 34.5 -16t14.5 -19q2 -2 7 -11t16 -21q16 -12 16 -31q0 -18 -22.5 -32.5t-61.5 -14.5q-29 0 -45 4q-53 0 -88 -6q-6 -4 -38 -5t-48 -1q-10 2 -29 2q-47 0 -133 -29 q-45 -18 -147.5 -45t-120.5 -21q-13 4 -47.5 42t-42.5 59q-2 2 -2 12z" />
<glyph unicode="3" horiz-adv-x="921" d="M297 119q4 66 70 65l18 -2q57 -10 104 -10q84 0 157 23.5t116 66.5q57 57 57 92q0 39 -57 76q-41 29 -104.5 49.5t-104.5 18.5q-31 -4 -98 30q-12 12 -22.5 46t-14.5 42q-4 14 41 45t182 105l90 49q61 33 99 55.5t59 40.5q23 27 22 37q0 10 -12 17.5t-43 13.5 q-18 2 -51 2q-61 0 -62 -12h-8q-14 6 -78.5 -8.5t-66.5 -22.5q-2 -6 -51.5 -20.5t-59.5 -14.5q-14 4 -34.5 53.5t-14.5 65.5q4 12 53 43t90 49q43 10 142.5 21.5t136.5 9.5q98 -10 153.5 -50t71.5 -118q4 -20 4 -31q0 -74 -92 -158q-61 -41 -61 -40q-57 -41 -92 -58 q-18 -14 -82 -37q-47 -18 -47 -22q12 -2 46.5 -8.5t49.5 -18.5q51 -18 100 -63t80 -86q16 -37 16 -74q0 -86 -61 -175t-150 -140q-88 -49 -288 -64q-49 0 -98.5 18.5t-78 46t-26.5 52.5z" />
<glyph unicode="4" horiz-adv-x="921" d="M326 600q0 8 2 12v9q4 6 7 14t9 16q20 53 37.5 85t17.5 42q16 37 119 178.5t135 171.5q18 8 47 19.5t43 11.5q20 0 44 -40t24 -56q-2 -6 -19.5 -31.5t-58.5 -73.5q-82 -115 -150.5 -227.5t-68.5 -140.5q0 -10 7 -15.5t28 -5.5q113 18 159 32.5t63 37.5t40 80l25 59 q43 100 85 172t70.5 110t34.5 38q10 0 59.5 -42t49.5 -50q0 -25 -10.5 -47.5t-34.5 -63.5q-49 -90 -46 -82q-76 -150 -138 -303.5t-98 -264t-36 -130.5q0 -16 10 -37q0 -39 -34.5 -71t-69.5 -32q-8 0 -25.5 14.5t-32 40t-14.5 60.5v8q0 10 8 56q18 113 68 245q14 39 14 43 l-55 -10q-106 -27 -149 -26q-39 0 -61.5 14t-45.5 49q-14 12 -36.5 57t-22.5 74z" />
<glyph unicode="5" horiz-adv-x="888" d="M274 195q6 12 28 21t42 9q33 0 35 -16q4 -16 29.5 -25.5t64.5 -9.5q170 0 277 139q16 35 29.5 91.5t13.5 87.5q0 18 -7 18q0 4 -3 16.5t-9 28.5q-10 29 -47 61.5t-72 47.5l-20 2q-37 0 -115 -11l-20 -2q-14 0 -18.5 2t-4.5 4q-16 4 -56 40t-40 51q6 31 69.5 127 t108.5 141q57 61 136 96t161 35q72 0 104.5 -12.5t59.5 -49.5q12 -25 12 -49q0 -27 -12 -46t-31 -19q-12 0 -18 4q-23 14 -64 14q-47 0 -119 -20q-14 -6 -42.5 -16.5t-43 -20.5t-20.5 -25q-4 -4 -10 -11t-13 -5q-2 -2 -7 -9t-5 -14q-6 -6 -10 -12t-7 -7t-7 5l-2 -20 q-2 -14 8 -19.5t51 -9.5q57 -8 81.5 -16.5t72.5 -36.5q61 -37 89.5 -115t28.5 -174q0 -49 -6 -96q-6 -51 -13 -74t-34 -64q-70 -98 -198 -161.5t-240 -63.5q-70 0 -111 27q-14 10 -25.5 23.5t-11.5 21.5q-4 8 -8 10t-10 2q-8 -4 -16.5 42t-4.5 63z" />
<glyph unicode="6" horiz-adv-x="964" d="M270 268q0 23 19 115q18 84 30.5 122t47.5 87q14 41 36.5 86t32.5 57q8 10 29.5 42t44.5 54l55 74q29 18 39 33q35 43 140.5 104.5t166.5 69.5q25 8 43 8q23 0 19 -10l25.5 -25.5t33.5 -21.5q6 -2 13.5 -15.5t11.5 -19.5q6 -31 -66 -98q-29 -20 -40 -23.5t-19 6.5 q2 6 -6 10.5t-13 4.5q-23 6 -84 -24t-102 -75q-45 -41 -51 -57q-23 -23 -42.5 -46.5t-25.5 -31.5q2 -8 17 -8q12 0 24.5 6t14.5 10q0 8 46 21.5t93 17.5q12 4 24 4q16 0 78 -12q47 -10 63.5 -18t39.5 -37q70 -68 69 -172q0 -41 -7 -66.5t-28 -52.5q-31 -51 -73.5 -110.5 t-65.5 -73.5q-8 -4 -14 -8.5t-8 -6.5q-4 -23 -105.5 -81t-167.5 -74q-49 -15 -100 -15q-84 0 -131 48q-33 25 -60.5 63.5t-33.5 77.5q-12 41 -13 61zM440 252q0 -14 6 -25q4 -18 12.5 -24t26.5 -13l22 -4t23 -2q23 0 66 19q41 12 47 10l84 55q86 51 134 117t48 117l-2 16v4 q0 10 -5 24.5t-5 18.5q-6 0 -18.5 3t-30.5 7q-20 6 -39 7q-37 0 -176 -35q-12 -4 -30.5 -11.5t-31.5 -9.5q-4 -6 -19 -14t-28 -12q-23 -4 -36 -35t-33 -119l-9 -51q-6 -31 -6 -43z" />
<glyph unicode="7" horiz-adv-x="913" d="M383 41q-14 68 143 365q45 72 45 86q0 8 -11 10t-30 2q-8 2 -44.5 10t-43.5 16q-39 20 -39 43q0 12 15 15q12 2 20 12t8 21q0 16 -18 22l23 -4q20 0 65 -4l53 -2q37 0 54 -2q6 -2 16 -2q14 0 22.5 7t20.5 22.5t18 23.5q4 8 33 51q41 53 64 96q82 115 82 148q0 25 -35 20 q-70 -10 -191 -55q-70 -29 -108 -29q-20 0 -35 9q-12 2 -20.5 31.5t-8.5 60.5q0 18 2 24q8 37 269 103q66 10 137 10q53 0 89 -7t44 -20q2 -2 6 -5t6 3q6 -2 13.5 -17t15.5 -32q4 -8 16.5 -30.5t12.5 -38.5q0 -8 -5 -29q-6 -20 -20 -43t-23 -31q-8 -8 -13 -17.5t-7 -11.5 q-2 -6 -13.5 -15t-19.5 -19q-2 -6 -9 -17.5t-9 -17.5l-107 -162q-29 -27 -28 -39q0 -12 26 -24q72 -33 88 -82v-11q0 -37 -16 -45q-10 -14 -33.5 -20t-30.5 2q-8 16 -46 31.5t-50 15.5q-10 -6 -35 -39q-27 -39 -67 -119l-49 -86q-2 -6 -11.5 -20.5t-13.5 -24.5 q-8 -14 -14 -42.5t-6 -51.5q0 -20 6 -20q4 2 10 2q18 0 25 -29q10 -14 -14.5 -38t-61.5 -41t-60 -13q-24 4 -57 34.5t-45 59.5z" />
<glyph unicode="8" horiz-adv-x="921" d="M223 66q0 8 4 36q0 72 25 111q25 70 102.5 186.5t134.5 188.5q23 27 23 43q0 12 -12.5 32.5t-30.5 47.5q-6 16 -15.5 30.5t-4.5 14.5q-2 2 -6.5 8t-10.5 20q-31 29 -31 88t31 117q33 76 88 128t117 61q66 -8 155 -25.5t136 -38.5q37 -16 102.5 -64.5t69.5 -64.5 q0 -4 6 -13t10 -18q12 -27 12 -77q0 -35 -6 -67t-16 -48q-51 -57 -72 -66q-6 -4 -21.5 -18t-31.5 -19q-27 -35 -37 -34q-10 6 -17 7t-7 -7q-2 -8 -55.5 -32t-65.5 -18h-2q-10 0 -23 -8q-10 2 -3 -15t34 -50q80 -150 80 -232q0 -39 -17 -61q-39 -88 -84 -145.5t-71 -53.5 l-29 -18q-4 -12 -16.5 -18.5t-24.5 -4.5l-6 2q-23 0 -57 -22q-31 -20 -85.5 -34.5t-93.5 -14.5q-16 0 -28 4q-19 2 -59 30.5t-66 53.5q-4 8 -14.5 30.5t-10.5 47.5zM401 90q0 -31 25 -31q29 0 85 26t103 58q100 82 101 158q0 29 -8 47q-41 84 -52 98q-18 29 -41 41 q-2 -4 -11 -17t-17 -32q-27 -35 -39 -55l-45 -45q0 -6 -12.5 -35t-28.5 -59q-59 -102 -60 -154zM569 844q0 -31 17 -62q14 -6 22 -18t8 -16q0 -6 4.5 -12.5t12.5 -6.5q2 -8 13 -16t28 -8q27 0 63 22q51 45 78 45q16 0 27 -16q4 -8 40 12t68 53q8 14 8 19q0 4 -4 12t-6 25 q2 27 -1 37t-18.5 21t-58.5 28q-92 33 -157 32q-96 0 -131 -90q-12 -37 -13 -61z" />
<glyph unicode="9" horiz-adv-x="897" d="M395 788q0 37 10.5 65t40.5 77q63 94 166 175t183 95q29 4 53 4q63 0 94 -12q29 -12 67 -54t63.5 -87t19.5 -68q-12 -63 -31 -99t-47 -67q-47 -41 -119 -182t-123 -287q-39 -111 -39 -192q0 -35 10 -35q12 -2 28.5 -6t29.5 -6q6 -8 6 -17q0 -8 -10 -35q-10 -29 -76 -87 t-82 -56q-14 2 -48 25.5t-34 31.5q2 6 0 8.5t-8 2.5q-2 4 -5 16t-1 25q0 8 2 27.5t2 41.5q4 55 35.5 169t66.5 216q27 70 27 84q0 20 -29 21q-14 0 -24 -2t-31 -2q-80 0 -138.5 64.5t-58.5 145.5zM567 786q0 -18 13 -30q24 -29 61 -29q45 0 96 40t97 112q18 23 29 44t18 25 q6 6 18 20.5t17.5 23.5t5.5 16q0 8 -9 16q-16 25 -34 25q-12 0 -62 -17q-18 -4 -34.5 -12t-32.5 -21l-43 -30q-12 -12 -33 -8q-2 0 -5 -2.5t-3 -8.5q2 -2 2 -8q0 -18 -27 -39q-74 -76 -74 -117z" />
<glyph unicode=":" horiz-adv-x="405" d="M168 180q0 49 78 105q41 27 63 26q16 0 56 -16q61 -39 61 -84q0 -57 -92 -105q-44 -14 -64 -14q-33 0 -71 27q-31 31 -31 61zM311 610q0 49 78 105q41 27 64 26q16 0 55 -16q61 -39 61 -84q0 -57 -92 -104q-43 -15 -63 -15q-33 0 -72 27q-31 31 -31 61z" />
<glyph unicode=";" horiz-adv-x="405" d="M55 -141q0 12 8.5 24.5t22.5 24.5q39 37 71.5 95t37.5 65q10 31 32 120q0 41 11 52q37 31 57 30q47 0 65 -110q4 -29 5 -41q0 -53 -39 -131q-8 -20 -56.5 -77.5t-58.5 -57.5t-29 -19q-6 -6 -24.5 -8t-40.5 -2q-44 0 -62 35zM311 610q0 49 78 105q41 27 64 26q16 0 55 -16 q61 -39 61 -84q0 -57 -92 -104q-43 -15 -63 -15q-33 0 -72 27q-31 31 -31 61z" />
<glyph unicode="&#x3c;" horiz-adv-x="913" d="M215 514q18 4 32.5 12.5t16.5 8.5q20 10 64 38q86 57 176 109q211 109 254 152q10 12 25.5 18t27.5 6q12 4 40 -18.5t34 -26.5q10 -8 22.5 -15t16.5 -12.5t6 -15.5q0 -6 -6 -22.5t-19 -26.5q-29 -25 -131 -78q-137 -72 -211 -117q-35 -20 -80 -43q-29 -16 -38 -23t-9 -24 l2 -16q37 -43 118 -85t228 -87q96 -31 133 -59.5t37 -63.5l-2 -16q-10 -16 -49 -28.5t-84 -12.5q-63 0 -106 20q-21 6 -66 17.5t-80 28t-69 42.5q-12 8 -37 21q-61 35 -93 59.5t-63 67.5l-67 82z" />
<glyph unicode="=" horiz-adv-x="913" d="M203 330q0 25 33.5 41t103.5 14q150 29 354 29q57 0 87 -11.5t57 -35.5q29 -25 28 -52q0 -20 -16 -32.5t-45 -8.5l-178 -10q-154 -10 -246 -10q-41 0 -84 10q-59 0 -76 29q-18 23 -18 37zM313 623q0 25 34 41t106 14q150 29 354 29q59 0 87 -10.5t54 -34.5q29 -25 29 -54 q0 -20 -16.5 -32.5t-45.5 -8.5l-172 -10q-154 -10 -249 -10q-41 0 -86 10q-59 0 -76 29q-18 23 -19 37z" />
<glyph unicode="&#x3e;" horiz-adv-x="913" d="M262 774l2 17q10 16 49 28t84 12q63 0 107 -20q20 -6 65 -17.5t80 -27.5t70 -43q12 -8 37 -21q61 -35 93 -59.5t62 -67.5l68 -81l22 -109q-18 -4 -32.5 -12t-16.5 -8q-20 -10 -63 -39q-86 -57 -176 -109q-211 -109 -254 -151q-10 -12 -25.5 -18.5t-27.5 -6.5 q-13 -4 -40.5 18.5t-33.5 26.5q-10 8 -22.5 15.5t-16.5 12.5t-6 15q0 6 6 22.5t18 26.5q29 25 131 78q137 72 211 117q35 20 80 43q29 16 38 23t9 24l-2 16q-37 43 -117.5 85t-228.5 87q-96 31 -133 59.5t-37 63.5z" />
<glyph unicode="?" horiz-adv-x="765" d="M293 86q0 51 76 102q20 12 36.5 20.5t28.5 8.5q16 0 55 -16q59 -35 60 -84q0 -57 -90 -105q-39 -16 -66 -16q-31 0 -69 29q-31 31 -31 61zM438 496q0 10 2 16q0 10 19 51q14 35 20 51q23 39 69 91.5t81 76.5l35 25q0 8 28.5 30.5t48.5 32.5q8 6 29 20.5t39 31.5 q45 45 67.5 85t33 80.5t30.5 139.5q2 68 -5 86t-34 39q-29 4 -45 4q-137 0 -213 -166q-14 -37 -14 -53q0 -10 6 -27q0 -12 5 -35.5t5 -36.5q-4 -2 -26.5 -8t-47.5 -6q-41 0 -63 23q-4 6 -16.5 21t-20.5 28q-8 12 -10 24.5t-1 25.5t1 28q25 78 74 153.5t118 110.5 q37 16 73 35.5t46 25.5q4 0 20.5 1t47.5 5h10h12q20 0 21 -8h59q37 -10 92.5 -46t77.5 -60q12 -39 12 -95q0 -102 -38.5 -222t-100.5 -187l-45 -41q-100 -90 -127 -121q-66 -37 -120 -111.5t-83 -156.5q-39 -82 -104 -82q-31 2 -46.5 24.5t-15.5 51.5q0 2 -3 16t-3 29z" />
<glyph unicode="@" horiz-adv-x="1316" d="M154 137q-4 53 11 137t38 127q0 8 3 16.5t5 16.5q0 12 14.5 41t32.5 55q123 166 190.5 242t176.5 154q57 45 155.5 86t169.5 51l19 2l69 -4q66 -6 131.5 -31.5t106.5 -64.5q74 -59 120 -135t60 -140q8 -41 8 -90q0 -53 -6 -102t-18 -74q-29 -61 -87.5 -139t-116.5 -137.5 t-87 -67.5q-33 0 -83 14.5t-73 34.5q4 0 -39 25q-4 -4 -17 -17.5t-34 -32.5q-41 -39 -108.5 -65.5t-94.5 -20.5q-63 16 -86.5 30.5t-64.5 70.5q-35 90 -35 110q0 33 21 101q12 53 32.5 93t57.5 93q33 49 92 98.5t117 73.5q25 12 73 12q43 0 74 -20q20 -2 62 -47t55 -74 q6 -31 6 -45t-6 -49q-4 -12 -6 -23.5t-5 -21.5l-18 -82q-4 -10 -7 -16.5t-4 -13.5t3 -17q-2 -10 18.5 -20.5t36.5 -10.5t66 57q55 59 71.5 81t34.5 71q4 33 4 70q0 240 -192 317q-41 16 -113 16q-102 0 -178 -32q-49 -16 -130 -86t-136 -136q-170 -205 -201 -421 q-2 -16 -2 -45q0 -53 18 -91q20 -43 50 -68.5t84 -60.5q76 -29 190 -28q41 0 63 2q16 -4 21.5 -10.5t3.5 -22.5q0 -8 4 -29.5t12 -40.5l2 -34q0 -23 -14 -29q-18 -8 -69.5 -17.5t-75.5 -9.5q-68 0 -149 32t-148 85q-37 33 -75 80t-62 90q-16 23 -27.5 60.5t-13.5 76.5z M684 236q20 -39 57 -39q14 0 29 6q27 16 59.5 48t40.5 50l15 27q35 63 43 108q4 6 14 37q0 12 -3 18.5t-15 14.5h2q-33 8 -60 8q-25 0 -39 -8q-31 -12 -66.5 -63.5t-58 -111t-18.5 -95.5z" />
<glyph unicode="A" horiz-adv-x="1046" d="M84 -18q0 20 17.5 58t60.5 120q12 27 47 94q88 168 88 248q-2 4 -2 12q0 20 33 37q6 6 44 34.5t60 65.5q27 61 68 136t141 245q98 180 209 326q20 29 46 45t44 16q63 0 130 -49t87 -98q8 -14 8 -62q0 -63 -14 -215q-4 -27 -8 -84q-6 -92 -19 -196q-23 -229 -33 -358.5 t-10 -241.5q0 -57 2 -84v-15l-2 -47q-12 -12 -49 -12q-41 0 -82 13.5t-45 31.5q-2 2 -6 4t-4 19l2 45l6 114l10 314l-26 -2q-41 0 -173 -16.5t-167 -26.5q-18 0 -45 -25t-47 -63q-6 -20 -29 -58.5t-23 -44.5q-12 -8 -21 -21.5t-11 -17.5q0 -23 -40 -116t-79 -152l-55 -78 l-72 55q-23 12 -32 22.5t-9 27.5zM614 637q15 2 58 9t76 9q98 25 135 25q20 0 28 -4q6 -8 13.5 -11t9.5 -3q4 16 32.5 223t28.5 254q0 33 -2 56.5t-4 29.5q-18 0 -83.5 -97.5t-127.5 -220.5q-47 -84 -65 -84q-13 -14 -61 -96q-39 -68 -40 -85q0 -4 2 -5z" />
<glyph unicode="B" horiz-adv-x="1067" d="M154 152q0 14 10 34q10 18 17 37t16 51q27 80 154.5 397.5t199.5 479.5q37 84 37 111q0 10 -6 12q0 6 -6.5 18.5t-4.5 18.5q0 13 73 37q63 21 91 21q5 0 8 -1h13q27 0 26 10q4 0 38 4q17 2 35.5 2t37.5 -2q145 -12 229 -82q82 -69 82 -202v-6q-4 -53 -59 -145.5 t-121 -151.5q-33 -29 -75 -61t-54 -40l51 -18q96 -37 149.5 -90.5t75.5 -145.5q4 -20 5 -37q0 -45 -15.5 -102t-34.5 -100q-12 -12 -20 -26.5t-10 -18.5q-2 -8 -37 -62.5t-62 -87.5q-135 -115 -223 -147q-86 -39 -205 -39q-106 0 -157 33q-54 32 -80.5 68t-26.5 69 q0 43 43 69q8 4 23 4q20 0 43.5 -7t36.5 -19q53 -49 127 -49q33 0 94 14q80 25 126 61.5t109 114.5q39 51 58.5 103.5t19.5 95.5q0 47 -22 74q-41 55 -91.5 82.5t-117.5 27.5q-59 0 -117 -16l-119 -25q-8 -2 -21.5 -3t-38 -60.5t-83.5 -225.5q-43 -121 -72 -173t-51 -52 q-25 0 -53 45q-6 10 -25.5 41t-19.5 60zM559 702q21 5 82 18t88 23q4 2 25.5 13.5t44.5 34.5q129 121 180 217q51 84 51 118q0 25 -22 48q-39 45 -129 45q-39 0 -66 -9q-29 -8 -42 -19t-13 -34q0 -16 -10.5 -35.5t-22.5 -31.5q-2 -12 -11 -24.5t-14 -16.5q0 -4 -27.5 -55.5 t-51.5 -114.5q-61 -145 -62 -177z" />
<glyph unicode="C" horiz-adv-x="1005" d="M242 256q0 121 14 206t49 173l19 43q33 84 47 110q35 80 123 207q82 123 130 183.5t99 104.5t149 112q59 43 146 43q68 0 124 -33t85 -102q20 -35 20 -97q0 -98 -47 -212.5t-113 -174.5q-14 -14 -38 -14q-25 0 -53.5 14.5t-51.5 34.5q-18 35 -20 41t8 8q18 23 54 87.5 t48 101.5l13 57q12 53 12 70q0 18 -15 32q-6 6 -16 6q-16 0 -57 -20q-47 -20 -111.5 -82.5t-128.5 -148.5q-94 -123 -144 -203t-77 -162l-23 -53q2 -8 -6 -41t-18 -53q-29 -119 -29 -215q0 -76 15.5 -131.5t44.5 -81.5q16 -14 47 -15q33 0 74.5 15.5t89 36t65.5 28.5 q47 18 89 43t63 45q53 39 86 39q27 8 42 -16.5t15 -67.5q0 -29 -39 -68.5t-92 -70.5q-23 -23 -100 -53q-66 -47 -153 -84t-159 -37q-16 0 -41 4q-63 22 -121.5 65t-85.5 109q-32 89 -32 210v7z" />
<glyph unicode="D" horiz-adv-x="1202" d="M104 -27q0 35 15.5 58.5t48.5 29.5h6q8 0 33 -8q0 59 14 109q18 84 115 360l24 70q14 35 41 131q23 76 50.5 155.5t40.5 100.5q6 16 12 45q31 104 61 180l15 68l-23 10q-18 -6 -33 -6q-10 0 -22 6q-18 -6 -50 20.5t-36 47.5q-4 6 -5 18t-1 16q2 14 49 32t116.5 30 t133.5 12q29 0 43 -2q51 -4 126.5 -23.5t137.5 -41.5q68 -25 144.5 -86.5t137 -143.5t80.5 -168q6 -27 12.5 -74t6.5 -83q0 -43 -8 -54q-7 -8 -7 -20t9 -14q-4 -12 -14.5 -45t-22.5 -70q-6 -74 -48 -181.5t-79 -170.5q-10 0 -16.5 -3.5t1.5 -5.5q0 -10 -22 -39 q-6 -4 -25.5 -29.5t-27.5 -31.5q-2 -14 -12.5 -23.5t-18.5 -9.5l-3 -1t-3 -7q-37 -53 -146.5 -146.5t-185.5 -123.5q-20 -14 -48 -26.5t-38 -16.5q-14 -12 -154 -25q-20 -2 -44.5 -4t-49.5 -6q-12 -2 -41 -2q-66 0 -172 26q-27 8 -39 18.5t-27.5 30t-23.5 29.5 q-27 39 -27 88zM369 -31q30 -13 57 -13q7 0 14 1q12 2 34 4t32 2q61 4 91 9t50 22q90 61 146.5 105t68.5 57q4 10 43 24l58 60q51 55 65 65q2 14 7 29.5t5 23.5q25 27 74 128.5t68 175.5q18 85 18 159q0 211 -151 340q-43 37 -141 80q-89 39 -108 39h-3q-10 -2 -52.5 -114.5 t-89.5 -250.5l-92 -258q-8 -33 -18 -61.5t-17 -50.5q-27 -76 -26 -86q-59 -92 -88 -312q-4 -12 -23 -94q-13 -65 -19 -65h-1z" />
<glyph unicode="E" horiz-adv-x="1140" d="M205 268q0 61 21.5 150.5t43.5 138.5q45 109 199 348q8 8 11 11.5t2 4.5l-1 1q0 14 60 127q34 36 34 62q0 15 -6 24q-6 8 16.5 35.5t62.5 61.5t85 58q55 43 109 43q16 0 27.5 -5t13.5 -15q0 -5 12 -5q19 0 70 13q37 8 53 10q8 10 42 17.5t95 15.5q16 -1 36.5 -1t44.5 1 q48 2 62 4q14 4 42 -18.5t44 -57.5q4 -12 5 -18q0 -31 -39 -52.5t-113 -29.5q-76 -10 -133 -20.5t-143 -28.5l-43 -8q-63 -10 -94 -26.5t-66 -72.5q-14 -10 -37 -52t-45 -87l-41 -55q-47 -63 -58.5 -83t-5.5 -28q8 -2 30 -6t36 -6q18 10 51 14t47 8l45 13q127 33 186.5 47 t88.5 18q10 8 24 7q23 0 44.5 -21t31.5 -49q8 -29 8 -37q0 -35 -41 -52.5t-164 -45.5q-178 -43 -223 -56q-133 -39 -196 -39q-53 0 -52 35q-18 10 -42.5 -37t-42 -116.5t-17.5 -120.5q0 -27 6 -45q18 -49 55 -83t103 -53q14 -2 35.5 -4t50.5 -2q41 0 82 17q160 27 225 73 q10 4 19.5 14.5t17.5 10.5l-2 -4q0 -2 12 9t27 24q57 49 127 49q25 0 42 -7t19 -14q4 -7 4 -16q0 -19 -16 -49q-24 -45 -76.5 -94.5t-116.5 -85.5q-100 -53 -224 -79t-238 -28q-50 4 -99 30.5t-90 55.5t-55 39q-35 35 -53.5 75t-30.5 105q-4 25 -4 43z" />
<glyph unicode="F" horiz-adv-x="972" d="M176 47q0 20 6 41q16 74 60.5 211t79.5 207q14 25 22 51.5t10 34.5q10 37 13 43l-2 20q0 8 4 16.5t14 18.5q29 25 61 96l78 224l25 69q2 8 8 28.5t6 29t-4 8.5q-16 -4 -65 -6q-25 -4 -37.5 -5t-18.5 -4h-14q-39 0 -39 29q6 37 25.5 70t48.5 35l80 18q18 4 51 4 q29 0 59 -6q25 16 27 29q8 35 36.5 55t59.5 20q25 0 41 -13t16 -40q0 -12 -2 -18v-7.5t13 -5.5q20 0 120 23q16 2 56.5 5t66.5 3q37 0 60 -6q18 4 32.5 4t24.5 2q35 0 43 6q18 -4 42 -7t34 -7t18 -10q6 -8 6 -14.5t-2 -8.5l-4 2q2 0 7.5 -3t11.5 -9q16 -8 16 -41 q0 -25 -8 -49q-2 -12 -9 -17.5t-34 -6.5h-20q-22 0 -50 1q-78 10 -129 11q-72 0 -221 -21q-37 -2 -68.5 -10t-39.5 -10q-10 0 -31 -31t-37 -78q-12 -18 -76 -178l-49 -115q25 -8 94 -8q92 0 269 16q67 13 98 13h10q18 -2 31.5 -25.5t13.5 -52.5q0 -20 -8 -36.5t-23 -25.5 q-43 -27 -178 -41q-90 -8 -248 -8q-84 0 -100 4q-4 -2 -11 -12t-7 -24q-37 -68 -103.5 -240t-66.5 -209q-14 -37 -23 -84q-2 -8 -6 -22.5t-8 -18.5q-6 -31 -41 -31q-29 0 -45 19q-70 32 -70 98z" />
<glyph unicode="G" horiz-adv-x="1038" d="M240 166q0 270 84 514q96 285 203.5 444.5t205.5 221.5q31 18 92.5 36.5t122.5 18.5q33 0 76 -6q86 -23 169 -78t83 -121q0 -33 -37 -66.5t-76 -33.5q-20 0 -30 12q-39 55 -78 83t-94 28q-150 0 -269 -185.5t-188.5 -433.5t-79.5 -420q0 -66 18.5 -96.5t65.5 -30.5 q78 0 183.5 60.5t174.5 169.5q88 166 88 223q0 33 -30 33q-102 0 -147.5 8t-59.5 39q-27 8 -27 41q0 47 41 69.5t143 22.5q86 -2 140.5 -17.5t87.5 -61.5t33 -132q0 -37 -7 -68q-39 -176 -155.5 -307t-257 -199.5t-246.5 -68.5q-57 0 -109.5 37t-86 105.5t-33.5 158.5z" />
<glyph unicode="H" horiz-adv-x="1175" d="M158 -86q0 14 2 23q6 6 11 31.5t5 45.5q6 12 10 25.5t11 38.5q16 90 75.5 303t73.5 227v23q0 6 4 24.5t19 38.5q8 25 13 48.5t7 35.5q8 10 27.5 61.5t25.5 67.5q14 39 36 91.5t30 68.5v10q4 4 21.5 42t29.5 65q14 33 76 170q4 8 22.5 47t18.5 49q20 23 45 23 q31 0 58.5 -28t43.5 -59l21 -32l-76 -148q-31 -55 -55.5 -103t-24.5 -56q-6 -14 -21.5 -59.5t-33.5 -102.5q-29 -78 -47 -117q-16 -33 -17 -39q0 8 228 8q35 0 127 2t116 6l107 11l57 182q20 72 90 279q29 86 66 127.5t65 41.5q8 0 42 -23.5t40 -39.5q23 -23 23 -47 q0 -29 -33 -80q-25 -43 -70 -162q-18 -55 -22 -63q0 -43 -21 -64q-8 -8 -28.5 -58t-20.5 -58q0 -16 -6 -36t-14 -28l-15 -49q-72 -260 -112 -361q0 -10 -10.5 -36.5t-10.5 -36.5q-4 -14 -18 -57.5t-14 -51.5q-14 -63 -28.5 -149t-19.5 -121q-35 -4 -57 4t-42.5 21.5 t-29.5 17.5q-49 27 -49 74q0 27 19 63q6 10 39 133l18 76q16 45 28.5 87t22.5 73q33 119 41 127v20q-6 10 -121 10q-125 0 -260 -16h-123h-53q-10 -23 -59 -179.5t-55 -199.5q-14 -68 -45 -187.5t-48 -174.5q-12 4 -49 15t-51 11q-25 6 -40 26.5t-15 47.5z" />
<glyph unicode="I" horiz-adv-x="837" d="M92 8q2 27 60.5 54.5t140.5 29.5l86 2l20 41q6 12 8.5 25.5t6.5 23.5l18 74l31 98q61 186 80 262q10 25 32.5 99t34.5 121q80 247 80 285q0 6 -2 7h-10q-26 0 -98 -7q-88 -9 -99 -15q-10 -14 -34.5 4t-30.5 41q-2 6 -2 21q0 29 14 36q20 18 105 41t159 33q35 4 71 15.5 t54 27.5q38 12 65 12h7q14 -10 69 -10q47 0 72 2q53 4 74 4q123 0 147 -57q4 -20 4 -31q0 -27 -15 -43t-42 -14q-37 -10 -137 -12q-135 -12 -146 -29q-10 -10 -15 -18.5t-11 -16.5q2 -18 -37 -133l-37 -109q-57 -178 -74 -219q-14 -35 -20 -71q-16 -55 -29.5 -105.5 t-27.5 -95.5l-80 -285l123 10q121 12 145 13q20 0 26.5 -4t8.5 -13.5t4 -13.5q18 -25 18 -47q0 -37 -49 -59q-45 -21 -121 -21h-14q-92 -4 -149.5 -7t-72 -9t-14.5 -21q2 -18 -12 -29.5t-37 -11.5q-39 0 -69 33q-15 21 -49 28q-21 4 -59 4q-22 0 -48 -1q-10 -1 -20 -1 q-33 0 -67 16q-37 17 -37 38q0 4 1 8z" />
<glyph unicode="J" horiz-adv-x="645" d="M-115 -309q0 39 13 80q10 37 26 36q8 0 23.5 -11t27.5 -27q41 -35 78 -35q74 0 156 127l53 119q115 252 129 294q0 2 2 8.5t8 14.5q2 8 11.5 34.5t15.5 55.5l86 244q8 41 23.5 89t27.5 81q8 16 62 176l28 90q23 72 38.5 126t11.5 60l-115 -20q-45 -18 -76 -19 q-31 0 -25 23v23q-8 -8 -26.5 21.5t-16.5 47.5q0 16 49.5 38t110.5 30l103 12q18 2 82 8q3 2 8 2q16 0 57 -17q55 -24 72 -40q16 -23 16 -45q0 -29 -17.5 -81t-78.5 -218l-68 -191q-49 -150 -75 -211q-8 -27 -23 -65q-35 -100 -51 -160q-25 -57 -53 -155q0 -16 -8.5 -37 t-18.5 -31l-49 -121l-19 -49q-4 -12 -21.5 -55t-31.5 -64q-6 -16 -22.5 -42.5t-16.5 -33.5q0 -2 -2 -7t-8 -5l-7 -7t-5 -13q-10 -25 -79 -97.5t-102 -91.5q-45 -24 -100 -24q-53 0 -104.5 22.5t-85.5 59.5q-12 14 -13 51z" />
<glyph unicode="K" horiz-adv-x="1030" d="M147 -16q0 8 5 24q-2 27 4 51.5t6 28.5q14 0 14 33q0 16 19 72l18 63l25 59q22 55 22 61q0 28 27 68q8 25 14 53.5t6 47.5q4 10 22.5 47t26.5 74q2 10 7.5 22t11.5 31l67 184l31 70q4 10 27.5 63.5t31.5 53.5v22q0 8 23 53l25 49q16 25 25 51.5t11 34.5q2 4 8.5 14.5 t14.5 17.5q16 12 42 22t46 10q35 0 47 -27q25 -49 25 -82q0 -23 -13 -41q-43 -88 -102 -218t-88 -205l14 10q53 53 170 141l252 205q57 29 135 90q20 12 32.5 22.5t21.5 14.5q12 10 49 35.5t47 22.5q14 6 36.5 -16t38 -54.5t13.5 -49.5q4 -20 -9.5 -35.5t-58.5 -39.5 q-92 -45 -104 -68q-10 -8 -46 -34.5t-89 -65.5q-80 -53 -138.5 -100.5t-76.5 -71.5q-6 0 -15.5 -6.5t-15.5 -4.5q-4 -2 -18.5 -12t-20.5 -18q-6 -16 -19.5 -31.5t-31.5 -13.5q-31 -16 -107 -76q18 -143 78 -252q59 -131 121 -193q43 -47 81 -73.5t58 -26.5q18 -6 51 -28.5 t35 -36.5q2 -4 2 -25q0 -27 -9 -54.5t-32 -41.5q-16 -16 -36 -17q-20 0 -68 21h-2q-33 0 -111 62q-80 64 -123 116q-55 80 -95 145.5t-60 143.5q-10 49 -33 110q-12 39 -14 50l-6 -17q-2 -6 -26 -67.5t-67 -217.5q-37 -121 -66 -205.5t-46 -114.5t-33 -30t-41 19 q-66 37 -66 82z" />
<glyph unicode="L" horiz-adv-x="872" d="M182 164q0 51 4 101t11 59q6 4 6 27q0 15 14 65q10 26 10 46q0 9 -2 17q2 4 7.5 14.5t13.5 20.5q10 10 11 21.5t-1 15.5v2q0 8 5 21.5t11 21.5q6 6 11.5 16.5t7.5 14.5q2 14 31.5 91t39.5 93v4q8 20 23 43q4 29 29 80q47 104 132 240.5t134 183.5q53 61 96 61 q23 0 41 -18q14 -14 23.5 -41t9.5 -47q0 -29 -16 -31q-20 -14 -62.5 -83.5t-112.5 -196.5l-30 -58q-27 -57 -46.5 -96l-25.5 -51l-8 -19q-49 -104 -92 -225q-10 -12 -13.5 -25.5t-3.5 -17.5q-4 2 -7 -11.5t-7 -23.5q-14 -12 -14 -59q-18 -49 -32.5 -123t-14.5 -121 q0 -45 15 -73.5t48 -43.5q47 -24 72 -24h2q14 -2 43.5 2t68.5 10h-2q10 2 113 25q49 6 82 18q16 4 46 13.5t44 10.5t21 -3q12 -12 23 -34t5 -38q-4 -10 -43 -44t-86 -64.5t-82 -41.5q-68 -30 -192 -30h-8q-92 0 -138 16q-143 35 -213 240q-2 12 -2 49z" />
<glyph unicode="M" horiz-adv-x="1492" d="M76 20q0 47 22 93q41 86 82 139q14 20 21.5 34.5t9.5 39.5q29 37 76 133q80 129 227 397q20 37 80.5 145.5t81.5 128.5l10 15q-6 -10 21.5 47t59.5 103t56 46q27 0 62 -21.5t60.5 -63.5t25.5 -99q0 -25 -2 -39l-21 -139l-10 -45q-27 -135 -80 -371q-47 -209 -47 -252 q0 -12 4 -19t10 -7q4 0 20.5 13t28.5 40l27 41l35 51q57 80 141 216t273 468q39 57 63 100q33 53 63.5 100.5t47.5 59.5q20 16 51 17q31 -2 64.5 -22.5t57 -57.5t23.5 -80q0 -49 -29.5 -180t-68.5 -254q-8 -43 -51 -203q-33 -119 -48.5 -188.5t-15.5 -112.5v-17 q-30 -53 -30 -211v-10q-8 -68 -31 -105.5t-37 -37.5l-6 2q-10 0 -19.5 -9t-25.5 -9q-51 0 -66.5 36.5t-15.5 100.5q0 37 2 61q6 53 131 555q98 393 98 412l-28 -49q-41 -78 -103 -183l-143 -268q-27 -37 -44.5 -71.5t-19.5 -40.5q-25 -49 -98 -142q-25 -31 -29 -39 q-10 -23 -65 -79t-116.5 -102t-102.5 -46q-55 0 -99.5 53t-44.5 129q0 55 21 185q33 141 69.5 286.5t51.5 190.5q6 18 6 41q0 14 -4 18q-2 0 -5 -4t-8 -10q-31 -49 -96 -172t-141 -289q-293 -539 -336 -588q-31 0 -63.5 40t-32.5 99z" />
<glyph unicode="N" horiz-adv-x="1177" d="M68 -63q0 33 14 86q18 72 49 137q16 39 32.5 86t26.5 102q41 94 73 183.5t40 113.5q2 14 68 156l35 73q49 137 91 221.5t105 180.5q33 53 98 53q39 0 70 -18.5t41 -50.5q18 -43 27.5 -94.5t13.5 -182.5q2 -41 2 -119q4 -172 10 -261t27 -163q12 -82 14 -108 q12 -96 22.5 -149.5t20.5 -53.5q25 0 69 114.5t132 473.5q12 41 28.5 118.5t24.5 151.5q23 84 44.5 175t21.5 100q0 10 1 20t-1 25q8 0 17 26.5t9 48.5q0 59 29 88q23 41 66 41q33 0 61.5 -21.5t34.5 -49.5q1 -4 1 -9q0 -57 -59 -305q0 -25 -28 -147q-18 -70 -29 -133 q-8 -59 -19.5 -102.5t-19.5 -41.5q-84 -360 -215 -659q-31 -72 -74 -112t-90 -40q-57 0 -104 60q-61 80 -90 163t-47 238q-37 227 -37 459v66v24q0 119 -19 119q-12 0 -28.5 -37t-40.5 -109q-10 -33 -92 -241l-35 -90q-37 -74 -56 -150q-63 -164 -99 -291t-40 -143 q-6 -23 -11 -43t-11 -37q-16 -43 -26.5 -58.5t-27.5 -15.5q-20 0 -53 21q-67 35 -67 111z" />
<glyph unicode="O" horiz-adv-x="1034" d="M213 162q0 57 10 143t21 137q8 8 9 24.5t-1 20.5q0 6 10 41q25 76 35 127q55 168 108.5 268.5t118.5 188.5q139 143 297 217q80 47 115 47q6 0 18 -4q252 -55 301 -319q18 -125 19 -189q0 -102 -37 -206.5t-133 -262.5q-82 -164 -185.5 -279.5t-207 -173t-193.5 -57.5 q-80 0 -135 43q-80 60 -123 107t-45 90q-2 10 -2 37zM406 252q-1 -24 -1 -41q0 -27 2 -41q3 -23 21 -51q14 -23 52 -43q29 -15 53 -14q7 0 14 1q49 7 76.5 19t57.5 42t97 107q86 98 121 144.5t64.5 116t66.5 200.5l12 47q12 43 17.5 71t5.5 60l-2 129q-2 37 -14.5 80 t-28.5 62q-16 18 -44 31.5t-56 13.5q-20 0 -48 -10q-39 -16 -108.5 -87t-123.5 -145t-54 -98q0 -2 -2 -12.5t-9 -18.5q-53 -57 -107 -241.5t-62 -321.5z" />
<glyph unicode="P" horiz-adv-x="966" d="M166 6q0 72 45 207q14 57 31 111q14 37 14 55q0 16 5 37.5t5 29.5q25 0 45 84q8 31 14.5 52.5t8.5 33.5q4 6 9 18.5l9 22.5q16 49 39 95q25 92 58.5 193.5t56.5 150.5l24 61q2 6 9.5 23.5t7.5 25.5t-6 13q-14 10 -15 41q0 51 39 83q23 27 61 38.5t91 11.5q23 0 80 -4 q25 -2 131 -3q12 -6 45 -18q69 -29 69 -35q0 -10 7.5 -14t21.5 -6q23 0 81 -55.5t81 -102.5q18 -37 25.5 -57.5t7.5 -50.5q0 -12 -4 -46q-4 -33 -10.5 -63.5t-14.5 -38.5q-33 -25 -33 -43q0 -20 -59.5 -114.5t-104.5 -137.5q-53 -61 -127 -108q-85 -39 -193 -68 q-101 -27 -156 -27h-7q-66 -10 -81 -17t-23 -34q-10 -29 -19.5 -57.5t-9.5 -38.5q-12 -23 -50 -137.5t-52 -175.5q-8 -27 -33 -42.5t-45 -15.5q-11 0 -22 7.5t-19 19.5q-16 14 -26.5 34.5t-10.5 61.5zM530 585.5q-2 -12.5 5 -18.5q4 -4 22 -4q53 0 139 33q74 25 164 80 q45 31 107 108q12 20 49 97q16 29 31.5 73.5t15.5 79.5q0 16 -2 25q-20 106 -119 141q-66 10 -92 10q-14 0 -47 -4q-33 -10 -46.5 -27.5t-37.5 -78.5q-66 -125 -86 -180q-39 -139 -67.5 -214t-33.5 -88v-8q0 -12 -2 -24.5z" />
<glyph unicode="Q" horiz-adv-x="1003" d="M209 236q0 106 31 253q20 78 67 216.5t55 138.5q6 6 7 35q0 23 63.5 123t112.5 143q45 59 97 109.5t99 74.5q16 10 77 27.5t93 19.5q14 1 28 1q81 0 139 -31q67 -37 108 -119q29 -33 38 -66t15 -90q0 -12 4 -45q0 -72 -19.5 -179.5t-49 -187t-56.5 -79.5q-2 0 -7 -2.5 t-5 -10.5q1 -4 1 -9q0 -19 -11 -58q-13 -51 -41 -107q-82 -227 -209 -375l24 -43q4 -14 25 -47q25 -37 31 -57q39 -59 39 -92q0 -37 -55 -37h-11h-8q-34 0 -71 14q-42 17 -48 43q-12 12 -14 23.5t-4 15.5q-8 4 -21.5 20.5t-19.5 37.5q-104 -74 -207 -74q-18 0 -29 2 q-47 8 -118.5 60.5t-92.5 97.5q-57 117 -57 254zM389 242q0 -72 14 -129q10 -117 76 -117q18 0 29 4q66 10 123 57l-47 88q-47 94 -56 103q-6 6 -6 16q0 14 10 25q10 23 36 41t57 18q14 0 22 -2q47 0 86 -98q4 -18 19 -49q94 147 188 415q12 33 31 74q41 92 63.5 170 t24.5 164q4 45 4 57q0 51 -19.5 77t-62.5 46q-35 10 -59 10q-92 0 -182.5 -91t-164.5 -269q-98 -211 -142 -353.5t-44 -256.5z" />
<glyph unicode="R" horiz-adv-x="1019" d="M63 -70q0 18 33 93l25 55q12 74 59 170q14 49 166 418l37 90l23 53q55 139 149 346q8 23 -7.5 44.5t-47.5 21.5q-23 27 -23 51q0 25 21 33l188 63q72 16 139 16q137 0 250 -59q101 -59 148 -137t47 -158q0 -53 -19 -100q-33 -82 -166 -193.5t-247 -161.5 q-113 -55 -238 -94l-33 -6q57 -113 144 -209q63 -74 173.5 -169t190.5 -134q8 -8 8 -24q0 -27 -14 -62t-22 -39q-25 -6 -35 -6q-51 0 -105 35q-96 57 -186 134t-197 200q-35 41 -53 78.5t-55 126.5q-47 -172 -183 -529q-2 -10 -17 -16t-36 -6q-49 0 -84 28q-4 4 -14 14.5 t-14.5 17.5t-4.5 15zM525 662.5q-3 -13.5 5 -21.5q41 2 85 18.5t139 55.5q323 150 323 315v10q0 41 -35.5 91.5t-74.5 62.5q-98 25 -142 25q-35 0 -50 -15.5t-25 -54.5q0 -4 -25 -53q-53 -113 -78 -176q-20 -37 -45 -93q-33 -68 -53.5 -109.5t-23.5 -55z" />
<glyph unicode="S" horiz-adv-x="1013" d="M270 133q0 10 8.5 15.5t20.5 10.5t18 7q37 25 56 24q20 0 35 -26q29 -51 92 -85t141 -34q70 0 125 25q53 25 53 71q0 35 -31 84q-4 12 -14 22.5t-24 20.5q-33 25 -72 64q-33 12 -68 33l-43 20q-51 25 -114.5 79t-87.5 101q-45 43 -46 131q0 96 46 181q25 55 119 169.5 t139 143.5l53 51q2 8 6 9t6 1q6 4 43 19.5t78 54.5q125 61 222 87t163 26q80 -4 148.5 -57.5t78.5 -123.5q4 -20 4 -32q0 -76 -61 -170t-131 -133q-31 -14 -59 -15q-35 0 -56.5 18.5t-19.5 47.5q0 18 13 41.5t60 77.5q70 102 70 147q0 31 -37 37q-5 1 -12 1q-31 -1 -110 -19 q-99 -24 -99 -33q0 -2 -1 -7.5t-7 -3.5h-1q-10 0 -114 -68q-108 -70 -112 -79q-2 -10 -15.5 -21.5t-32.5 -19.5q-37 -23 -66.5 -61.5t-76.5 -122.5q-25 -35 -40 -76t-15 -74q0 -23 6 -39q8 -31 44 -56.5t138 -86.5q104 -59 188.5 -126t102.5 -105q33 -47 33 -123 q0 -59 -17 -113q-18 -39 -46.5 -72.5t-51.5 -31.5q-20 -6 -34.5 -15.5t-24.5 -13.5q-24 -14 -126 -30q-90 -14 -153 -13h-16l-82 24l2 7q0 20 -35 22q-43 27 -92 91.5t-62 99.5q-6 16 -6 22z" />
<glyph unicode="T" horiz-adv-x="937" d="M342 1178q6 27 31.5 43t85.5 28q18 4 71 13l56 10l69 8q119 18 252 25q55 2 93 5t51 5q29 -2 93 -10.5t93 -18.5q45 -10 73.5 -36.5t39.5 -61.5q2 -9 2 -21q0 -27 -25 -39q-12 -4 -48 -15t-58 -11q-18 0 -29 4q-20 18 -49 26.5t-119 14.5q-27 -4 -47.5 -4t-32.5 -2 q-16 -53 -41 -101q-8 -39 -22 -69q-14 -41 -13 -47q-6 -8 -38.5 -103.5t-61.5 -185.5q-20 -63 -31 -92q-10 -20 -25.5 -64.5t-21.5 -62.5l-51 -142q-16 -31 -40 -97t-38 -120q-23 -80 -40 -114.5t-29.5 -43t-34.5 -8.5q-33 0 -57.5 33t-24.5 62q0 45 31.5 151.5t60.5 169.5 q8 37 15 59.5t10 32.5q6 8 19 44t21 67q6 37 127 412l15 43q18 31 35 77q16 10 16 43q0 6 7 16.5t7 14.5q2 2 6 2q2 0 5.5 -1t11.5 7h-2l-101 -10l-45 -4q-121 -10 -137 -14l-28 -2q-63 0 -89 26q-20 20 -20 43q0 7 2 15z" />
<glyph unicode="U" horiz-adv-x="987" d="M244 240q0 137 39 323q31 150 105.5 357.5t152.5 345.5q47 80 81 110q30 27 60 27h8q45 -8 71.5 -38t26.5 -65q0 -41 -34 -63q-16 -18 -45 -72.5t-37 -68.5l-49 -92q-72 -205 -106 -315.5t-54 -233.5q-37 -170 -42 -202t-5 -87q6 -12 16 -31.5t18.5 -29t18.5 -11.5 q37 -16 68 -16q37 0 81 24q8 16 23.5 25.5t20.5 11.5q4 -6 6 -6q6 0 10 14v3q0 10 18 28q20 8 56 52t66 92.5t30 60.5q0 10 11 22.5t15 16.5q14 14 73 124.5t108 213.5q31 100 85 282.5t64 233.5q4 27 12.5 45t10.5 25q16 12 35 12q33 0 67.5 -21.5t40.5 -25.5 q10 -12 10 -35q0 -25 -18 -102q-10 -41 -27 -123q-33 -129 -78 -244t-116 -277q-8 -18 -18.5 -39.5t-20.5 -48.5v-12q-25 -14 -39 -43q-6 -10 -15.5 -27.5t-19.5 -23.5q-6 -18 -11 -30.5t-7 -16.5q-2 -12 -18.5 -22.5t-20.5 -12.5q-8 -4 -12.5 -18.5t-8.5 -18.5 q-70 -104 -178 -200.5t-190 -127.5q-41 -16 -72 -16q-27 0 -41 4q-115 29 -170 117t-55 246z" />
<glyph unicode="V" horiz-adv-x="1003" d="M383 319q4 57 4 76q4 88 11.5 162t23.5 191q-1 10 -1 25q0 30 5 77q6 37 6 65q0 16 -2 23q10 33 19 102q6 61 18 105l6 43q8 57 8 74q-2 13 -2 25q1 34 13 65q16 43 57 61q8 4 35 4q25 0 32 -4q42 -20 41 -82v-16q4 -33 5 -86q0 -133 -23 -244q-29 -139 -39 -342 l-12 -213q-8 -152 -8 -180q0 -33 2 -45q0 -45 16 -43q6 2 13 13t14 28q6 23 18 49q68 131 102 227q35 82 78 154q45 82 66 131q25 61 104 211q10 16 52 79.5t90 153.5q59 98 102 144.5t76 46.5q8 2 22 2q27 0 45 -25q20 -31 21 -61q0 -61 -84 -185q-57 -86 -134 -215 t-110 -190q-6 -16 -17.5 -45t-25.5 -47q-18 -18 -54 -86t-69 -135l-149 -344q-8 -27 -27.5 -59t-19.5 -38q-23 -35 -87 -69q-49 -27 -72 -27q-7 0 -11 2q-11 4 -15 12.5t-8 32.5q0 20 -12 31.5t-47 19.5q-25 25 -38 54.5t-22.5 95t-15.5 196.5z" />
<glyph unicode="W" horiz-adv-x="1474" d="M272 31q-2 13 -2 33q0 58 14 176q18 158 35 266q14 98 64 323l45 222q12 31 39 123l18 67q2 33 21.5 48.5t48.5 15.5q25 0 47.5 -9.5t32.5 -23.5q43 -47 43 -103q0 -33 -14 -69q-92 -225 -148 -594q-20 -128 -36 -240q-10 -74 -10 -100q0 -13 3 -14q2 -1 5 -1q30 0 73 91 q135 223 309 563q4 6 90 168l49 92l33 59q53 96 84 145.5t45 55.5q51 0 79 -25.5t48 -72.5q4 -16 4 -39q0 -20 -6 -39q-4 -12 -19.5 -61.5t-25.5 -98.5q-39 -102 -57 -198q-8 -39 -16.5 -76t-14.5 -70q-35 -154 -52.5 -256t-19.5 -182q-1 -21 -1 -37q0 -24 2 -34 q3 -18 12 -40q2 -10 10 -10q12 0 37 31q29 39 46 75.5t23 49.5q25 59 52 106q72 135 154.5 311.5t142.5 315.5q59 170 93 242.5t64 91.5q12 8 39 8q39 0 57 -17q4 -2 27 -22.5t21 -46.5q-18 -63 -100.5 -266t-127.5 -301q-8 -14 -33 -56q-4 -6 -17 -29.5t-13 -35.5 q0 -20 -107.5 -214t-158.5 -259q-47 -59 -104.5 -103.5t-104.5 -69t-64 -24.5q-26 -2 -47.5 11.5t-30.5 33.5q-10 10 -27.5 45t-21.5 57q-8 98 -8 144q0 57 6 155q8 102 29.5 178t52.5 162q8 18 12 30.5t0 12.5q-14 -2 -51 -86q-6 -12 -15 -32.5t-24 -44.5 q-57 -127 -211 -385q-18 -23 -51 -72q-63 -96 -104 -133q-57 -55 -121 -55q-27 0 -60 14q-34 4 -64 45q-24 32 -24 62q0 8 2 16z" />
<glyph unicode="X" horiz-adv-x="1073" d="M100 -43q0 37 25 104q14 31 31.5 50.5t81.5 76.5l71 68l60 55l43 43q2 6 16 22.5t29 35.5q37 29 116 108l56 51q-12 53 -19 105q-10 68 -22.5 122t-16.5 58q-2 6 2.5 10t6.5 4q4 4 4 9q0 4 -4.5 10t-6.5 12q-4 12 -12 58.5t-14 105.5q-18 174 -23 199q-4 4 -5 11t-1 9 q4 12 24.5 30.5t24.5 22.5q20 14 47 15q43 0 77 -37t34 -92q0 -53 12 -66q-1 -3 -1 -15q0 -22 4 -75q8 -82 14 -102q-8 -25 0 -35q2 -12 6 -42t2 -40t6 -42t12 -46l8 -25l7 8l47 50q98 98 155 163q190 227 242 334q12 27 20.5 35t18.5 8l20 -2q33 -2 51.5 -29.5t18.5 -70.5 q0 -88 -63 -178q-47 -47 -54 -80q-45 -53 -115.5 -134t-84.5 -91q-49 -43 -100.5 -91.5t-63.5 -64.5q-37 -41 -45 -47q20 -86 42.5 -148.5t63.5 -142.5q25 -51 54.5 -92t54.5 -56q6 -6 22 -6q18 0 21 6q25 6 32 -19.5t8 -54t1 -36.5q4 -14 -16.5 -29.5t-53.5 -25t-61 -4.5 q-43 4 -93.5 45t-93.5 120q-84 115 -143 281q-18 -18 -18 -21q-59 -57 -231.5 -244.5t-182.5 -209.5q-14 -25 -43 -25q-10 0 -17 2q-4 -2 -20 -2q-41 0 -49 4q-2 2 -5 12.5t-8 30.5q-6 8 -6 27z" />
<glyph unicode="Y" horiz-adv-x="1032" d="M430 -63q0 18 16 77l13 49q2 49 19.5 117t41.5 111q0 31 20.5 95.5t43.5 119.5l24 69l-37 46q-45 68 -67.5 120t-32.5 125q-22 79 -22 165v7q0 29 4 160q2 88 27.5 138t27.5 57q23 20 47 20q37 0 57 -59q19 -55 19 -122v-13q12 -414 82 -471q6 -2 18 -3q18 0 35.5 14.5 t56.5 57.5q49 55 64 70q49 49 110.5 119.5t85.5 99.5q143 174 189 201q8 16 42 27.5t46 13.5q8 -2 12 -11.5t9 -27t14 -29.5q4 -8 18 -24.5t12 -26.5q-2 -14 -88 -101q-45 -39 -143 -141t-156 -174q-82 -94 -149.5 -167t-97.5 -103q0 -2 -3.5 -2t-5.5 -2q-6 -18 -34 -136 l-41 -133q-10 -31 -29 -97.5t-31 -96.5q-37 -139 -63 -190q-23 -44 -47 -44q-4 0 -9 2q-12 2 -79 50q-18 20 -19 43z" />
<glyph unicode="Z" horiz-adv-x="1069" d="M96 -14q0 35 14.5 69.5t32.5 53.5l29 30q80 90 180.5 189.5t290.5 269.5q111 96 167 149.5t138 139.5l29 31q74 76 108.5 117.5t42.5 74.5q8 25 9 45q0 27 -28 35t-116 14q-70 4 -102 4q-133 0 -326 -32q-12 -4 -32.5 13t-20.5 28q8 12 8 24q0 25 -16 35q-4 12 -4 20 q0 27 20 47q14 6 109 23l45 6q66 10 200 10q55 0 113 -4q160 -16 253 -38.5t118 -82.5q12 -31 12 -53q0 -29 -24 -88q-10 -33 -15 -41q-37 -70 -145.5 -196.5t-222.5 -231.5q-258 -242 -388 -350q-135 -117 -213 -191q-14 -18 -14 -28q0 -14 16.5 -20.5t57.5 -6.5 q63 0 129 12q6 2 38 8.5t81 8.5q57 4 80 4q164 10 231 10q14 0 24.5 -6t28.5 -31q20 -6 21 -37q0 -23 -11.5 -46t-25.5 -35q-10 0 -21.5 -2.5t-25.5 -4.5q-92 -16 -145 -16h-11q-9 1 -22 1q-69 0 -240 -19q-98 -16 -238 -17q-53 0 -73 2q-70 4 -108 22.5t-38 80.5z" />
<glyph unicode="[" horiz-adv-x="675" d="M90 -219q0 29 19 57q10 6 18 22.5t8 30.5q0 37 57.5 242t73.5 229q0 12 16.5 49.5t47.5 84.5q63 207 166.5 461.5t152.5 330.5q16 70 17 86q0 43 21.5 63.5t78.5 20.5q33 4 90 8q78 6 126 14.5t116 30.5q25 4 67.5 27t46.5 23q23 6 33 -4.5t33 -45.5q25 -31 25 -49 q0 -14 -11.5 -24.5t-36.5 -20.5q-225 -74 -323 -86q-37 -10 -65.5 -19t-35.5 -16q-8 -10 -40.5 -83.5t-32.5 -82.5q-10 -10 -59.5 -111t-55.5 -134l-20 -49q-55 -135 -64 -162q-16 -39 -31 -90q-16 -55 -30 -88q0 -12 -6.5 -35t-14.5 -37q-23 -37 -37 -92q-6 -10 -15 -26.5 t-9 -22.5q0 -23 -10 -54q-4 -6 -6.5 -16t-2.5 -12q-6 -10 -16 -43q-14 -55 -27 -84q-12 -33 -16 -49q-4 -10 -15.5 -44t-11.5 -49l-10 -57l61 12q221 31 304 31q25 4 30 4q20 0 31.5 -8t22 -22.5t20.5 -24.5q2 -4 7 -16.5t6 -18.5t-3 -10q-8 -8 -99 -29.5t-159 -32.5h-76 q0 -8 -18 -13t-49 -5q-23 -12 -68 -23l-43 -14q-45 -18 -78 -18t-55 18q-20 8 -32.5 29.5t-12.5 46.5z" />
<glyph unicode="\" horiz-adv-x="675" d="M322 1335q0 92 29.5 139.5t72.5 47.5q12 0 37 -9q10 -8 17 -32.5t7 -57.5q0 -14 -4 -43q-4 -33 13.5 -147.5t37.5 -233.5q8 -47 17.5 -102t15.5 -111q12 -41 16.5 -72.5t0.5 -39.5v-4q0 -18 8 -19q6 -8 7 -18t3 -17q-2 -8 20.5 -94t36.5 -121q2 -20 6.5 -43.5t4.5 -27.5 q-2 -6 37 -144l28 -102l31 -94q2 -8 13 -42t11 -57q0 -16 -2 -26q0 -27 -6 -43.5t-24 -28.5q-16 -12 -41 -24.5l-33 -16.5q-8 0 -17.5 4t-11.5 11q-37 6 -28 38q2 27 -65.5 326t-92.5 367v4q0 6 -3 15t-1 13q0 10 -3 26.5t-1 23.5q-16 14 -13 63v8q0 14 -4 26.5t-12 12.5 q-8 29 -52 246t-46 256q2 14 -2 43t-6 45q-2 20 -2 55z" />
<glyph unicode="]" horiz-adv-x="675" d="M-113 -168l25 10q14 18 127 44t135 20q4 0 25.5 -3t44.5 -1l55 6l20 55q10 55 11 84q12 8 19 25.5t5 29.5q33 90 41 117q2 27 25 90q25 82 29 107l24 73q18 53 27 89q2 14 8 32.5t8 26.5q16 45 19 68q16 55 73 227q80 233 105 315q18 37 30.5 77t14.5 52l-140 -10 q-213 -14 -239 -14q-20 0 -21 6q-4 4 -7 14t-7 10q-8 -2 -16.5 13.5t-10.5 31.5q-2 27 79 53.5t196 41.5q66 8 102 8q23 0 33 -2t12 -2q27 6 76 13t86 7q39 0 49 -8q6 0 19.5 -27.5t13.5 -46.5q16 -33 16 -37q0 -6 -12 -22q-20 -29 -60 -115t-38 -98q0 -16 -15 -18 q-2 0 -6 -3.5t-4 -11.5q2 -16 -7 -46t-17 -30q-2 0 -6.5 -3t-4.5 -11q0 -25 -20 -78q-18 -61 -38.5 -111.5t-22.5 -60.5q-2 -4 -7.5 -16t-9.5 -27q-8 -18 -17 -56t-12 -69q-16 -25 -30.5 -59.5t-20.5 -54.5t-9 -36t-3 -22q0 -12 -20.5 -84.5t-34.5 -99.5q-2 -16 -11.5 -56 t-25.5 -87q-25 -127 -33 -144q0 -4 -9 -14t-9 -17v-16q0 -18 -11 -27q-4 -8 -5 -18t-1 -14q6 0 4 -3t-2 -5q-8 0 -8 -41q0 -59 -29.5 -86t-95.5 -27l-31 2q-76 8 -71.5 3t0.5 -3h-21q-31 0 -47 4q-10 -2 -55 -2q-41 0 -62 4q-27 -2 -68.5 10.5t-45.5 12.5l-31 41z" />
<glyph unicode="^" horiz-adv-x="913" d="M238 655q0 47 26 111l35 72q29 61 53 90q25 43 83.5 100t120.5 96t101 35t123 -167t152 -318q4 -12 4 -21q0 -37 -29.5 -73.5t-60.5 -36.5q-39 0 -55 57q-4 14 -19.5 58t-79.5 184l-39 67q-23 41 -33 50.5t-30 3.5q-43 -14 -82 -65.5t-98 -182.5q-20 -57 -53 -94t-64 -37 q-12 0 -19 4q-36 20 -36 67z" />
<glyph unicode="_" horiz-adv-x="913" d="M78 47q0 18 26.5 27.5t88.5 15.5q61 14 233 21.5t289 7.5q53 0 79.5 -7.5t49.5 -29.5q18 -18 18 -43q0 -23 -19.5 -37t-47.5 -10l-160 -10q-66 -2 -187.5 -6.5t-214.5 -4.5q-40 1 -71 11q-51 0 -74 41q-10 12 -10 24z" />
<glyph unicode="`" horiz-adv-x="722" d="M520 1151q0 23 17.5 43t40 32.5t28.5 12.5q29 0 47 -27q23 -18 68 -126.5t45 -135.5q0 -16 -39 -52t-55 -40l-8 -2q-13 0 -21 15.5t-12 46.5q-6 20 -49 96q-29 49 -45.5 81.5t-16.5 55.5z" />
<glyph unicode="a" horiz-adv-x="913" d="M164 152q-5 5 -5 16q-1 27 27 90q38 90 105 213q12 12 31.5 43t25.5 35q0 8 6 15t15 7l16 33q8 18 80 88t113 94q39 27 84 27q49 0 83 -29l56 -47q61 -51 69 -59l76 -68l-35 -102q-18 -55 -18 -105q0 -78 43 -145q10 -23 27.5 -35t46.5 -16q45 -8 45 -45 q0 -45 -16.5 -67.5t-39.5 -28.5q-33 -4 -45 -5q-59 0 -108 31t-86 105q-8 12 -21.5 44.5t-15.5 45.5q-14 -20 -47 -54q-211 -213 -342 -213q-45 0 -80 23q-6 12 -35 32.5t-29 24.5q0 8 -9 23.5t-17 28.5zM367 213h3q34 0 124 74q10 8 22 19t27 24q57 47 89 78.5t64 76.5 l45 74q-20 45 -36.5 60.5t-32.5 15.5q-41 0 -102.5 -73t-147.5 -220q-23 -37 -37 -77t-18 -52z" />
<glyph unicode="b" horiz-adv-x="909" d="M242 293q0 31 20 104q18 84 42 167t32 91q2 4 9 22.5t7 39.5q4 18 13.5 41.5t9.5 27.5q10 8 65 162q0 8 45 109q66 154 82 196q10 16 35 60q4 6 17.5 27.5t21.5 25.5q2 1 5 1q16 1 58 -21q48 -24 62 -48q2 -4 5 -9t3 -11q0 -10 -11 -37t-24.5 -54.5t-19.5 -41.5l-60 -123 q-86 -188 -147 -367q-18 -57 -33 -92l-10 -45l53 60q37 37 92 75q25 16 72 37t66 25q66 16 112 16q76 0 140 -108q18 -33 18 -84q0 -37 -10.5 -74t-26.5 -66q-10 -8 -20.5 -21t-10.5 -22q-2 -12 -34.5 -55t-71.5 -86q-53 -55 -140 -110.5t-145 -75.5q-12 -2 -46 -7.5 t-48 -9.5q-75 9 -100 66q-16 16 -19.5 26.5t-1.5 20.5q25 0 29 8q0 6 7 8t15 0h7q52 -1 142 57q96 62 206 164q57 74 77.5 106t20.5 52q0 10 -10 31q-10 16 -33 16q-37 0 -100 -41q-88 -55 -141.5 -101t-98.5 -108q-27 -35 -50.5 -62.5t-31.5 -37.5q0 -8 -23.5 -20.5 t-39.5 -12.5q-10 4 -23.5 16.5t-15.5 28.5q-4 4 -17.5 13.5t-19.5 21.5t-6 29z" />
<glyph unicode="c" horiz-adv-x="745" d="M199 213q0 96 43 223t106 207q51 59 88 96t68 49q27 10 67.5 18.5t61.5 8.5q41 -10 76.5 -28.5t35.5 -41.5l11 -10q14 0 33.5 -45t19.5 -82q0 -18 -6 -30q-8 -39 -31.5 -76t-40.5 -37q-23 0 -22 -12q0 -10 -25 -11q-20 0 -43 9.5t-27 23.5q0 10 17 82q6 31 6 51 q0 37 -25 37q-6 0 -30 -8q-53 -29 -85 -67t-56.5 -103.5t-57.5 -190.5q-6 -25 -6 -45q0 -25 6 -40t12 -17q10 -4 37 -4q51 0 82 18q37 20 72 46t43 32q4 4 16 23.5t27 25.5q12 18 30.5 22.5t37 4.5h24.5q27 -8 51.5 -37t7.5 -37q-6 0 -8 -4q-2 -3 -2 -8q0 -12 -33 -52 q-37 -44 -82 -84t-61 -40q-8 0 -14.5 -2t-6.5 -10t-62 -38t-101 -38q-25 -4 -39 -4q-84 0 -148.5 54t-64.5 138z" />
<glyph unicode="d" horiz-adv-x="823" d="M176 211q0 78 41 187.5t102 176.5q45 68 109 103t129 35q61 0 109 -27q29 -14 47 -14q20 0 26 26q2 10 25 82l22 66q45 135 78 217t80 180q20 43 43 63.5t41 18.5q27 0 58.5 -17.5t41.5 -43.5q6 -14 7 -35q0 -23 -13 -47q-53 -92 -131 -301t-121 -363q-16 -55 -23 -153.5 t-7 -192.5q0 -90 6 -113q4 -12 4 -32q0 -35 -23.5 -48.5t-60.5 -17.5q-27 -6 -51.5 12.5t-36.5 42.5q-10 29 -14.5 56.5t-6.5 74.5l-2 70l-84 -76q-129 -121 -239 -121q-33 6 -83 55.5t-65 84.5q-8 16 -8 51zM356 231q-4 -14 4.5 -23t26.5 -9q14 0 41 10q47 18 104 61 q61 45 89 80t45 88q4 10 4 29q0 37 -35 68q-20 16 -47 16q-43 0 -90 -45q-53 -49 -86 -109.5t-56 -165.5z" />
<glyph unicode="e" horiz-adv-x="684" d="M197 252q0 47 6 104q4 49 40 135.5t98 168t146 120.5q39 18 66 25.5t61 7.5q84 0 136.5 -30.5t74 -69.5t21.5 -68v-10v-6q0 -25 -29 -90.5t-91 -123t-161 -63.5q-49 0 -95 9.5t-58 9.5q-31 0 -39 -22.5t-8 -76.5q6 -57 31.5 -79.5t74.5 -22.5q25 0 57 14q33 16 78 52 q25 20 39 28t35 8q18 0 43 -24.5t27 -46.5q-4 -25 -45 -74t-107 -88t-141 -39q-117 0 -188.5 65.5t-71.5 186.5zM436 518q2 -10 31 -17t61 -7q40 0 54 8q20 10 62 52t44 58q0 20 -17.5 33.5t-47.5 18.5h-23q-27 0 -77 -44.5t-87 -101.5z" />
<glyph unicode="f" horiz-adv-x="614" d="M152 -115l4 52q10 31 10 71q0 16 14.5 103.5t22.5 126.5l6 24q16 68 24 125q16 51 27.5 101.5t11.5 68.5q0 37 29 53q2 16 31 68q49 139 72.5 199.5t50.5 105.5q37 102 59 129q14 35 77.5 102.5t113.5 108.5q102 53 172 53q59 0 137 -73q29 -31 33 -41.5t4 -38.5 q-8 -39 -72 -137.5t-80 -100.5q-25 -8 -33 -8q-18 0 -30.5 12t-12.5 37q0 39 25 90q25 33 24 58q0 34 -52 34h-3q-16 -8 -64 -58t-48 -63q-2 -4 -11.5 -21t-27.5 -40q-37 -51 -37 -63q0 -27 -13 -27q-2 -4 -9 -23.5t-19 -42.5q-8 -18 -20.5 -40.5t-20.5 -30.5h2 q-6 -14 -22.5 -54t-16.5 -47q0 -8 25 -8q45 0 127 23q27 8 38 8q14 0 41 -8q23 -14 37.5 -63.5t5.5 -61.5q-2 -8 -44 -22.5t-87 -22.5l-84 -19q-117 -25 -116 -32q-8 0 -14.5 -8.5t-6.5 -16.5q0 -29 -8 -43q-10 -29 -33.5 -137.5t-23.5 -132.5q-16 -20 -17 -74 q-12 -23 -12 -51q0 -12 -2 -21q0 -10 -4 -49t-4 -72l-6 -59q-2 -25 -6.5 -45.5t-14.5 -30.5q-12 -8 -56 19.5t-73 60.5q-12 12 -16 23.5t-4 29.5z" />
<glyph unicode="g" horiz-adv-x="745" d="M131 -102q8 28 56 28h3q25 0 45.5 -7t22.5 -17q18 -53 45 -82q16 -27 35.5 -41.5t38.5 -14.5q12 0 16 5q33 25 50.5 59.5t48.5 128.5q47 164 73 233q6 23 21 52l-37 -29q-20 -16 -45 -33.5t-53 -29.5q-14 -18 -72 -19q-43 0 -82 12q-39 20 -58.5 47t-39.5 80q-8 16 -9 52 q0 88 41 188q39 80 123 170t146 108q49 25 102 25q23 0 33 -4q33 -4 51.5 -14.5t61.5 -46.5q98 -98 114 -140q8 -16 8 -41q0 -47 -30 -88q-6 -10 -22.5 -31.5t-29 -44t-18.5 -51.5q-6 -39 -23.5 -93t-23.5 -73q-16 -43 -37 -114l-33 -127q-45 -156 -104.5 -241t-110.5 -114 q-27 -10 -51 -10q-45 0 -93 30t-83 81q-23 31 -57 115q-26 63 -26 83q0 7 3 9zM371 350q0 -45 24 -55q66 2 103 22.5t86 98.5q37 51 50 92q10 31 10 67q0 11 -1 23q-2 51 -45 51t-74.5 -24.5t-83.5 -87.5q-31 -41 -51 -99q-18 -51 -18 -88z" />
<glyph unicode="h" horiz-adv-x="968" d="M184 199q0 49 62 252q10 53 45 137q12 35 14 41q37 123 101 301l18 49q72 195 86 238l33 90q0 16 23.5 31.5t39.5 15.5q33 0 63.5 -43t32.5 -90q0 -25 -10 -45q-47 -102 -117 -318q-31 -90 -61.5 -171t-48.5 -116l-23 -45l-28 -108q0 -6 -2 -10.5t-2 -6.5q0 -6 2 -6 l34 35q59 59 142 121q68 47 69.5 53t16.5 19l20 16q66 47 142 47q23 0 53.5 -22.5t52 -62.5t21.5 -85v-16v-15q0 -51 -19.5 -134t-21.5 -95q10 0 30 4q31 0 44.5 -6t23.5 -16.5t18 -12.5q4 -4 4 -12q0 -47 -51 -82t-98 -39q-57 0 -92 43t-35 105q0 25 2 49t4 43q6 41 6 65 q0 27 -5 36t-17 9q-41 0 -142.5 -74.5t-205.5 -193.5q-66 -96 -125 -96q-37 6 -68 41t-31 80z" />
<glyph unicode="i" horiz-adv-x="401" d="M182 137q0 39 11 60q0 11 4 25t4 21q0 15 16 64q25 55 62.5 170t52.5 164q0 10 8 17.5t25 9.5q23 8 57.5 -19.5t56.5 -62.5q12 -12 13 -33q0 -31 -27 -86q-10 -23 -19.5 -55.5t-15.5 -61.5q-25 -55 -39 -102q-6 -27 -8 -41q-14 -76 -27 -98q-12 -51 -34.5 -77t-51.5 -26 q-35 0 -59 29q-29 28 -29 102zM385 935.5q-2 20.5 4 25.5q12 14 24.5 38.5t18.5 34.5q16 37 27 53q14 29 26 31q16 8 27 8q27 0 58.5 -18t47.5 -43q14 -33 15 -57q0 -49 -47 -109q-20 -27 -49 -41t-58 -14t-47 12q-20 14 -32.5 36.5t-14.5 43z" />
<glyph unicode="j" horiz-adv-x="436" d="M-178 -227q0 33 12 52t35 19q18 0 50 -18.5t32 -38.5q0 -37 7 -57.5t32 -22.5q6 -2 16 -2q39 0 76 57q35 45 81 167t52 139q16 57 29.5 126.5t17.5 88.5l27 143q6 47 17 90t13 53q0 51 15 80q0 27 9 67t9 50q8 8 45 -5t54 -30q25 -27 36 -50.5t11 -80.5q0 -35 -6 -94 q0 -25 -20.5 -125t-39.5 -174q-10 -39 -14 -51q-12 -43 -17 -68q-2 -16 -26 -84q-25 -59 -29 -84q-6 -43 -49 -133q-14 -37 -74.5 -115t-89.5 -100q-42 -45 -110 -45q-74 0 -125 53q-39 49 -57.5 100.5t-18.5 92.5zM420 1032q0 33 12 69t33 62q29 35 84 35q37 0 61 -18 q29 -49 29 -84q0 -31 -16 -54q-35 -39 -74 -59t-72 -20q-27 0 -41 12q-16 20 -16 57z" />
<glyph unicode="k" horiz-adv-x="765" d="M152 145l28 86l39 123q18 27 29.5 65t13.5 44q18 37 68 155q37 94 53 127q55 127 123 285l6 14q35 72 73 166.5t44 124.5v4v4q0 16 23.5 24.5t60.5 8.5q18 0 46.5 -35.5t28.5 -64.5q0 -70 -120 -328q-88 -182 -128 -280.5t-40 -118.5q0 -6 2 -6q4 2 16 7t29 15 q14 8 59 41q82 66 113 74q90 61 110 61q23 0 47.5 -27.5t24.5 -51.5q0 -43 -67.5 -91.5t-182.5 -111.5q-57 -31 -65 -39q0 -2 49 -72q16 -31 27.5 -54.5t21.5 -41.5q31 -63 49.5 -87t52.5 -24q10 0 35 7.5t37 7.5q31 0 51.5 -20.5t20.5 -45.5q0 -18 -36 -47t-81 -50.5 t-65 -21.5q-39 0 -86.5 37t-139.5 158q0 12 -24.5 57t-30.5 51q0 -6 -9 24t-30 30q-10 0 -33.5 -44t-42 -102.5t-18.5 -103.5q0 -33 -18.5 -58.5t-51.5 -25.5q-27 6 -69.5 62.5t-42.5 88.5z" />
<glyph unicode="l" horiz-adv-x="364" d="M174 150q0 41 8 79q23 59 23 86q6 39 42 140.5t46 122.5q8 0 14 13t6 30q0 18 7.5 37.5t15.5 27.5q0 6 5 22.5t5 22.5q0 4 5 15.5t5 17.5q33 63 115 285.5t82 246.5q0 16 12.5 30.5t28.5 14.5q6 6 26.5 9.5t32.5 3.5l33 -33q23 -20 35 -36.5t12 -39.5q0 -37 -13 -72.5 t-77 -168.5q-4 -10 -33 -74q-20 -41 -20 -47t-8.5 -25.5t-14.5 -40.5q-16 -33 -52 -116t-36 -91q0 -23 -10 -32q-6 0 -8 -9.5t-2 -13.5q0 -20 -33 -109l-18 -59q-39 -133 -54.5 -194.5t-15.5 -104.5q0 -45 -14.5 -73.5t-32.5 -37.5q-7 -2 -17 -2q-43 0 -71.5 49.5 t-28.5 125.5z" />
<glyph unicode="m" horiz-adv-x="1165" d="M180 174q0 25 8.5 66t18.5 86q4 16 9 36.5t11 47.5q4 20 9.5 44.5t21.5 64.5t47 112q8 27 8 55q0 14 -2 27.5t-2 17.5q0 31 30 52.5t67 21.5q53 0 79.5 -38t26.5 -79q0 -35 -16 -67l-23 -56q-8 -18 -29.5 -66t-21.5 -59q0 -6 4 -6h2q10 0 33 23q66 61 159 127.5t134 79.5 q16 0 42.5 -16.5t47 -44.5t20.5 -60l-2 -17q-2 -8 -17.5 -69.5t-23.5 -71.5q39 45 135.5 111.5t141.5 68.5q68 0 88 -55t28 -162q8 -100 23 -135q4 -12 28.5 -20.5t40 -19.5t15.5 -44q0 -45 -40 -63.5t-95 -18.5q-27 0 -41 8q-16 6 -42 30t-45.5 68t-19.5 105q0 39 5.5 68.5 t5.5 38.5q0 10 -7 10q-53 0 -231 -195q-6 -4 -10 -10q-25 -18 -45 -39q-31 -29 -50.5 -42t-41.5 -15q-14 0 -31 12l-23 18q-10 6 -18 22.5t-8 31.5v6v4l47 137q51 113 51 133q0 4 -2 4q-18 2 -54 -31.5t-102 -105.5l-92 -96q-16 -16 -88 -98q-45 -55 -47 -56q-45 0 -81 35 t-36 84z" />
<glyph unicode="n" horiz-adv-x="940" d="M182 176q0 57 20.5 109.5t61.5 132.5q18 61 47 123q31 72 44.5 109.5t17.5 78.5q0 2 -1 2h-1q0 8 6 14.5t14 6.5q4 6 25 6q53 0 92 -29t39 -88q0 -31 -11.5 -58.5t-41.5 -90.5l-23 -46q-6 -12 -18.5 -35.5t-12.5 -29.5q51 35 121 92q102 82 168 127t96 45q27 0 75 -29.5 t56 -54.5q0 -14 -3 -43t-5 -51l2 -64q2 -16 2 -49q0 -66 -8 -92q2 -2 4 -6t2 -6l-2 -4q2 -20 22.5 -65.5t20.5 -49.5q0 -23 -29.5 -50.5t-56.5 -31.5q-129 5 -129 146q0 39 6 75q4 45 4 64v10v23q-6 41 -26 41q-37 0 -136.5 -71t-207.5 -169q-33 -35 -56 -66 q-20 -27 -30.5 -33t-32.5 -6q-29 4 -65.5 43t-49.5 70z" />
<glyph unicode="o" horiz-adv-x="741" d="M180 281.5q0 3.5 4 6.5t6 7q12 0 9 22q-1 3 -1 7q0 18 15 64q18 56 47 104q23 37 67 92t79 84q102 88 184 106q41 10 80 10q59 0 92 -32q45 -18 65.5 -53t26.5 -93q2 -12 2 -41q0 -152 -115 -315q-47 -68 -94 -109t-115 -82q-37 -25 -77.5 -33t-110.5 -12q-25 0 -39 8.5 t-41 30.5q-42 43 -64 89q-18 36 -17 66q0 8 1 15q6 14 5 28.5t-1 18.5q-8 8 -8 11.5zM385 264q0 -69 48 -69h1q47 0 119 69q39 35 56.5 71t49.5 126q12 18 13 74q0 49 -15 55q-10 8 -24 8q-18 0 -60 -29q-72 -61 -119.5 -127.5t-66.5 -152.5q-2 -8 -2 -25z" />
<glyph unicode="p" horiz-adv-x="774" d="M41 -371q0 8 4 33q23 86 23 119q0 10 4 29.5t6 35.5q8 14 15 44t7 53q0 10 7.5 23.5t17.5 21.5q0 12 6 37.5t8 35.5q10 55 80 262t119 334q25 57 41 106.5t16 70.5q0 8 5.5 15t17.5 19q16 16 43 17q35 0 67 -23q14 -23 20.5 -39t6.5 -37q0 -6 -4 -38q0 -43 -24.5 -78 t-22.5 -33q100 61 186 61q92 0 147.5 -64.5t55.5 -152.5q0 -35 -33 -103.5t-53 -86.5q-12 0 -33 -43q-25 -33 -94 -69q-54 -29 -81 -29q-6 0 -11 2q-2 0 -6 -5.5t-4 -13.5t-61.5 -28.5t-106.5 -20.5q-25 0 -37.5 3t-24.5 13q-14 -14 -14 -26q0 -20 -20.5 -64.5t-32.5 -44.5 q-2 -2 -5.5 -8t5.5 -14q0 -6 -2.5 -29t-10.5 -35q0 -18 -6 -50t-14 -48q0 -25 -7.5 -48.5t-15.5 -23.5q-12 -4 -12 -59q-2 -49 -31.5 -88t-56.5 -39l-19 -2q-20 0 -30 18q-2 2 -18.5 24.5t-16.5 65.5zM375 258q0 -18 12 -18q29 0 107.5 31.5t115.5 62.5q47 39 72 71.5 t25 65.5q0 29 -19 55q-14 23 -43 23q-68 0 -176 -105q-37 -39 -65.5 -97t-28.5 -89z" />
<glyph unicode="q" horiz-adv-x="772" d="M184 330q0 33 32 99.5t73 123.5q23 37 102.5 102.5t130.5 96.5q20 12 66 32q37 23 53 23q25 6 53 6q51 0 92 -12q27 -18 62 -65.5t43 -86.5q0 -35 -8.5 -61.5t-46.5 -112.5q-29 -45 -52.5 -93t-23.5 -58q-10 -27 -88 -197q-2 -14 -17 -64q-35 -127 -59 -241 q-16 -98 -16 -158q0 -66 16 -92q6 -18 -14.5 -35.5t-46.5 -17.5q-10 0 -31 8q-6 4 -27.5 18.5t-36 35t-20.5 44.5q-6 27 -6 68q0 86 26.5 210t73.5 259q10 20 22.5 48t10.5 34q-41 -20 -58 -31q-72 -39 -105.5 -52.5t-59.5 -13.5q-27 0 -60 32t-56.5 75t-23.5 76zM348 309 q9 -1 18 -1q51 0 98 28q56 33 132 106q51 49 88 115q29 52 29 78q0 7 -2 12q-4 8 -15 8q-41 0 -143 -80q-76 -57 -117 -104t-65 -102z" />
<glyph unicode="r" horiz-adv-x="737" d="M188 156q6 70 31 161l10 41q6 55 64.5 218t97.5 221q20 20 70 20q41 0 57 -16q16 -12 17 -41q0 -47 -60 -166l-20 -43q-14 -27 -23.5 -49.5t0.5 -20.5q23 39 110 106.5t120 84.5q14 8 36.5 16t30.5 12q37 18 84 19q33 0 56.5 -9.5t31.5 -27.5q2 -14 11.5 -22.5 t13.5 -10.5q6 0 8 -5t2 -7q0 -16 -28.5 -42t-59.5 -28q-23 -2 -47.5 -10t-48.5 -20l-54 -31q-70 -35 -118 -69t-97 -87q-10 -10 -29.5 -28.5t-33.5 -42.5q-14 -14 -29.5 -75t-15.5 -75q-2 -6 -8.5 -24.5t-18.5 -32.5q-18 -23 -30.5 -33t-26.5 -10q-20 0 -47 26 q-29 23 -45.5 43.5t-10.5 57.5z" />
<glyph unicode="s" horiz-adv-x="716" d="M184 94q0 25 23 31l10 8q4 2 16 2q8 2 20.5 -1t20.5 -3q14 -4 43 -8l54 -6q41 0 76.5 8t35.5 18q0 6 -16 20.5t-35 14.5q0 8 -63 55q-35 27 -67 53.5t-32 39.5l2 4v10q-14 0 -26.5 39t-12.5 76q0 70 61.5 153.5t153 151t173.5 92.5q31 14 90 14q39 0 53 -8l16 4 q25 0 64 -41t49 -65q0 -68 -4 -109t-21 -41q-2 0 -6 -2t-4 -10q0 -29 -50 -63.5t-91 -34.5l-8 2q-12 2 -36 24.5t-24 44.5q0 6 24.5 33t42 52.5t17.5 54.5q0 10 -7 13t-28 3q-113 -51 -161 -96q-6 -12 -11.5 -18.5t-13.5 -6.5v1t-2 1q-4 0 -26.5 -23.5t-42 -54t-23.5 -57.5 l-4 -6v-10q-2 -4 -2 -17q0 -18 16 -37.5t66 -54.5q92 -70 125.5 -103.5t42.5 -60.5q18 -37 18 -65q0 -70 -72.5 -108t-197.5 -38q-50 0 -102 20.5t-88 50.5t-36 54z" />
<glyph unicode="t" horiz-adv-x="677" d="M207 213q0 49 5 102.5t13 85.5l37 109l29 82l55 119l-82 22q-14 2 -23.5 14.5t-9.5 22.5q0 16 17.5 47t27.5 31q6 -2 33 -2q61 0 92 6q20 8 29 33q10 23 20.5 38t20.5 33q6 12 19.5 38t33.5 59q4 6 18.5 29.5t35.5 39.5q12 10 32.5 17.5t40.5 7.5q37 0 60 -21 q18 -29 18 -43q0 -16 -16 -43q-12 -25 -41 -65q-25 -37 -37 -60q-20 -27 -21 -41q0 -14 27 -14q29 0 96 12q10 2 29 2q49 0 69.5 -28.5t20.5 -71.5q0 -29 -19.5 -35t-86.5 -6q-66 -10 -136 -10q-12 0 -27.5 -1t-31.5 -5t-23.5 -12.5t-15.5 -26.5q-6 -6 -29 -47 q-29 -59 -36 -72q-53 -156 -82 -321q-2 -12 -2 -31q0 -27 17 -38t69 -11q57 0 108 14q61 27 92 45q18 10 33.5 19.5t22.5 13.5q8 16 27.5 -4.5t29.5 -46.5q0 -37 -14.5 -67t-71.5 -62q-66 -41 -135.5 -59.5t-130.5 -18.5q-35 0 -64 6q-33 6 -73.5 52t-51.5 79q0 4 -4 9t-6 7 q-8 6 -8 68z" />
<glyph unicode="u" horiz-adv-x="757" d="M215 252q4 76 21.5 145.5t66.5 177.5l62 123l32 64q10 4 33 4q33 0 61.5 -12.5t30.5 -32.5q6 -8 6 -31q0 -66 -55 -174l-16 -39q-37 -88 -53.5 -137t-16.5 -82t25 -43q10 -6 24 -6q41 0 99.5 63.5t119.5 212.5q29 70 35 144q-4 23 12.5 49.5t42.5 42.5q8 12 22.5 19.5 t18.5 -1.5l33 2q6 2 19.5 -18.5t19.5 -24.5q20 -16 21 -65q0 -68 -50 -187q-39 -82 -52 -126t-15 -84q0 -43 7 -67t36 -48q27 -19 27 -79q0 -13 -1 -28q-4 -14 -22 -22t-45 -8q-45 0 -76 20q-18 19 -29.5 48.5t-27.5 90.5q-4 12 -4 36v34q-8 -18 -20.5 -39.5t-24.5 -30.5 q-47 -47 -95 -69q-66 -41 -112 -41q-57 0 -99 53q-65 52 -65 125q0 12 4 41z" />
<glyph unicode="v" horiz-adv-x="677" d="M213 621q0 31 16.5 62.5t36.5 43.5q8 6 36 9t38 1q45 -16 82 -250q8 -63 13 -91.5t5 -39.5q4 -12 8.5 -28.5t8.5 -22.5t14 4q23 23 68 82q23 29 67 94l60 80q25 33 65.5 72t63.5 45q29 4 46 -11.5t17 -41.5q0 -39 -33 -84q-12 -16 -25.5 -44t-17.5 -32q-23 -45 -83 -127 t-81 -102q-4 -4 -33.5 -29t-54.5 -59q-63 -61 -118 -62q-27 0 -45 19q-23 16 -62 139t-55 229q-8 43 -33 117q-4 16 -4 27z" />
<glyph unicode="w" horiz-adv-x="1058" d="M225 354q0 74 10.5 123t12.5 62q4 10 8 35.5t16 72.5q14 59 33 88q29 41 76 41q25 0 44 -13t21 -38q12 -12 13 -59q0 -35 -6.5 -68t-16.5 -47q-6 -12 -18 -119q-8 -78 -12 -100q-2 -8 -3 -23q0 -27 15 -26q31 0 112 120q55 82 73 118t44 110q20 63 37 82q19 28 55 28h2 q35 0 66 -22q31 -31 31 -80q0 -37 -21 -78q-25 -51 -45 -125t-20 -121q0 -37 9 -46t30 -9q23 0 44 16.5t68 63.5q35 35 96.5 131t61.5 115q0 12 18 35q10 14 19.5 24t27.5 21q12 4 21 4q29 0 51 -23q8 -8 14.5 -38.5t6.5 -57.5q-43 -160 -68 -186q-39 -31 -66 -76 q-49 -59 -76.5 -83t-35.5 -32q-45 -45 -104.5 -71.5t-110.5 -26.5q-41 0 -66 18q-63 33 -63 111q0 14 -4 26.5t-7 16.5q-31 0 -49 -33q-29 -49 -105.5 -101.5t-115.5 -52.5q-31 0 -61.5 46.5t-48.5 114.5q-14 56 -14 108q0 12 1 24z" />
<glyph unicode="x" horiz-adv-x="702" d="M111 162q10 14 52 58t89 85l104 107l-22 77q-37 80 -53 129q-12 16 -19.5 27.5t-7.5 20.5q0 8 16 30q14 14 41 27.5t51 13.5q12 0 25 -6q16 0 52 -68.5t36 -95.5q0 -18 3 -26.5t11 -8.5q14 0 62 31q23 20 36 34.5t17 18.5q125 104 144 113q10 6 18 6q27 0 56.5 -27.5 t29.5 -54.5q0 -68 -70 -106q-51 -37 -92 -76l-69 -61l-54 -43l33 -56q8 -16 23.5 -33.5t29.5 -25.5q16 -23 71.5 -66t63.5 -43q6 0 19.5 -8t23.5 -12q14 -14 15 -47q0 -35 -14.5 -68t-30.5 -33q-33 1 -43 13q-12 0 -29.5 6t-36.5 14q-43 18 -125 90t-82 97q0 6 -2 8t-8 2 q-2 2 -7 8t-5 14t-6 14.5t-15 6.5l-96 -98q-66 -66 -90.5 -87.5t-38.5 -21.5q-18 0 -44 16.5t-44 44t-18 60.5z" />
<glyph unicode="y" horiz-adv-x="698" d="M-139 -311q0 35 27.5 54t60.5 19q20 0 31 -10q4 -2 32.5 -22.5t77.5 -20.5q92 0 180 121q86 137 131 219q-41 25 -79.5 83t-34.5 81v23q-16 0 -23.5 61t-7.5 152q0 98 4 137q8 33 9 81t1 62q-2 29 11.5 50.5t25.5 29.5q27 10 43 10q94 0 94 -201q0 -39 -2 -59 q-4 -98 -4 -139q0 -158 43 -205q18 43 31 61q29 59 33 76q4 14 22 47l27 56q4 12 26.5 78.5t45.5 107.5q8 16 24.5 48t26.5 46.5t22 18.5q16 14 35 14q18 0 39 -12q27 -29 39 -48.5t12 -45.5q0 -43 -33 -103q-16 -47 -35.5 -88t-29.5 -53l-47 -109q-31 -68 -76 -157 q-55 -115 -78 -170l-26 -43q-102 -164 -158 -230q-45 -41 -106.5 -85t-98.5 -50q-39 -8 -86 -8q-84 0 -149.5 28.5t-75.5 69.5z" />
<glyph unicode="z" horiz-adv-x="645" d="M47 94q0 55 62 117q78 96 153 158q18 14 46 32.5t71 49.5l82 55q14 12 108 82q-6 0 -48 6q-25 4 -51 4q-18 0 -36 -2q-43 0 -58.5 1t-31.5 5h-31q-18 0 -61 31t-45 51l33 37q6 4 16 11t16.5 7t10.5 -4l151 8q119 -2 174.5 -7t82 -16t57.5 -38q20 -20 32.5 -47t12.5 -49 q0 -29 -15 -43q-2 -2 -12 -14.5t-16 -12.5l-99 -63q-20 -14 -61 -39q-53 -33 -62 -43q-18 -8 -35.5 -20.5t-27.5 -22.5q-10 -12 -30.5 -32t-43.5 -34q-31 -27 -57.5 -52.5t-34.5 -35.5q8 2 40 7t81 9q26 2 54 1q24 0 48 -1l144 5q35 2 79 2q43 0 62 -9q14 -4 22.5 -33.5 t8.5 -56.5q0 -16 -2 -18q-10 0 -66.5 -6t-124.5 -8q-53 -4 -252 -29q-31 -6 -106 -14q-66 -11 -119 -11q-37 0 -56.5 7.5t-41.5 23.5q-23 14 -23 51z" />
<glyph unicode="{" horiz-adv-x="675" d="M266 -61q12 10 14.5 29.5t2.5 23.5q8 33 40.5 128t55.5 140q23 41 36 85t13 67q0 33 -26.5 54t-75.5 32q-47 0 -47 32q0 12 6 27q6 20 25.5 33.5t41.5 13.5q12 0 19 -2q47 0 109.5 67.5t90.5 157.5q25 66 37.5 128.5t20.5 162.5q8 115 44 189.5t113 148.5q20 25 45 40 t48.5 25.5t35.5 16.5q45 16 95 16q41 0 57 -10q14 -6 32.5 -56t8.5 -56q-10 0 -35.5 -5.5t-52.5 -5.5q-37 -8 -63.5 -25.5t-69.5 -54.5q-35 -43 -44 -62t-14 -56q-20 -53 -25 -81t-16 -122q-10 -104 -17 -139t-34 -101q-29 -78 -61.5 -132t-79.5 -95q-39 -25 -39 -33 q0 -6 16 -26q0 -4 10.5 -28t10.5 -40q8 -25 8 -39q0 -29 -15.5 -72t-51.5 -127q-39 -78 -39 -112q-14 -20 -39 -113q-6 -35 -13.5 -59.5t-7.5 -32.5q0 -29 51 -29q8 0 41 4q25 4 29 4q14 0 22.5 -6t22.5 -24q16 -16 16 -35q0 -20 -14 -37.5t-43 -26.5q-51 -27 -123 -26 q-57 0 -78 14q-18 29 -18 17l-23.5 23.5t-31.5 33.5q-16 20 -19.5 39.5t-1.5 58.5v58z" />
<glyph unicode="|" horiz-adv-x="675" d="M190 -139q0 43 9 82q23 59 22 86q8 39 84 274.5t86 253.5q8 0 14.5 13.5t6.5 29.5q0 18 7 37.5t15 28.5q0 6 5 22.5t5 22.5q0 4 5.5 15t5.5 17q35 66 167 410t132 369q0 16 22.5 33.5t40.5 17.5q10 10 33 10l33 -33q20 -18 36.5 -44.5t16.5 -49.5q0 -31 -8 -53.5 t-41 -91.5q-6 -14 -16.5 -34t-22.5 -48l-57 -133q-98 -223 -99 -234q0 -6 -8 -25.5t-14 -39.5q-16 -33 -52 -116t-36 -91q0 -23 -11 -33q-6 0 -8 -9t-2 -13q0 -20 -33 -109q-72 -244 -121 -418t-49 -223q0 -43 -13 -59.5t-38 -28.5q-6 -2 -18 -2q-43 0 -71 46t-28 120z" />
<glyph unicode="}" horiz-adv-x="675" d="M143 -178q0 8 5.5 14t7.5 8q10 -8 20 -8t10 8q4 4 25.5 16.5t50.5 24.5q61 10 85 21.5t33 33t21 78.5q16 66 17 76q0 4 2 40t2 91q0 49 -2 76q-4 68 -4 141q0 37 4 54.5t14 38.5q20 18 21 45q0 14 -2 22q-14 31 -15 64q0 39 23 57q55 61 75.5 88t49.5 80q51 82 90 166 t55 145v21q6 12 6 28q0 25 -24 60q-16 33 -41 48t-78 32q-37 6 -37 47q0 25 14 41q8 18 38 30.5t55 12.5q20 0 26 -9q16 -16 31 -16q10 0 67.5 -50t73.5 -79q14 -10 25 -100q8 -41 8 -49q0 -20 -25 -95q-29 -90 -52 -153.5t-34 -75.5q-6 -4 -14 -8t-8 -10q0 -14 -38 -77 t-65 -89q-8 -8 -14 -21.5t-8 -17.5l-14 -8q-14 -10 -15 -25q0 -8 15 -47q2 -16 12 -34.5t16 -29.5q0 -12 -2 -20t-8 -8q-33 -18 -45 -55t-12 -113l2 -72q2 -68 -2 -139.5t-13 -89.5q-33 -143 -47 -144q-2 0 -5 -2t-1 -6q0 -29 -38 -61.5t-93 -54t-106 -21.5q-52 0 -95 27.5 t-43 52.5z" />
<glyph unicode="~" horiz-adv-x="913" d="M199 483q0 14 19.5 45t60 67t100.5 60l51 7q45 -2 71.5 -7.5t49.5 -21.5q53 -41 93 -62.5t75 -21.5q31 0 104 35q8 4 38 16t54.5 18.5t42.5 6.5q23 0 44.5 -21.5t21.5 -48.5q0 -31 -35 -66l-43 -24l-110 -49q-35 -14 -58.5 -23.5t-38.5 -9.5q-47 0 -77.5 12.5t-90.5 46.5 l-16 11q-12 8 -35.5 25.5t-44 28.5t-37.5 11q-35 0 -65 -39q-4 -4 -21.5 -19.5t-38.5 -17.5q-4 -10 -14 -22t-16 -12q-37 0 -60.5 25.5t-23.5 49.5z" />
<glyph unicode="&#xa1;" horiz-adv-x="430" d="M-18 -356q2 31 18 66.5t38.5 74.5t31.5 55l26 49q33 57 33 68q0 8 10.5 29.5t16.5 36.5q16 27 33.5 73.5t17.5 57.5q2 4 5 14t11 18q6 0 8 9.5t2 13.5q0 10 10.5 41t28.5 67q70 199 76 283q4 43 19.5 61.5t38.5 30.5q6 2 18 2q39 0 62.5 -32.5t23.5 -96.5q0 -53 -18 -127 q-29 -57 -29 -86q-10 -35 -32.5 -89t-37.5 -83q-8 0 -17 -14t-9 -29q0 -16 -7.5 -36.5t-15.5 -28.5q0 -6 -8 -21.5t-8 -21.5q0 -4 -5.5 -13.5t-5.5 -15.5q-37 -61 -106.5 -231t-71.5 -197q-8 -47 -37 -43q-10 -8 -49 -8q-6 2 -22.5 10t-28.5 23q-14 14 -17 34.5t-3 55.5z M424 903q0 57 90 105q43 16 66 16q35 0 69 -27q31 -31 31 -63q0 -51 -76 -103q-45 -27 -65 -26q-12 0 -56 14q-59 35 -59 84z" />
<glyph unicode="&#xa2;" horiz-adv-x="921" d="M373 -37q0 51 30 158q31 43 35 90q12 37 76 158q-16 6 -56 44t-52 58q-25 35 -25 92q0 98 70 268q23 47 75 124t70 87q6 2 28.5 11.5t51.5 23.5q14 6 59 16.5t64 10.5q27 0 80 -25q53 109 97 205t46 109q6 16 15.5 22t25.5 4q12 12 33 4l28 -28q19 -31 15 -80 q-4 -20 -12.5 -39t-17.5 -35t-15 -27q-29 -45 -68 -116l-59 -97q20 -33 12 -53q-6 -18 -24.5 -54t-28.5 -48q-8 -12 -31 -12q-8 0 -25 4q-6 -16 -28 -52q-27 -47 -65 -118.5t-40 -77.5q0 -14 -18 -33q-6 0 -10 -10q96 23 149 47q29 18 62 18q14 0 28.5 -3t20.5 -5 q20 -8 20 -37q0 -27 -18.5 -55.5t-50.5 -46.5q-35 -18 -59.5 -36.5t-24.5 -29.5q-4 0 -16.5 -5t-16.5 -3q-23 -2 -70 -14t-61 -21q-25 -10 -47 -10l-43 -94q-10 -25 -42 -96.5t-49.5 -115.5t-19.5 -67q-4 -49 -9 -64t-24 -20q-66 -14 -65 74zM578 594q0 -18 6 -35.5 t14 -23.5l20 34q8 0 18.5 14.5t12.5 28.5q0 18 7.5 38t17.5 26q0 6 9 22.5t9 20.5q2 4 7.5 10t5.5 14q18 32 94 175l-33 18q-14 0 -39 -28.5t-59 -78.5q-39 -39 -55.5 -84t-21.5 -79.5t-9 -47.5q-4 -6 -4 -24z" />
<glyph unicode="&#xa3;" horiz-adv-x="921" d="M49 33q0 35 22.5 53t78.5 25q84 8 100 12t21 14t8 17q31 100 57 272q4 43 26 145l-98 2q-41 0 -71 13q-49 0 -72 41q-10 12 -10 26q0 37 116 45q47 8 174 13q35 121 86 229q195 397 338 422q25 6 49 6q47 0 96.5 -19.5t78.5 -45.5q2 12 21.5 -7.5t38.5 -52.5t21 -53 q6 -20 12.5 -34.5t8.5 -18.5q8 -7 7 -21t-1 -18q-10 -57 -53 -90q-25 -12 -55 -13q-39 0 -65 21.5t-21 64.5q4 39 -7.5 74t-37.5 41q-20 10 -33 10q-20 0 -64 -35q-14 -25 -28.5 -40t-18.5 -17q-4 -8 -19.5 -33.5t-35.5 -64.5q-37 -74 -119 -303l160 -2q53 0 94 -12.5 t61 -32.5q18 -20 19 -43q0 -25 -19.5 -39.5t-48.5 -8.5q-16 -2 -42.5 -2t-51.5 -2l-65 -2h-156l-31 -100l-14 -90q-27 -135 -31 -199l4 -51l74 -25q12 -4 37.5 -22.5t52.5 -22.5q53 -35 123 -34q47 0 87 19t46 36q8 0 15.5 9t7.5 20q6 0 27.5 7t33.5 7q33 0 52.5 -20.5 t19.5 -53.5q0 -45 -38 -91t-118 -83q-49 -25 -117 -25q-100 0 -176 52q-8 8 -26.5 16t-32.5 8q-10 8 -60 13q-33 4 -45 8q-39 8 -63 8q-25 0 -51 -8q-29 -10 -74 -10q-76 0 -140.5 30.5t-64.5 65.5z" />
<glyph unicode="&#xa4;" horiz-adv-x="921" d="M229 90q0 10 7 16q-4 4 -5 7q0 4 7.5 3t9.5 -1q-14 14 7 51t42 55v2q0 4 6 12.5t8 20.5q23 14 47 14q0 20 6.5 28.5t14.5 13.5t12 7q10 10 11 22.5t-7 8.5q-4 4 -15 22.5t-20 24.5q0 14 -3 42t-3 48q0 45 11 80q4 0 10 29t14 37v4q0 8 8.5 17.5t14.5 11.5l6 6t4 14 q2 2 8 14.5t19 30.5q10 25 17 40t7 22q0 8 -6 22q-41 33 -71.5 77t-22.5 66l-15 23q-12 18 -12 39q0 23 12.5 43t26.5 29.5t21 1.5l16 -4q16 -5 29 -29q10 -14 19 -25.5t15 -19.5q6 2 19.5 -23.5t23.5 -34.5q25 -35 45.5 -43t20.5 -10l2 -2q2 0 8 8.5t21 16.5q16 8 26 8 q6 0 21.5 -3t38.5 -1l57 -4l70 94q86 113 131 113q14 0 24 -17q14 -4 26.5 -34.5t6.5 -41.5q-2 2 -10 -13t-15 -25q-6 -12 -12 -23.5t-12 -22.5q-6 -10 -12.5 -21t-10.5 -22q-16 -4 -21 -11t-7 -15t-6 -15q2 -2 9 -12t21 -22q25 -10 33 -74q16 -12 24.5 -53t2.5 -47l-9 -23 q6 -14 -32.5 -92t-85.5 -133l-35 -41l26 -29q14 -27 55.5 -65.5t57.5 -38.5q12 -2 12 -60q0 -45 -8 -55q-14 -20 -47 -20q-39 0 -65 32q-37 29 -72 75t-47 73v6q0 8 -6 8t-31 -14q-49 -23 -78 -32t-55 -9q-16 0 -25 2q-25 8 -26 8q-8 0 -31 -22q-2 -10 -28.5 -39t-49.5 -50 q-10 -23 -28.5 -47t-14.5 -32q-10 -10 -60.5 -27.5t-54.5 -3.5q-12 -10 -27.5 10.5t-15.5 42.5zM498 492q0 -35 22 -48q12 -18 46 -26t79 -4q141 76 186 178q20 45 21 90q0 37 -12 51q-18 20 -43 30.5t-66 10.5q-23 0 -43 -9t-26 -11q-39 -16 -55.5 -38t-51.5 -85 q-57 -80 -57 -139z" />
<glyph unicode="&#xa5;" horiz-adv-x="921" d="M137 295q0 37 117 49q55 10 240 18q25 78 51 144v2q-72 -2 -162 -2q-41 0 -72 10q-51 0 -73 41q-10 12 -11 27q0 35 115 47q53 10 174 16q-37 55 -56.5 104.5t-27.5 114.5q-23 82 -22 172q0 29 4 160q2 88 27.5 138t27.5 57q23 20 47 20q37 0 57.5 -59.5t18.5 -134.5 q12 -414 82 -471q6 -2 18 -3q18 0 35.5 14.5t56.5 57.5q49 55 64 70q49 49 110.5 119.5t85.5 99.5q143 174 189 201q8 14 42 26.5t46 14.5q8 -2 12 -11.5t9.5 -27t13.5 -29.5q4 -8 18.5 -24.5t11.5 -26.5q-2 -14 -88 -101q-45 -39 -143 -141t-156 -174q-37 -43 -141 -158h57 q111 0 158 -43q20 -20 21 -43q0 -23 -19.5 -37t-48.5 -10l-160 -10q-6 0 -35.5 -1t-95.5 -1q-10 -31 -26 -107l-13 -36h129q117 0 160 -41q18 -18 19 -43q0 -25 -18.5 -39.5t-49.5 -10.5l-74 -2q-109 0 -137 -2q-6 0 -21.5 -1t-48.5 -1q-37 -121 -47 -151 q-37 -139 -63.5 -190.5t-55.5 -41.5q-12 2 -79 50q-18 20 -19 43q0 18 17 77l12 49q4 74 33 158l-158 -2q-41 0 -72 10q-29 0 -48 12.5t-28 28.5q-10 16 -10 25z" />
<glyph unicode="&#xa6;" horiz-adv-x="675" d="M195 -150q0 37 10 93q23 59 22 86q6 33 59.5 199.5t88.5 267.5q0 14 24 14q37 0 87.5 -27.5t37.5 -46.5l-4 -10l-28 -92q-8 -31 -50.5 -169t-67 -236.5t-24.5 -127.5q0 -45 -14 -69.5t-35 -34.5q-6 -2 -18 -2q-39 0 -63.5 43t-24.5 112zM475 788q61 143 177 436.5 t116 313.5q0 33 33 33q10 10 33 10l32 -33q31 -29 50.5 -51t19.5 -43q0 -31 -8 -53.5t-41 -91.5q-6 -14 -16.5 -34t-22.5 -48l-57 -133q-98 -223 -99 -234q0 -6 -8 -25.5t-14 -39.5q-6 -12 -31 -68q-6 -20 -37 -20q-27 0 -62.5 14t-56 33.5t-8.5 33.5z" />
<glyph unicode="&#xa7;" horiz-adv-x="788" d="M242 129q0 27 14 37q14 2 40 -9.5t40 -15.5q27 -18 65 -18q39 0 73 18.5t38 42.5q-4 6 -17.5 29t-19.5 43q-63 61 -98 136t-35 128q-4 12 -4 23q0 33 22.5 73.5t51.5 67.5q25 37 50 58.5t79 60.5q-18 47 -19 82q-4 12 -4 22q0 37 22.5 86t49.5 88q49 55 117.5 101.5 t136.5 77.5q31 0 71.5 -3.5t55.5 -7.5q20 -8 46.5 -55t33.5 -84q0 -14 -15 -51q-4 -12 -8 -27.5t-8 -32.5q-4 -14 -16.5 -38.5t-12.5 -30.5q-2 -12 -11 -18.5t-22 -6.5q-20 0 -43.5 13.5t-31.5 33.5q-2 10 -7.5 29.5t-5.5 32.5q0 16 7 30q23 29 22 35q0 10 -22 4 q-25 0 -68 -31.5t-76 -80.5q-23 -27 -31 -44.5t-8 -33.5l2 -37q0 -29 20.5 -70t37.5 -43q4 -8 20.5 -33.5t44.5 -52.5q53 -88 53 -147q0 -102 -153 -139q-33 -8 -74 -9q-57 0 -106 23q10 -16 18 -23q4 -8 22.5 -32.5t43.5 -42.5q49 -86 49 -144q0 -109 -166 -141 q-33 -8 -76 -8q-57 0 -104 21.5t-70 60.5q-14 33 -14 53zM496 530q20 -4 36 -10q29 -29 72 -28q35 0 62.5 18t31.5 45q-10 2 -18 18.5t-18 47.5q-25 29 -48 59q-27 -23 -92 -92q-23 -31 -26 -58z" />
<glyph unicode="&#xa8;" horiz-adv-x="722" d="M442 975q6 23 22.5 58.5t43.5 58.5q6 4 16.5 16t20.5 14q18 12 35 13q41 0 75 -62q16 -37 17 -57q0 -23 -13.5 -46.5t-44.5 -58.5q-43 -57 -82 -57q-27 0 -51 25q-18 16 -30.5 50t-8.5 46zM760 975q6 23 22.5 58.5t42.5 58.5q6 4 16.5 16t20.5 14q18 12 35 13 q41 0 76 -62q16 -37 16 -57q0 -23 -13 -46.5t-44 -58.5q-43 -57 -82 -57q-27 0 -51 25q-19 16 -31 50t-8 46z" />
<glyph unicode="&#xa9;" horiz-adv-x="1015" d="M293 571q0 66 4 78q8 6 7 13.5t-3 9.5q-4 12 -4 20q0 37 25.5 108.5t57.5 135t44 70.5q4 0 4 7t2 7q10 16 82 60t131 75q82 41 164 41q174 0 313 -199q6 -18 29 -61q18 -27 18 -37q29 -43 43.5 -105.5t6.5 -70.5q2 -4 1 -14.5t1 -14.5q6 -8 6 -41q0 -43 -8.5 -99 t-16.5 -58q-2 0 -5 -3.5t1 -5.5q6 -4 -20.5 -32.5t-45.5 -30.5v-3t7 -5q8 -4 -33 -48t-97.5 -89.5t-101.5 -59.5l-16 -18q-14 -20 -69.5 -38t-96.5 -13q-145 -5 -241.5 52.5t-135.5 170.5q-23 39 -35 102q-2 10 -10 45q-2 2 -3 11.5t-3 11.5q-2 4 -2 28zM424 606 q0 -29 25 -69q-2 -20 6 -50t6 -34q2 -12 24.5 -44t52 -61t52.5 -35q22 -18 65 -18q80 0 191 61q53 25 116.5 79t61.5 81l-2 8q0 23 14 29q18 16 29.5 63.5t11.5 98.5q0 55 -14 82q0 2 -10.5 16t-8.5 25q0 14 -11 33.5t-66 97.5q-88 68 -176 67q-37 0 -58.5 -8t-23.5 -8 q-119 -35 -175.5 -112t-78.5 -171q-31 -94 -31 -131zM532 598q0 68 33 135q12 53 73.5 124t63.5 73t15.5 7t42.5 15q14 4 26.5 7.5t16.5 3.5q33 -2 76 -36t71.5 -74t22.5 -58q-4 -6 -15.5 -18.5t-15.5 -22.5t-27 -11q-23 0 -42 11.5t-21 27.5q-29 39 -53 39q-20 0 -37 -21.5 t-27 -49.5q-29 -33 -36 -74t-9 -49t-2 -25q0 -41 10 -45q29 -8 37 -8q18 0 45 15.5t84 60.5q12 10 25.5 -1.5t32 -38t26.5 -28.5q-2 -33 -34.5 -66.5t-63.5 -46.5q-8 0 -17.5 -3t-15.5 -3q-16 -2 -44 -8t-48 -14q-10 -4 -25.5 -2t-26.5 6t-18 6l-49 16q-4 0 -17.5 12.5 t-25.5 26.5q-31 49 -31 117z" />
<glyph unicode="&#xaa;" horiz-adv-x="716" d="M305 758q-12 16 21.5 96t93.5 188q10 10 25.5 35t23.5 35q0 6 6 12t14 6l13 29q8 16 72.5 78.5t99.5 83.5q33 25 74 25t73 -27l43 -37l68 -57l67 -60l-30 -90q-16 -47 -17 -94q0 -68 37 -127q10 -23 24.5 -33t41.5 -12q41 -8 41 -41q0 -39 -13.5 -59.5t-33.5 -24.5 q-29 -4 -43 -4q-53 0 -95.5 27.5t-76.5 91.5q-8 10 -18.5 36.5t-14.5 43.5q-12 -18 -41 -48q-188 -190 -305 -190q-33 0 -68 21q-6 12 -30.5 30.5t-24.5 22.5q0 6 -9.5 21.5t-17.5 21.5zM487 813q31 0 111 66l47 41q47 39 76 67.5t57 67.5l41 65q-18 39 -32.5 52.5 t-30.5 13.5q-35 0 -89.5 -63.5t-131.5 -194.5q-18 -33 -32 -69t-16 -46z" />
<glyph unicode="&#xab;" horiz-adv-x="1323" d="M236 485q16 2 31.5 30t17.5 32q20 25 61 59.5t53 44.5l125 105q82 61 114 94t38 39q41 45 53 45q2 2 8 2q14 0 45 -18q10 -8 27.5 -14.5t27 -12.5t11.5 -17q0 -10 -6 -37.5t-19 -37.5l-53 -43q-76 -57 -207 -174q-66 -61 -86 -87t-20 -55q0 -12 2 -20q23 -51 79 -106.5 t185 -127.5q53 -27 93 -78t40 -88q0 -27 -25 -32l-32 -2q-55 0 -127 30l-37 21q-61 31 -88 47t-51 47q-66 37 -105 81t-76 110l-65 86zM668 485q16 2 30.5 30t16.5 32q18 25 58 56.5t52 41.5l131 111q82 61 114 94t38 39q41 45 53 45q2 2 8 2q14 0 45 -18q10 -8 26.5 -14.5 t26 -12.5t11.5 -17q0 -10 -6 -37.5t-19 -37.5l-53 -43q-76 -57 -207 -174q-63 -57 -83.5 -84t-20.5 -56q0 -14 2 -22q23 -53 78 -107.5t184 -126.5q53 -27 93 -78t40 -88q0 -27 -24 -32l-33 -2q-55 0 -127 30l-37 21q-61 31 -88 47t-51 47q-66 37 -105 81t-76 110l-63 86z " />
<glyph unicode="&#xac;" horiz-adv-x="952" d="M256 575q0 14 23.5 22.5t78.5 14.5q61 14 231.5 21.5t284.5 7.5q53 0 79 -7t48 -28q25 -25 25 -49q0 -10 -8 -18q6 -68 6 -146q0 -49 -10 -76.5t-35 -52.5q-24 -24 -57 -24q-25 0 -40.5 15t-11.5 42l-10 115l-6 80l-59 -5q-63 -2 -184.5 -6t-211.5 -4q-41 0 -71 10 q-23 0 -34 12.5t-17.5 27t-8.5 20.5q-12 18 -12 28z" />
<glyph unicode="&#xad;" horiz-adv-x="667" d="M207 428q0 37 117 49q74 16 125 22.5t129 6.5q96 0 143 -43q20 -20 20 -43t-19.5 -37t-47.5 -10l-129 -11q-12 0 -66.5 -5t-113.5 -5q-41 0 -72 10q-29 0 -48.5 12.5t-27.5 28.5q-10 16 -10 25z" />
<glyph unicode="&#xae;" horiz-adv-x="1015" d="M293 571q0 66 4 78q8 6 7 13.5t-3 9.5q-4 12 -4 20q0 37 25.5 108.5t57.5 135t44 70.5q4 0 4 7t2 7q10 16 82 60t131 75q82 41 164 41q174 0 313 -199q6 -18 29 -61q18 -27 18 -37q29 -43 43.5 -105.5t6.5 -70.5q2 -4 1 -14.5t1 -14.5q6 -8 6 -41q0 -43 -8.5 -99 t-16.5 -58q-2 0 -5 -3.5t1 -5.5q6 -4 -20.5 -32.5t-45.5 -30.5v-3t7 -5q8 -4 -33 -48t-97.5 -89.5t-101.5 -59.5l-16 -18q-14 -20 -69.5 -38t-96.5 -13q-145 -5 -241.5 52.5t-135.5 170.5q-23 39 -35 102q-2 10 -10 45q-2 2 -3 11.5t-3 11.5q-2 4 -2 28zM424 606 q0 -29 25 -69q-2 -20 6 -50t6 -34q2 -12 24.5 -44t52 -61t52.5 -35q22 -18 65 -18q80 0 191 61q53 25 116.5 79t61.5 81l-2 8q0 23 14 29q18 16 29.5 63.5t11.5 98.5q0 55 -14 82q0 2 -10.5 16t-8.5 25q0 14 -11 33.5t-66 97.5q-88 68 -176 67q-37 0 -58.5 -8t-23.5 -8 q-119 -35 -175.5 -112t-78.5 -171q-31 -94 -31 -131zM520 496q8 41 37 114q0 45 8 45q6 39 19.5 76t52.5 90q0 14 2 22.5t2 14.5q0 10 -10 21q-6 6 -6 14q0 12 22 29q0 14 38 26.5t79 9.5q6 0 21.5 -2t22.5 -5t13 -7q25 -2 62 -22.5t37 -26.5q14 -14 24 -46t12 -54 q0 -27 -4 -41.5t-24 -40.5q-14 -29 -34 -50.5t-52 -44.5l-25 -26q2 -10 31 -30.5t47 -29.5l16 5q14 0 15 -23q0 -12 -2 -22q-12 -25 -32 -43.5t-40 -18.5q-14 0 -25 8q-23 4 -32 10.5t-27 24.5q-10 8 -23.5 26.5t-37.5 39.5l-7 1q-6 1 -22 3l-16 -43q0 -25 -13 -68 q-14 -37 -43 -37q-33 0 -62.5 36t-23.5 65zM717 645q22 6 32.5 19.5t15.5 30t9 24.5q12 6 41 45q2 4 5 5t3 24q4 8 4 12q0 8 -10 14q-4 4 -8 10.5t-27 14.5l-5 -4q-5 -4 -21 -21l-2 -6v-10q0 -10 -11 -17q-43 -137 -26 -141z" />
<glyph unicode="&#xaf;" horiz-adv-x="722" d="M455 1001q0 20 27.5 31.5t86.5 18.5q74 16 125 22t129 6q94 0 142 -41q20 -20 20 -43q0 -25 -18.5 -39t-48.5 -10l-144 -8q-12 0 -59 -5t-105 -5q-40 0 -71 10q-51 0 -74 39q-10 16 -10 24z" />
<glyph unicode="&#xb0;" horiz-adv-x="579" d="M393 1141q0 33 25.5 105.5t50.5 107.5q16 31 43 55.5t66 50.5q12 6 36 27q27 12 49.5 20.5t38.5 8.5q76 0 147 -36t116 -100.5t45 -146.5q0 -68 -14.5 -112t-36 -72.5t-70.5 -85.5q-35 -41 -92.5 -86.5t-108.5 -45.5q-203 0 -258 164q-16 31 -25.5 82t-11.5 64zM575 1130 q0 -47 21.5 -81.5t69.5 -44.5q28 0 69 23.5t71 70.5t30 110q0 143 -103 152q-70 4 -114 -58.5t-44 -171.5z" />
<glyph unicode="&#xb1;" horiz-adv-x="913" d="M193 92q0 35 114 47q61 14 231.5 21.5t284.5 7.5q117 0 160 -41q18 -18 18 -43t-18 -39t-49 -10l-160 -10q-68 -2 -200 -6.5t-226 -4.5q-41 0 -72 11q-51 0 -73 41q-10 12 -10 26zM193 573q0 35 114 48q70 14 215 20q-2 37 -2 98q0 111 41 152q18 18 43 18t39 -17.5 t10 -45.5l11 -154l2 -45q63 2 157 2q115 0 160 -43q18 -18 18 -43q0 -23 -19 -37t-48 -10l-160 -10l-102 -4q2 -41 2 -105q0 -39 -10 -67q0 -49 -41 -72q-16 -10 -25 -10q-37 0 -49 110q-12 49 -19 142l-182 -4q-41 0 -72 10q-50 0 -73 41q-10 12 -10 26z" />
<glyph unicode="&#xb2;" d="M365 760q0 12 19 55t28 43q2 -2 21.5 25.5t21.5 36.5l20 16l8 4h-4l43 43h-2l27 39q6 6 11 18.5t17 26.5q35 35 62 65.5t29 38.5q2 2 9 10.5t15 12.5l39 35q4 10 20.5 25.5t26.5 27.5l23 53q2 6 5 9.5t3 5.5t-25 10h2q-29 6 -55 6q-29 0 -47 -5t-49 -26q-23 -4 -35 -12 q-4 -2 -17.5 -9t-33.5 -3l-12 14l-37 49l-25 58l76 32q113 72 188 72q18 0 35 -6q16 -2 28.5 -4t16.5 -4q25 -4 69 -38t58 -65v2q10 -16 20.5 -50t10.5 -48q0 -47 -60 -131q-14 -18 -89.5 -103t-94.5 -104q-18 -12 -69.5 -62.5t-45.5 -50.5l7 -4l12 4q35 14 78 22.5t71 8.5 q16 0 23 -2q6 2 24 2q45 0 93 -14l10 -4q2 -2 8 -2q16 -6 23 -17q6 -12 12 -18q45 -41 45 -68q0 -29 -66 -28q-37 0 -61 4q-41 0 -59 -6q-8 -4 -45 -5l-15 -2h-12q-43 6 -115 -18q-31 -12 -117 -27.5t-102 -9.5q-10 4 -33.5 29.5t-31.5 42.5z" />
<glyph unicode="&#xb3;" d="M416 715q2 33 25.5 55.5t64.5 17.5q66 -14 104 -14q96 0 146 57q35 39 35 82v21q0 20 -23 35q-25 20 -78 40.5t-88 24.5q-4 -2 -10 -2q-12 0 -28.5 11.5t-22.5 15.5q-8 8 -16.5 30.5t-10.5 28.5l-8 12q-4 31 164 134l10 4h-2l12 8q37 25 74 45q59 37 82 57h-2 q10 14 15 19.5t5 7.5l-22 6l-47 4q-12 0 -21 -8q-12 4 -58 -5t-48 -16q-2 -6 -48.5 -13t-54.5 -5q-12 2 -29.5 46t-17.5 63q8 12 50 42.5t69 43.5q31 8 101.5 12t105.5 2h2q80 -8 137 -58.5t57 -111.5q0 -27 -15 -55.5t-52 -67.5l-8 -8l-21 -14q-12 -8 -28.5 -16.5 t-34.5 -20.5l-25 -17l-14 -10l-17 -14l-14 -10l-66 -29l103 -37q29 -14 49.5 -39t34.5 -49.5t22 -34.5q20 -55 21 -90q0 -55 -39 -112.5t-102 -102.5q-41 -27 -110 -46.5t-122 -23.5q-94 0 -142 32t-44 73z" />
<glyph unicode="&#xb4;" horiz-adv-x="722" d="M674 979l2 20q4 18 88 108.5t113 100.5q16 10 30 13q27 0 52.5 -29t25.5 -76q0 -18 -23.5 -42.5t-76.5 -67.5q-74 -57 -92 -86q-27 -39 -58 -39q-61 0 -61 98z" />
<glyph unicode="&#xb5;" horiz-adv-x="757" d="M55 -272q0 18 16.5 75.5t39.5 124.5q31 96 63.5 208t48.5 196q20 111 82 243q80 158 101 179q14 18 55 18q37 0 55.5 -18.5t18.5 -48.5q0 -35 -17.5 -89.5t-52.5 -138.5q-23 -53 -40 -106.5t-19 -79.5q0 -31 12 -46.5t43 -15.5q84 0 188 234l25 59q2 8 10 37t8 57 q0 14 16.5 48t40 60t44.5 26q4 0 12 -5l39 -4q4 2 16 -15t19 -44l6 -12q2 -10 2 -33q0 -82 -47 -191q-41 -90 -54.5 -131t-13.5 -79q0 -74 57 -119q16 -14 21.5 -28.5t5.5 -39.5q-10 -23 -41 -52.5t-72 -29.5q-31 0 -58.5 39t-43.5 103q-4 12 -4 41.5v44.5q-6 -12 -47 -53.5 t-91 -75t-93 -33.5t-76 39q-123 -401 -154 -441l-8 -6q-18 -18 -35 -18q-22 0 -39.5 23.5t-28 53t-10.5 44.5z" />
<glyph unicode="&#xb6;" horiz-adv-x="868" d="M301 -23q0 8 6 19q0 6 9.5 28.5t13.5 36.5q18 66 51 148t53 115l12 41q8 37 15 45q27 61 47 88q6 33 16.5 61.5t14.5 36.5q-10 2 -25 2q-51 0 -96 8q-51 18 -82 63.5t-31 116.5q0 14 4 52q4 14 21.5 71.5t45 102.5t64.5 73q92 66 153.5 100t158.5 72q27 0 81 4.5 t101 10.5q328 -27 311 -107q-2 -8 -3 -21.5t-13 -29.5q-10 -18 -27 -59q-43 -90 -51 -105q-33 -66 -72 -174q-23 -43 -37 -82t-18 -49l-27 -47q-4 -20 -22.5 -67.5t-40.5 -92.5q-61 -145 -70 -192l-22 -56q-35 -80 -47 -100l-25 -86h-94q-6 4 -22.5 9t-26.5 20q-4 20 -4 22 q0 14 8 58q6 14 18.5 36.5t18.5 30.5q10 6 13 23.5t3 19.5q0 23 31 68l16 53q0 12 19 45q29 57 36 90q2 8 10.5 35t18.5 27q2 12 5 27.5t5 27.5q10 16 20.5 43t14.5 37q10 12 15.5 21.5t7.5 11.5q-10 0 28 79q6 8 10.5 34t10.5 46q6 12 30.5 64.5t47.5 91.5q25 78 24 96 q-6 0 -22.5 3t-30.5 3q-35 0 -43 -24l-49 -84l-37 -86q-29 -61 -37 -88q-35 -70 -57 -129q-35 -70 -47 -117q-10 -20 -39 -92q-72 -178 -101 -223q-6 -18 -10 -42t-8 -32q0 -10 -25.5 -80t-38.5 -104l-40 -107q-14 -20 -23.5 -28.5t-26.5 -8.5q-10 0 -28 6q-4 4 -24.5 22.5 t-33 36t-12.5 31.5z" />
<glyph unicode="&#xb7;" horiz-adv-x="382" d="M268 592q16 2 45 43t27 63q0 8 6 15.5t14 9.5q16 10 35 10q25 0 49.5 -13t38.5 -36q12 -27 13 -55q0 -55 -47 -111q-18 -27 -47 -41t-56 -14q-31 0 -47 14q-14 12 -27.5 63.5t-3.5 51.5z" />
<glyph unicode="&#xb8;" horiz-adv-x="722" d="M45 -281q0 23 13.5 37.5t39.5 14.5q23 0 80 -21q61 -20 90 -20q37 0 51 28q6 8 7 19q0 14 -11.5 31.5t-21.5 27.5t-14 17q-25 29 -64 65q-20 33 -20 53q0 68 165 152l115 -62q-57 -29 -86 -50t-29 -46q2 -4 41 -53q23 -25 42.5 -52.5t25.5 -52.5q4 -25 4 -34 q0 -68 -54 -119t-118 -51q-45 0 -110.5 15t-96.5 28q-20 8 -34.5 29.5t-14.5 43.5z" />
<glyph unicode="&#xb9;" d="M434 1243q6 2 98 76q37 31 48 35q2 0 8 6l8 6l25 20h-3q16 16 91 72q-2 -2 34 29l33 26q53 37 108.5 64t67.5 25q14 -10 44 -37t36 -43v-9q0 -23 -10 -47q-20 -59 -50 -155.5t-54 -180.5q-23 -80 -27 -92q-4 -4 -4 -14q-16 -45 -29 -104q-35 -84 -51 -183l-14 -41 q-14 -49 -27 -61q-8 -35 -39 -35q-25 0 -59 21q-4 4 -14.5 11t-18.5 22.5t-8 41.5q0 23 6 56l8 39q8 47 17.5 78.5t11.5 39.5q12 6 55 164l25 86q4 14 24 66q4 14 11.5 31.5t11.5 33.5l22 68q-12 -8 -39 -35q-33 -33 -55 -51q-53 -35 -72 -49q-8 -8 -26.5 -25.5t-34.5 -28.5 q-55 -49 -82 -49q-14 0 -25 8q-27 23 -44 60t-7 55z" />
<glyph unicode="&#xba;" horiz-adv-x="579" d="M365 766q0 6 4 35q2 4 2 16l-2 21l4 -2q-6 8 -6 11t4 7l-4 -2q0 2 2 3t2 3l12 4l-6 17q2 25 20.5 85t38.5 97q20 35 60.5 92t66.5 84q39 37 90.5 65.5t94.5 40.5h-3q45 12 52 13q20 0 49 -31q37 -20 67.5 -69.5t34.5 -96.5q2 -12 2 -41q0 -117 -88 -262q-37 -59 -81 -100 t-101 -82h2q-74 -57 -156 -64q-22 0 -58 24.5t-67 55.5q-20 25 -28 41.5t-8 34.5zM530 827q0 -51 31 -51q23 0 48.5 15.5t62.5 58.5q35 45 56.5 87t41.5 105q10 27 10 66q0 51 -10 57h2q-10 6 -24 6q-33 0 -64 -30q-41 -39 -71.5 -94.5t-67.5 -147.5q-14 -61 -15 -72z" />
<glyph unicode="&#xbb;" horiz-adv-x="1449" d="M344 895q0 20 23 27q6 0 19 2t36 2q74 0 139 -29l37 -20q61 -31 88 -47.5t51 -47.5q66 -37 105 -81t76 -109l49 -86l14 -62q-16 -2 -30.5 -35.5t-18.5 -37.5q-27 -31 -88.5 -87.5t-155.5 -136.5q-82 -61 -113.5 -94t-37.5 -39q-41 -45 -54 -45q-12 -4 -36.5 13.5 t-28.5 21.5q-12 8 -29.5 13.5t-27 8.5t-11.5 13q0 4 6 19.5t19 25.5q6 4 92 82l151 137q92 84 124 121t26 72q-55 123 -279 247q-55 27 -100 74t-45 78zM799 897q0 18 20 25q6 0 20.5 2t37.5 2q74 0 139 -29l37 -20q61 -31 87.5 -47.5t51.5 -47.5q66 -37 104.5 -81 t75.5 -109l49 -86l15 -62q-16 -2 -30.5 -35.5t-19.5 -37.5q-25 -31 -88 -87.5t-157 -136.5q-82 -61 -114 -94t-38 -39q-41 -45 -53 -45q-12 -4 -37 13.5t-29 21.5q-12 8 -29.5 13.5t-26.5 8.5t-11 13q0 4 6 19.5t18 25.5l129 115l117 104q92 84 124 121t26 72 q-55 123 -279 247q-55 27 -100 75t-45 79z" />
<glyph unicode="&#xbc;" horiz-adv-x="1638" d="M274 1038q6 2 99 76q37 31 47 35q2 0 8 6l8 6l25 21h-2q16 16 90 71q-2 -2 35 29l32 27q53 37 108.5 63.5t68.5 24.5q14 -10 43.5 -37t35.5 -43v-8q0 -23 -10 -47q-20 -59 -50 -155.5t-54 -180.5q-23 -80 -27 -92q-4 -4 -4 -15q-16 -45 -29 -104q-35 -84 -51 -183 l-14 -40q-14 -49 -27 -62q-8 -35 -39 -35q-25 0 -59 21q-4 4 -14.5 11t-18.5 22.5t-8 42.5q0 23 6 55l8 39q8 47 17.5 78.5t11.5 40.5q12 6 55 163l25 86q4 14 24 66q4 14 11.5 31.5t11.5 33.5l22 68q-12 -8 -38 -35q-33 -33 -56 -51q-53 -35 -71 -49q-8 -8 -26.5 -25.5 t-35.5 -27.5q-55 -49 -82 -50q-14 0 -24 9q-27 23 -44.5 59.5t-7.5 54.5zM469 39q0 59 63 149q41 45 48 62q18 27 146 172t181 207h4q8 0 16.5 9t12.5 21q6 16 19.5 28.5t23.5 14.5q6 10 14.5 19.5t10.5 15.5q0 4 8 11.5t10 13.5q53 45 317.5 316.5t274.5 291.5q6 18 24 19 q10 0 17 -3q8 4 16 5q8 0 17 -5q4 -6 20.5 -24.5t24.5 -34.5q12 -18 12 -39q0 -18 -8 -33q-10 -27 -25.5 -43t-73.5 -67q-14 -14 -28.5 -26.5t-28.5 -24.5q-47 -47 -90 -86q-207 -197 -209 -205q-20 -16 -43 -45q-37 -35 -91 -86t-56 -58q-2 -2 -7.5 -10t-17.5 -12 q-4 2 -8 -4t-6 -8q0 -18 -68 -82q-150 -180 -245 -299t-111 -158q-14 -35 -40 -57.5t-44 -26.5q-35 4 -57.5 24.5t-22.5 57.5zM1231 397q0 16 6 23v-2l12 33l15 38l12 31l4 10q4 8 4 17q14 33 87 146.5t95 137.5l2 3q12 8 40 18t44 10q14 0 17 -6q20 -18 27.5 -52t0.5 -42 q-2 -8 -34 -62l-15 -12l-6 -6h2q-88 -137 -133 -233q-6 -18 -13 -38t-5 -22h-2q12 -2 28.5 1t48.5 16q18 4 37 6t29 8q8 0 16.5 3t8.5 7h8l2 31l14 39l25 45q4 8 15 33.5t26 52.5l47 127q12 33 25.5 41t22.5 7t11 -1q37 0 41 -39v12q4 -6 19.5 -22.5t23.5 -32.5t4 -29 q-14 -43 -18 -51l-6 -18l-13 -27q-8 -10 -10 -18.5t-4 -12.5q-125 -297 -156 -399q-18 -61 -30.5 -103t-12.5 -63q0 -10 9 -31q2 -37 -33 -67.5t-70 -30.5q-27 0 -37 25v-2q-26 20 -26 77q0 25 6 60q6 49 20 108q8 37 11 47q12 31 18 50.5t8 25.5q-14 -4 -45 -16 q-8 -2 -25.5 -6t-42.5 -4q-39 0 -74.5 16t-49.5 43q-10 14 -20.5 46t-10.5 54z" />
<glyph unicode="&#xbd;" horiz-adv-x="1638" d="M274 1038q6 2 99 76q37 31 47 35q2 0 8 6l8 6l25 21h-2q16 16 90 71q-2 -2 35 29l32 27q53 37 108.5 63.5t68.5 24.5q14 -10 43.5 -37t35.5 -43v-8q0 -23 -10 -47q-20 -59 -50 -155.5t-54 -180.5q-23 -80 -27 -92q-4 -4 -4 -15q-16 -45 -29 -104q-35 -84 -51 -183 l-14 -40q-14 -49 -27 -62q-8 -35 -39 -35q-25 0 -59 21q-4 4 -14.5 11t-18.5 22.5t-8 42.5q0 23 6 55l8 39q8 47 17.5 78.5t11.5 40.5q12 6 55 163l25 86q4 14 24 66q4 14 11.5 31.5t11.5 33.5l22 68q-12 -8 -38 -35q-33 -33 -56 -51q-53 -35 -71 -49q-8 -8 -26.5 -25.5 t-35.5 -27.5q-55 -49 -82 -50q-14 0 -24 9q-27 23 -44.5 59.5t-7.5 54.5zM408 39q0 59 63 149q41 45 47 62q18 27 146.5 172t181.5 207h4q8 0 16 9t13 21q6 16 19 28.5t24 14.5q6 10 14 19.5t10 15.5q0 4 8.5 11.5t10.5 13.5q53 45 317 316.5t274 291.5q6 18 25 19 q10 0 16 -3q8 4 17 5q8 0 16 -5q4 -6 20.5 -25.5t24.5 -33.5q12 -18 13 -39q0 -18 -9 -33q-10 -27 -25.5 -43t-72.5 -67q-14 -14 -28.5 -26.5t-28.5 -24.5q-47 -47 -90 -86q-207 -197 -209 -205q-20 -16 -43 -45q-37 -35 -91.5 -86t-56.5 -58q-2 -2 -7 -10t-17 -12 q-4 2 -8.5 -4t-6.5 -8q0 -18 -67 -82q-150 -180 -245 -299t-112 -158q-14 -35 -39.5 -57.5t-44.5 -26.5q-34 4 -56.5 24.5t-22.5 57.5zM1069 43q0 12 19.5 55t27.5 43q2 -2 21.5 26t21.5 36l21 16l8 4h-4l43 43h-2l26 39q6 6 11.5 18.5t17.5 26.5q35 35 61.5 65.5t28.5 39.5 q2 2 9 10t16 12l39 35q4 10 20 25.5t27 27.5l22 53q2 4 5 8.5t3 6.5t-24 10h2q-27 6 -55 6q-29 0 -47.5 -5t-49.5 -26q-23 -4 -34 -12q-4 -2 -17.5 -9t-34.5 -3l-12 14l-37 49l-24 58l75 33q113 72 189 71q20 0 35 -6q16 -2 28.5 -4t16.5 -4q25 -4 68.5 -38t58.5 -65v3 q10 -16 20 -50t10 -49q0 -47 -59 -131q-14 -18 -90 -103t-94 -104q-18 -12 -69.5 -62t-45.5 -50l6 -4l12 4q35 14 78 22t72 8q16 0 22 -2q6 2 25 2q45 0 92 -14l10 -4q2 -2 9 -2q16 -6 22 -16q6 -12 12 -19q45 -41 45 -68q0 -29 -65 -28q-37 0 -62 4q-41 0 -59 -6 q-8 -4 -45 -4l-14 -2h-13q-43 6 -114 -19q-31 -12 -117 -27.5t-102 -9.5q-11 4 -34.5 30t-31.5 42z" />
<glyph unicode="&#xbe;" horiz-adv-x="1638" d="M250 512q2 33 25.5 55.5t64.5 18.5q66 -14 104 -15q96 0 146 58q35 39 35 82v20q0 20 -23 35q-25 20 -78 40.5t-88 24.5q-4 -2 -10 -2q-12 0 -28.5 11.5t-22.5 15.5q-8 8 -16.5 30.5t-10.5 28.5l-8 13q-4 31 164 133l10 4h-2l12 8q37 25 74 45q59 37 82 58h-2 q10 14 15 19t5 7l-22 6l-47 4q-12 0 -21 -8q-12 4 -58 -5t-48 -15t-48 -13.5t-55 -5.5q-12 2 -29.5 46t-17.5 63q8 12 50 43t69 43q31 8 101.5 12t105.5 2h2q80 -8 137 -58t57 -112q0 -27 -15 -55.5t-52 -67.5l-8 -8l-21 -14q-12 -8 -28.5 -16.5t-34.5 -20.5l-25 -16 l-14 -11l-17 -14l-14 -10l-65 -29l102 -37q29 -14 49.5 -38.5t34.5 -49t22 -35.5q20 -55 21 -90q0 -55 -39 -112.5t-102 -102.5q-41 -27 -110 -46t-122 -23q-94 0 -142 31.5t-44 72.5zM489 39q0 59 64 149q41 45 47 62q18 27 146 172t182 207h4q8 0 16 9t13 21q6 16 19 28.5 t24 14.5q6 10 14 19.5t10 15.5q0 4 8 11.5t11 13.5q53 45 317 316.5t274 291.5q6 18 25 19q10 0 16 -3q8 4 17 5q8 0 16 -5q4 -6 20.5 -24.5t24.5 -34.5q12 -18 12 -39q0 -18 -8 -33q-10 -27 -25.5 -43t-72.5 -67q-14 -14 -28.5 -26.5t-28.5 -24.5q-47 -47 -90 -86 q-207 -197 -209 -205q-20 -16 -43 -45q-37 -35 -91.5 -86t-56.5 -58q-2 -2 -7 -10t-17 -12q-4 2 -8.5 -4t-6.5 -8q0 -18 -67 -82q-150 -180 -245 -299t-112 -158q-14 -35 -39.5 -57.5t-44.5 -26.5q-34 4 -57 24.5t-23 57.5zM1169 397q0 16 7 23v-2l12 33l14 38l12 31l5 10 q4 8 4 17q14 33 86.5 146.5t95.5 137.5l2 3q12 8 40 18t44 10q14 0 16 -6q20 -18 27.5 -52t1.5 -42q-2 -8 -35 -62l-14 -12l-6 -6h2q-88 -137 -133 -233q-6 -18 -13.5 -38t-5.5 -22h-2q12 -2 28.5 1t49.5 16q18 4 36.5 6t29.5 8q8 0 16 3t8 7h8l2 31l15 39l24 45 q4 8 15.5 33.5t25.5 52.5l47 127q12 33 25.5 41t23 7t11.5 -1q37 0 41 -39v12q4 -6 19 -22.5t23.5 -32.5t4.5 -29q-14 -43 -19 -51l-6 -18l-12 -27q-8 -10 -10 -18.5t-4 -12.5q-125 -297 -156 -399q-18 -61 -30.5 -103t-12.5 -63q0 -10 8 -31q2 -37 -32.5 -67.5t-69.5 -30.5 q-27 0 -37 25v-2q-27 20 -27 77q0 25 6 60q6 49 21 108q8 37 10 47q12 31 18.5 50.5l8.5 25.5q-14 -4 -45 -16q-8 -2 -25.5 -6t-42.5 -4q-39 0 -75 16t-50 43q-10 14 -20.5 46t-10.5 54z" />
<glyph unicode="&#xbf;" horiz-adv-x="765" d="M12 -262q0 102 39 222t101 187l45 41q100 90 127 121q66 37 120 112t82 157q23 45 47.5 63t55.5 18q31 -2 46 -24.5t15 -50.5q0 -2 3 -16.5t3 -28.5q0 -10 -2 -17q0 -10 -18 -51q-14 -35 -21 -51q-23 -39 -68.5 -91.5t-80.5 -76.5l-35 -25q0 -8 -28.5 -30.5t-49.5 -32.5 q-8 -6 -28.5 -20.5t-38.5 -30.5q-45 -45 -67.5 -85t-33 -81t-30.5 -140q-2 -66 6 -85t35 -39q29 -4 43 -5q137 0 213 166q14 37 14 54q0 10 -6 26q0 12 -5.5 36t-5.5 36q4 2 27 8t47 6q41 0 66 -22q4 -6 15 -21.5t20 -27.5q8 -12 10 -24.5t1 -26t-1 -27.5q-25 -78 -74 -154 t-119 -110q-35 -14 -70.5 -35t-45.5 -27q-4 0 -20.5 -1t-47.5 -5h-10h-13q-20 0 -20 8h-59q-37 10 -92.5 46t-77.5 61q-12 39 -13 94zM586 918q0 57 90 104q39 16 65 16q31 0 70 -28q31 -31 31 -62q0 -51 -76 -102q-45 -29 -66 -29q-14 0 -53 17q-61 41 -61 84z" />
<glyph unicode="&#xc0;" horiz-adv-x="1028" d="M76 -18q0 20 17.5 58t60.5 120q12 27 47 94q88 168 88 248q-2 4 -2 12q0 20 33 37q6 6 44 34.5t60 65.5q27 61 68 136t141 245q98 180 209 326q20 29 46 45t44 16q63 0 130 -49t87 -98q8 -14 8 -62q0 -63 -14 -215q-4 -27 -8 -84q-6 -92 -19 -196q-23 -229 -33 -358.5 t-10 -241.5q0 -57 2 -84v-15l-2 -47q-12 -12 -49 -12q-41 0 -82 13.5t-45 31.5q-2 2 -6 4t-4 19l2 45l6 114l10 314l-26 -2q-41 0 -173 -16.5t-167 -26.5q-18 0 -45 -25t-47 -63q-6 -20 -29 -58.5t-23 -44.5q-12 -8 -21 -21.5t-11 -17.5q0 -23 -40 -116t-79 -152l-55 -78 l-72 55q-23 12 -32 22.5t-9 27.5zM606 637q15 2 58 9t76 9q98 25 135 25q20 0 28 -4q6 -8 13.5 -11t9.5 -3q4 16 32.5 223t28.5 254q0 33 -2 56.5t-4 29.5q-18 0 -83.5 -97.5t-127.5 -220.5q-47 -84 -65 -84q-14 -14 -61.5 -96t-37.5 -90zM960 1733q0 23 17.5 43t40 32.5 t28.5 12.5q29 0 47 -27q23 -18 68 -126.5t45 -135.5q0 -16 -39 -52t-55 -40l-8 -2q-13 0 -21 15t-12 46q-6 20 -49 96q-29 49 -45.5 82t-16.5 56z" />
<glyph unicode="&#xc1;" horiz-adv-x="1028" d="M76 -18q0 20 17.5 58t60.5 120q12 27 47 94q88 168 88 248q-2 4 -2 12q0 20 33 37q6 6 44 34.5t60 65.5q27 61 68 136t141 245q98 180 209 326q20 29 46 45t44 16q63 0 130 -49t87 -98q8 -14 8 -62q0 -63 -14 -215q-4 -27 -8 -84q-6 -92 -19 -196q-23 -229 -33 -358.5 t-10 -241.5q0 -57 2 -84v-15l-2 -47q-12 -12 -49 -12q-41 0 -82 13.5t-45 31.5q-2 2 -6 4t-4 19l2 45l6 114l10 314l-26 -2q-41 0 -173 -16.5t-167 -26.5q-18 0 -45 -25t-47 -63q-6 -20 -29 -58.5t-23 -44.5q-12 -8 -21 -21.5t-11 -17.5q0 -23 -40 -116t-79 -152l-55 -78 l-72 55q-23 12 -32 22.5t-9 27.5zM606 637q15 2 58 9t76 9q98 25 135 25q20 0 28 -4q6 -8 13.5 -11t9.5 -3q4 16 32.5 223t28.5 254q0 33 -2 56.5t-4 29.5q-18 0 -83.5 -97.5t-127.5 -220.5q-47 -84 -65 -84q-14 -14 -61.5 -96t-37.5 -90zM954 1550l2 21q0 18 86 108 t115 101q16 10 31 12q27 0 52 -28.5t25 -75.5q0 -20 -25.5 -46t-76.5 -67q-8 -6 -42 -35t-48 -49q-27 -39 -57 -39q-62 0 -62 98z" />
<glyph unicode="&#xc2;" horiz-adv-x="1028" d="M76 -18q0 20 17.5 58t60.5 120q12 27 47 94q88 168 88 248q-2 4 -2 12q0 20 33 37q6 6 44 34.5t60 65.5q27 61 68 136t141 245q98 180 209 326q20 29 46 45t44 16q63 0 130 -49t87 -98q8 -14 8 -62q0 -63 -14 -215q-4 -27 -8 -84q-6 -92 -19 -196q-23 -229 -33 -358.5 t-10 -241.5q0 -57 2 -84v-15l-2 -47q-12 -12 -49 -12q-41 0 -82 13.5t-45 31.5q-2 2 -6 4t-4 19l2 45l6 114l10 314l-26 -2q-41 0 -173 -16.5t-167 -26.5q-18 0 -45 -25t-47 -63q-6 -20 -29 -58.5t-23 -44.5q-12 -8 -21 -21.5t-11 -17.5q0 -23 -40 -116t-79 -152l-55 -78 l-72 55q-23 12 -32 22.5t-9 27.5zM606 637q15 2 58 9t76 9q98 25 135 25q20 0 28 -4q6 -8 13.5 -11t9.5 -3q4 16 32.5 223t28.5 254q0 33 -2 56.5t-4 29.5q-18 0 -83.5 -97.5t-127.5 -220.5q-47 -84 -65 -84q-14 -14 -61.5 -96t-37.5 -90zM768 1530q0 23 16 45q16 20 92 87 t115 87q27 20 53 20q31 0 49 -24q33 -27 86.5 -81t75.5 -79q18 -20 18 -47q0 -29 -20 -52.5t-47 -23.5q-33 0 -59 33q-41 49 -111 109q-35 -20 -85 -55.5t-79 -59.5q-24 -25 -49 -25q-23 0 -39 20.5t-16 45.5z" />
<glyph unicode="&#xc3;" horiz-adv-x="1028" d="M76 -18q0 20 17.5 58t60.5 120q12 27 47 94q88 168 88 248q-2 4 -2 12q0 20 33 37q6 6 44 34.5t60 65.5q27 61 68 136t141 245q98 180 209 326q20 29 46 45t44 16q63 0 130 -49t87 -98q8 -14 8 -62q0 -63 -14 -215q-4 -27 -8 -84q-6 -92 -19 -196q-23 -229 -33 -358.5 t-10 -241.5q0 -57 2 -84v-15l-2 -47q-12 -12 -49 -12q-41 0 -82 13.5t-45 31.5q-2 2 -6 4t-4 19l2 45l6 114l10 314l-26 -2q-41 0 -173 -16.5t-167 -26.5q-18 0 -45 -25t-47 -63q-6 -20 -29 -58.5t-23 -44.5q-12 -8 -21 -21.5t-11 -17.5q0 -23 -40 -116t-79 -152l-55 -78 l-72 55q-23 12 -32 22.5t-9 27.5zM606 637q15 2 58 9t76 9q98 25 135 25q20 0 28 -4q6 -8 13.5 -11t9.5 -3q4 16 32.5 223t28.5 254q0 33 -2 56.5t-4 29.5q-18 0 -83.5 -97.5t-127.5 -220.5q-47 -84 -65 -84q-14 -14 -61.5 -96t-37.5 -90zM758 1585q0 27 35.5 79t97.5 83 q25 8 51 8q59 0 94 -33q43 -41 68.5 -57t50.5 -16q10 0 35 8q27 8 78 33q39 20 71 34q20 8 41 -22.5t17 -50.5q0 -16 -12.5 -40t-45.5 -40q-8 -4 -51 -29q-49 -29 -75.5 -42t-37.5 -13q-32 0 -54.5 10t-44 25.5t-32.5 21.5q-8 4 -28.5 23.5t-41 34t-34.5 14.5t-24.5 -8.5 t-24.5 -26.5q-8 -12 -19.5 -23.5t-25.5 -13.5q-2 -12 -12.5 -26.5t-14.5 -4.5q-29 4 -45 25t-16 47z" />
<glyph unicode="&#xc4;" horiz-adv-x="1028" d="M76 -18q0 20 17.5 58t60.5 120q12 27 47 94q88 168 88 248q-2 4 -2 12q0 20 33 37q6 6 44 34.5t60 65.5q27 61 68 136t141 245q98 180 209 326q20 29 46 45t44 16q63 0 130 -49t87 -98q8 -14 8 -62q0 -63 -14 -215q-4 -27 -8 -84q-6 -92 -19 -196q-23 -229 -33 -358.5 t-10 -241.5q0 -57 2 -84v-15l-2 -47q-12 -12 -49 -12q-41 0 -82 13.5t-45 31.5q-2 2 -6 4t-4 19l2 45l6 114l10 314l-26 -2q-41 0 -173 -16.5t-167 -26.5q-18 0 -45 -25t-47 -63q-6 -20 -29 -58.5t-23 -44.5q-12 -8 -21 -21.5t-11 -17.5q0 -23 -40 -116t-79 -152l-55 -78 l-72 55q-23 12 -32 22.5t-9 27.5zM606 637q15 2 58 9t76 9q98 25 135 25q20 0 28 -4q6 -8 13.5 -11t9.5 -3q4 16 32.5 223t28.5 254q0 33 -2 56.5t-4 29.5q-18 0 -83.5 -97.5t-127.5 -220.5q-47 -84 -65 -84q-14 -14 -61.5 -96t-37.5 -90zM827 1616q6 23 22.5 58.5 t43.5 58.5q6 4 16 16t21 14q18 12 34 13q41 0 76 -62q16 -37 17 -57q0 -23 -13.5 -46.5t-44.5 -58.5q-43 -57 -82 -57q-27 0 -51 25q-18 16 -30.5 50t-8.5 46zM1145 1616q6 23 22.5 58.5t42.5 58.5q6 4 16.5 16t20.5 14q18 12 35 13q41 0 76 -62q16 -37 16 -57 q0 -23 -13.5 -46.5t-43.5 -58.5q-43 -57 -82 -57q-27 0 -51 25q-19 16 -31 50t-8 46z" />
<glyph unicode="&#xc5;" horiz-adv-x="1028" d="M76 -18q0 20 17.5 58t60.5 120q12 27 47 94q88 168 88 248q-2 4 -2 12q0 20 33 37q6 6 44 34.5t60 65.5q27 61 68 136t141 245q98 180 209 326q20 29 46 45t44 16q63 0 130 -49t87 -98q8 -14 8 -62q0 -63 -14 -215q-4 -27 -8 -84q-6 -92 -19 -196q-23 -229 -33 -358.5 t-10 -241.5q0 -57 2 -84v-15l-2 -47q-12 -12 -49 -12q-41 0 -82 13.5t-45 31.5q-2 2 -6 4t-4 19l2 45l6 114l10 314l-26 -2q-41 0 -173 -16.5t-167 -26.5q-18 0 -45 -25t-47 -63q-6 -20 -29 -58.5t-23 -44.5q-12 -8 -21 -21.5t-11 -17.5q0 -23 -40 -116t-79 -152l-55 -78 l-72 55q-23 12 -32 22.5t-9 27.5zM606 637q15 2 58 9t76 9q98 25 135 25q20 0 28 -4q6 -8 13.5 -11t9.5 -3q4 16 32.5 223t28.5 254q0 33 -2 56.5t-4 29.5q-18 0 -83.5 -97.5t-127.5 -220.5q-47 -84 -65 -84q-14 -14 -61.5 -96t-37.5 -90zM930 1565q0 47 20.5 99t57 89 t83.5 37q80 0 129.5 -36t49.5 -101q0 -94 -51.5 -172t-131.5 -78q-139 0 -157 162zM1042 1581q0 -18 15.5 -38.5t27.5 -20.5q33 0 51.5 20.5t18.5 61.5q-2 29 -11.5 46t-33.5 17q-35 0 -51.5 -20.5t-16.5 -65.5z" />
<glyph unicode="&#xc6;" horiz-adv-x="1605" d="M113 45q0 41 43 92q12 14 21 26.5t11 16.5q2 12 78 130t94 126q25 25 25 41q0 18 -20 37q-14 8 -15 33q0 31 23.5 55.5t70.5 22.5q12 6 21.5 10t15.5 7t6 9q2 12 44 76t73 96q29 57 46.5 82t23.5 33q8 6 23.5 28.5t23.5 34.5l35 50q33 29 65.5 68.5t42.5 49.5 q12 20 42 55.5t42 49.5q51 47 129 47q74 0 203 -43q43 18 116.5 35.5t131.5 21.5q12 8 55 12.5t96 4.5q37 0 103 -4q33 0 56.5 -7.5t41.5 -16.5t27 -13q4 -4 27.5 -25.5t23.5 -44.5q0 -20 -27 -35q-6 -6 -66.5 -10t-129.5 -4q-74 0 -162 -18q-31 -6 -47 -7q-25 -8 -60.5 -10 t-46.5 -2q-8 0 -47 -77t-41 -93q0 -18 -12 -38.5t-43 -63.5q-27 -37 -27 -70q0 -20 13 -25q61 10 148 19.5t128 9.5q23 6 37 6q29 0 53 -14q33 -6 33 -43q0 -16 -7 -30.5t-18 -18.5q-18 -18 -121.5 -48t-215 -52.5t-125.5 -18.5q-6 14 -13 14q-20 0 -51 -135 q-37 -82 -45 -107.5t-25 -117.5q-8 -37 -8 -51q0 -80 94 -123q35 -6 66 -6q55 0 151 24q8 4 125 70q6 0 32 9t30 9q16 23 41 23q6 0 26.5 -20.5t37 -48t16.5 -56.5q0 -20 -60.5 -50t-179.5 -77q-86 -37 -120 -47t-99 -10q-96 0 -156.5 11t-107.5 48q-98 74 -99 219 q0 61 23 152q8 47 22 90h-4q-12 -2 -53 -2q-57 0 -262 12l-33 -43q-43 -51 -67 -100q-82 -154 -131 -211q-37 -57 -66 -84t-41 -27h-10q-14 0 -24.5 3t-22.5 16q-47 25 -47 63zM672 604q0 -14 8 -16q12 2 53 6t86 2q54 4 72 4l41 -2q6 12 12 18q8 6 25 56q0 4 2 18.5 t10 32.5q31 51 31 68q2 6 16 24.5t23 42.5q96 172 118 217q-16 16 -84 17q-20 0 -34.5 -1t-18.5 -1q-6 10 -55 -41.5t-78 -90.5q-12 -12 -41 -57q-27 -43 -59 -88q-127 -168 -127 -209z" />
<glyph unicode="&#xc7;" horiz-adv-x="987" d="M203 -428q0 23 13.5 37.5t39.5 14.5q23 0 80 -21q61 -20 90 -20q37 0 51 28q6 8 7 19q0 14 -11.5 31.5t-21.5 27.5t-14 17q-25 29 -64 65q-20 33 -20 53q0 68 165 152l115 -62q-57 -29 -86 -50t-29 -46q2 -4 41 -53q23 -25 42.5 -52.5t25.5 -52.5q4 -25 4 -34 q0 -68 -54 -119t-118 -51q-45 0 -110.5 15t-96.5 28q-20 8 -34.5 29.5t-14.5 43.5zM234 256q0 121 14 206t49 173l19 43q33 84 47 110q35 80 123 207q82 123 130 183.5t99 104.5t149 112q59 43 146 43q68 0 124 -33t85 -102q20 -35 20 -97q0 -98 -47 -212.5t-113 -174.5 q-14 -14 -38 -14q-25 0 -53.5 14.5t-51.5 34.5q-18 35 -20 41t8 8q18 23 54 87.5t48 101.5l13 57q12 53 12 70q0 18 -15 32q-6 6 -16 6q-16 0 -57 -20q-47 -20 -111.5 -82.5t-128.5 -148.5q-94 -123 -144 -203t-77 -162l-23 -53q2 -8 -6 -41t-18 -53q-29 -119 -29 -215 q0 -76 15.5 -131.5t44.5 -81.5q16 -14 47 -15q33 0 74.5 15.5t89 36t65.5 28.5q47 18 89 43t63 45q53 39 86 39q27 8 42 -16.5t15 -67.5q0 -29 -39 -68.5t-92 -70.5q-23 -23 -100 -53q-66 -47 -153 -84t-159 -37q-16 0 -41 4q-63 22 -121.5 65t-85.5 109q-33 92 -32 217z " />
<glyph unicode="&#xc8;" horiz-adv-x="1122" d="M197 268q0 61 21.5 150.5t43.5 138.5q45 109 199 348q8 8 11 11.5t2 4.5l-1 1q0 14 60 127q35 37 34 63q0 14 -6 23q-6 8 16.5 35.5t62.5 61.5t85 58q55 43 109 43q16 0 27.5 -5t13.5 -15q0 -12 82 8q37 8 53 10q8 10 42 17.5t95 15.5q33 -2 81 0t62 4q14 4 42 -18.5 t44 -57.5q4 -12 5 -18q0 -31 -39 -52.5t-113 -29.5q-76 -10 -133 -20.5t-143 -28.5l-43 -8q-63 -10 -94 -26.5t-66 -72.5q-14 -10 -37 -52t-45 -87l-41 -55q-47 -63 -58.5 -83t-5.5 -28q8 -2 30 -6t36 -6q18 10 51 14t47 8l45 13q127 33 186.5 47t88.5 18q10 8 24 8 q23 0 44.5 -21.5t31.5 -49.5q8 -29 8 -37q0 -35 -41 -52.5t-164 -45.5q-178 -43 -223 -56q-133 -39 -196 -39q-53 0 -52 35q-18 10 -42.5 -37t-42 -116.5t-17.5 -120.5q0 -27 6 -45q18 -49 55 -83t103 -53q14 -2 35.5 -4t50.5 -2q41 0 82 17q160 27 225 73q10 4 19.5 14.5 t17.5 10.5l-2 -4q0 -2 12 9t27 24q57 49 127 49q25 0 42 -7t19 -14q12 -20 -12.5 -65t-76.5 -94.5t-116 -85.5q-100 -53 -224 -79t-238 -28q-50 4 -99 30.5t-90 55.5t-55 39q-35 35 -53.5 75t-30.5 105q-4 25 -4 43zM1005 1733q0 23 17.5 43t40 32.5t28.5 12.5q29 0 47 -27 q23 -18 68 -126.5t45 -135.5q0 -16 -39 -52t-55 -40l-8 -2q-13 0 -21 15t-12 46q-6 20 -49 96q-29 49 -45.5 82t-16.5 56z" />
<glyph unicode="&#xc9;" horiz-adv-x="1122" d="M197 268q0 61 21.5 150.5t43.5 138.5q45 109 199 348q8 8 11 11.5t2 4.5l-1 1q0 14 60 127q35 37 34 63q0 14 -6 23q-6 8 16.5 35.5t62.5 61.5t85 58q55 43 109 43q16 0 27.5 -5t13.5 -15q0 -12 82 8q37 8 53 10q8 10 42 17.5t95 15.5q33 -2 81 0t62 4q14 4 42 -18.5 t44 -57.5q4 -12 5 -18q0 -31 -39 -52.5t-113 -29.5q-76 -10 -133 -20.5t-143 -28.5l-43 -8q-63 -10 -94 -26.5t-66 -72.5q-14 -10 -37 -52t-45 -87l-41 -55q-47 -63 -58.5 -83t-5.5 -28q8 -2 30 -6t36 -6q18 10 51 14t47 8l45 13q127 33 186.5 47t88.5 18q10 8 24 8 q23 0 44.5 -21.5t31.5 -49.5q8 -29 8 -37q0 -35 -41 -52.5t-164 -45.5q-178 -43 -223 -56q-133 -39 -196 -39q-53 0 -52 35q-18 10 -42.5 -37t-42 -116.5t-17.5 -120.5q0 -27 6 -45q18 -49 55 -83t103 -53q14 -2 35.5 -4t50.5 -2q41 0 82 17q160 27 225 73q10 4 19.5 14.5 t17.5 10.5l-2 -4q0 -2 12 9t27 24q57 49 127 49q25 0 42 -7t19 -14q12 -20 -12.5 -65t-76.5 -94.5t-116 -85.5q-100 -53 -224 -79t-238 -28q-50 4 -99 30.5t-90 55.5t-55 39q-35 35 -53.5 75t-30.5 105q-4 25 -4 43zM999 1550l2 21q0 18 86 108t115 101q16 10 31 12 q27 0 52 -28.5t25 -75.5q0 -20 -25.5 -46t-76.5 -67q-8 -6 -42 -35t-48 -49q-27 -39 -57 -39q-62 0 -62 98z" />
<glyph unicode="&#xca;" horiz-adv-x="1122" d="M197 268q0 61 21.5 150.5t43.5 138.5q45 109 199 348q8 8 11 11.5t2 4.5l-1 1q0 14 60 127q35 37 34 63q0 14 -6 23q-6 8 16.5 35.5t62.5 61.5t85 58q55 43 109 43q16 0 27.5 -5t13.5 -15q0 -12 82 8q37 8 53 10q8 10 42 17.5t95 15.5q33 -2 81 0t62 4q14 4 42 -18.5 t44 -57.5q4 -12 5 -18q0 -31 -39 -52.5t-113 -29.5q-76 -10 -133 -20.5t-143 -28.5l-43 -8q-63 -10 -94 -26.5t-66 -72.5q-14 -10 -37 -52t-45 -87l-41 -55q-47 -63 -58.5 -83t-5.5 -28q8 -2 30 -6t36 -6q18 10 51 14t47 8l45 13q127 33 186.5 47t88.5 18q10 8 24 8 q23 0 44.5 -21.5t31.5 -49.5q8 -29 8 -37q0 -35 -41 -52.5t-164 -45.5q-178 -43 -223 -56q-133 -39 -196 -39q-53 0 -52 35q-18 10 -42.5 -37t-42 -116.5t-17.5 -120.5q0 -27 6 -45q18 -49 55 -83t103 -53q14 -2 35.5 -4t50.5 -2q41 0 82 17q160 27 225 73q10 4 19.5 14.5 t17.5 10.5l-2 -4q0 -2 12 9t27 24q57 49 127 49q25 0 42 -7t19 -14q12 -20 -12.5 -65t-76.5 -94.5t-116 -85.5q-100 -53 -224 -79t-238 -28q-50 4 -99 30.5t-90 55.5t-55 39q-35 35 -53.5 75t-30.5 105q-4 25 -4 43zM895 1530q0 23 16 45q16 20 92 87t115 87q27 20 53 20 q31 0 49 -24q33 -27 86.5 -81t75.5 -79q18 -20 18 -47q0 -29 -20 -52.5t-47 -23.5q-33 0 -59 33q-41 49 -111 109q-35 -20 -85 -55.5t-79 -59.5q-24 -25 -49 -25q-23 0 -39 20.5t-16 45.5z" />
<glyph unicode="&#xcb;" horiz-adv-x="1122" d="M197 268q0 61 21.5 150.5t43.5 138.5q45 109 199 348q8 8 11 11.5t2 4.5l-1 1q0 14 60 127q35 37 34 63q0 14 -6 23q-6 8 16.5 35.5t62.5 61.5t85 58q55 43 109 43q16 0 27.5 -5t13.5 -15q0 -12 82 8q37 8 53 10q8 10 42 17.5t95 15.5q33 -2 81 0t62 4q14 4 42 -18.5 t44 -57.5q4 -12 5 -18q0 -31 -39 -52.5t-113 -29.5q-76 -10 -133 -20.5t-143 -28.5l-43 -8q-63 -10 -94 -26.5t-66 -72.5q-14 -10 -37 -52t-45 -87l-41 -55q-47 -63 -58.5 -83t-5.5 -28q8 -2 30 -6t36 -6q18 10 51 14t47 8l45 13q127 33 186.5 47t88.5 18q10 8 24 8 q23 0 44.5 -21.5t31.5 -49.5q8 -29 8 -37q0 -35 -41 -52.5t-164 -45.5q-178 -43 -223 -56q-133 -39 -196 -39q-53 0 -52 35q-18 10 -42.5 -37t-42 -116.5t-17.5 -120.5q0 -27 6 -45q18 -49 55 -83t103 -53q14 -2 35.5 -4t50.5 -2q41 0 82 17q160 27 225 73q10 4 19.5 14.5 t17.5 10.5l-2 -4q0 -2 12 9t27 24q57 49 127 49q25 0 42 -7t19 -14q12 -20 -12.5 -65t-76.5 -94.5t-116 -85.5q-100 -53 -224 -79t-238 -28q-50 4 -99 30.5t-90 55.5t-55 39q-35 35 -53.5 75t-30.5 105q-4 25 -4 43zM872 1616q6 23 22.5 58.5t43.5 58.5q6 4 16 16t21 14 q18 12 34 13q41 0 76 -62q16 -37 17 -57q0 -23 -13.5 -46.5t-44.5 -58.5q-43 -57 -82 -57q-27 0 -51 25q-18 16 -30.5 50t-8.5 46zM1190 1616q6 23 22.5 58.5t42.5 58.5q6 4 16.5 16t20.5 14q18 12 35 13q41 0 76 -62q16 -37 16 -57q0 -23 -13.5 -46.5t-43.5 -58.5 q-43 -57 -82 -57q-27 0 -51 25q-19 16 -31 50t-8 46z" />
<glyph unicode="&#xcc;" horiz-adv-x="819" d="M84 8q2 27 60.5 54.5t140.5 29.5l86 2l20 41q6 12 8.5 25.5t6.5 23.5l18 74l31 98q61 186 80 262q10 25 32.5 99t34.5 121q94 289 78 292q-20 2 -108 -7t-99 -15q-10 -14 -34.5 4t-30.5 41q-2 6 -2 21q0 29 14 36q20 18 105 41t159 33q35 4 71 15.5t54 27.5q43 14 72 12 q14 -10 69 -10q47 0 72 2q53 4 74 4q123 0 147 -57q4 -20 4 -31q0 -27 -15 -43t-42 -14q-37 -10 -137 -12q-135 -12 -146 -29q-10 -10 -15 -18.5t-11 -16.5q2 -18 -37 -133l-37 -109q-57 -178 -74 -219q-14 -35 -20 -71q-16 -55 -29.5 -105.5t-27.5 -95.5l-80 -285l123 10 q121 12 145 13q20 0 26.5 -4t8.5 -13.5t4 -13.5q18 -25 18 -47q0 -37 -49 -59.5t-135 -20.5q-92 -4 -149.5 -7t-72 -9t-14.5 -21q2 -18 -12 -29.5t-37 -11.5q-39 0 -69 33q-15 21 -48.5 28t-107.5 3q-43 -6 -87 14.5t-36 46.5zM798 1733q0 23 17.5 43t40 32.5t28.5 12.5 q29 0 47 -27q23 -18 68 -126.5t45 -135.5q0 -16 -39 -52t-55 -40l-8 -2q-13 0 -21 15t-12 46q-6 20 -49 96q-29 49 -45.5 82t-16.5 56z" />
<glyph unicode="&#xcd;" horiz-adv-x="819" d="M84 8q2 27 60.5 54.5t140.5 29.5l86 2l20 41q6 12 8.5 25.5t6.5 23.5l18 74l31 98q61 186 80 262q10 25 32.5 99t34.5 121q94 289 78 292q-20 2 -108 -7t-99 -15q-10 -14 -34.5 4t-30.5 41q-2 6 -2 21q0 29 14 36q20 18 105 41t159 33q35 4 71 15.5t54 27.5q43 14 72 12 q14 -10 69 -10q47 0 72 2q53 4 74 4q123 0 147 -57q4 -20 4 -31q0 -27 -15 -43t-42 -14q-37 -10 -137 -12q-135 -12 -146 -29q-10 -10 -15 -18.5t-11 -16.5q2 -18 -37 -133l-37 -109q-57 -178 -74 -219q-14 -35 -20 -71q-16 -55 -29.5 -105.5t-27.5 -95.5l-80 -285l123 10 q121 12 145 13q20 0 26.5 -4t8.5 -13.5t4 -13.5q18 -25 18 -47q0 -37 -49 -59.5t-135 -20.5q-92 -4 -149.5 -7t-72 -9t-14.5 -21q2 -18 -12 -29.5t-37 -11.5q-39 0 -69 33q-15 21 -48.5 28t-107.5 3q-43 -6 -87 14.5t-36 46.5zM792 1550l2 21q0 18 86 108t115 101 q16 10 31 12q27 0 52 -28.5t25 -75.5q0 -20 -25.5 -46t-76.5 -67q-8 -6 -42 -35t-48 -49q-27 -39 -57 -39q-62 0 -62 98z" />
<glyph unicode="&#xce;" horiz-adv-x="819" d="M84 8q2 27 60.5 54.5t140.5 29.5l86 2l20 41q6 12 8.5 25.5t6.5 23.5l18 74l31 98q61 186 80 262q10 25 32.5 99t34.5 121q94 289 78 292q-20 2 -108 -7t-99 -15q-10 -14 -34.5 4t-30.5 41q-2 6 -2 21q0 29 14 36q20 18 105 41t159 33q35 4 71 15.5t54 27.5q43 14 72 12 q14 -10 69 -10q47 0 72 2q53 4 74 4q123 0 147 -57q4 -20 4 -31q0 -27 -15 -43t-42 -14q-37 -10 -137 -12q-135 -12 -146 -29q-10 -10 -15 -18.5t-11 -16.5q2 -18 -37 -133l-37 -109q-57 -178 -74 -219q-14 -35 -20 -71q-16 -55 -29.5 -105.5t-27.5 -95.5l-80 -285l123 10 q121 12 145 13q20 0 26.5 -4t8.5 -13.5t4 -13.5q18 -25 18 -47q0 -37 -49 -59.5t-135 -20.5q-92 -4 -149.5 -7t-72 -9t-14.5 -21q2 -18 -12 -29.5t-37 -11.5q-39 0 -69 33q-15 21 -48.5 28t-107.5 3q-43 -6 -87 14.5t-36 46.5zM688 1530q0 23 16 45q16 20 92 87t115 87 q27 20 53 20q31 0 49 -24q33 -27 86.5 -81t75.5 -79q18 -20 18 -47q0 -29 -20 -52.5t-47 -23.5q-33 0 -59 33q-41 49 -111 109q-35 -20 -85 -55.5t-79 -59.5q-24 -25 -49 -25q-23 0 -39 20.5t-16 45.5z" />
<glyph unicode="&#xcf;" horiz-adv-x="837" d="M92 8q2 27 60.5 54.5t140.5 29.5l86 2l20 41q6 12 8.5 25.5t6.5 23.5l18 74l31 98q61 186 80 262q10 25 32.5 99t34.5 121q94 289 78 292q-20 2 -108 -7t-99 -15q-10 -14 -34.5 4t-30.5 41q-2 6 -2 21q0 29 14 36q20 18 105 41t159 33q35 4 71 15.5t54 27.5q43 14 72 12 q14 -10 69 -10q47 0 72 2q53 4 74 4q123 0 147 -57q4 -20 4 -31q0 -27 -15 -43t-42 -14q-37 -10 -137 -12q-135 -12 -146 -29q-10 -10 -15 -18.5t-11 -16.5q2 -18 -37 -133l-37 -109q-57 -178 -74 -219q-14 -35 -20 -71q-16 -55 -29.5 -105.5t-27.5 -95.5l-80 -285l123 10 q121 12 145 13q20 0 26.5 -4t8.5 -13.5t4 -13.5q18 -25 18 -47q0 -37 -49 -59.5t-135 -20.5q-92 -4 -149.5 -7t-72 -9t-14.5 -21q2 -18 -12 -29.5t-37 -11.5q-39 0 -69 33q-15 21 -48.5 28t-107.5 3q-43 -6 -87 14.5t-36 46.5zM665 1616q6 23 22.5 58.5t43.5 58.5q6 4 16 16 t21 14q18 12 34 13q41 0 76 -62q16 -37 17 -57q0 -23 -13.5 -46.5t-44.5 -58.5q-43 -57 -82 -57q-27 0 -51 25q-18 16 -30.5 50t-8.5 46zM983 1616q6 23 22.5 58.5t42.5 58.5q6 4 16.5 16t20.5 14q18 12 35 13q41 0 76 -62q16 -37 16 -57q0 -23 -13.5 -46.5t-43.5 -58.5 q-43 -57 -82 -57q-27 0 -51 25q-19 16 -31 50t-8 46z" />
<glyph unicode="&#xd0;" horiz-adv-x="1183" d="M96 -27q0 35 15.5 58.5t48.5 29.5h6q8 0 33 -8q0 59 14 109q18 80 113 352l24 72q-29 0 -59 10q-51 0 -74 39q-10 16 -10 24q0 20 27.5 31.5t87.5 18.5l71 14q23 76 50.5 155.5t39.5 100.5q6 16 13 45q31 104 61 180l14 68l-22 10q-18 -6 -33 -6q-10 0 -22 6 q-18 -6 -50 20.5t-36 47.5q-4 6 -5.5 18t-1.5 16q2 14 49.5 32t117 30t132.5 12q29 0 43 -2q51 -4 127 -23.5t138 -41.5q68 -25 144.5 -86.5t137 -143.5t80.5 -168q6 -27 12.5 -74t6.5 -83q0 -43 -9 -54q-6 -8 -6 -20t8 -14q-4 -12 -14 -45t-22 -70q-6 -74 -48.5 -181.5 t-78.5 -170.5q-10 0 -16.5 -3.5t1.5 -5.5q0 -10 -22 -39q-6 -4 -25.5 -29.5t-28.5 -31.5q-2 -14 -12 -23.5t-18 -9.5l-3 -1t-3 -7q-37 -53 -146.5 -146.5t-185.5 -123.5q-20 -14 -48 -26.5t-38 -16.5q-14 -12 -154 -25q-20 -2 -44.5 -4t-49.5 -6q-12 -2 -41 -2 q-66 0 -172 26q-27 8 -39 18.5t-27.5 30t-23.5 29.5q-27 39 -27 88zM360 -31q37 -16 72 -12q12 2 33.5 4t32.5 2q61 4 90.5 9t50.5 22q90 61 146.5 105t68.5 57q4 10 43 24l57 60q51 55 66 65q2 14 7 29.5t5 23.5q25 27 74 128.5t68 175.5q18 85 18 159q0 211 -152 340 q-43 37 -140 80t-112 39q-10 -2 -54 -121t-93 -260l-57 -162q88 -2 133 -41q20 -20 20 -43q0 -25 -18.5 -39t-48.5 -10l-133 -8l-21 -59q-23 -68 -22 -78q-59 -92 -88 -312q-4 -12 -23 -94q-14 -68 -21 -65z" />
<glyph unicode="&#xd1;" horiz-adv-x="1159" d="M60 -63q0 33 14 86q18 72 49 137q16 39 32.5 86t26.5 102q41 94 73 183.5t40 113.5q2 14 68 156l35 73q49 137 91 221.5t105 180.5q33 53 98 53q39 0 70 -18.5t41 -50.5q18 -43 27.5 -94.5t13.5 -182.5q2 -41 2 -119q4 -172 10 -261t27 -163q12 -82 14 -108 q12 -96 22.5 -149.5t20.5 -53.5q25 0 69 114.5t132 473.5q12 41 28.5 118.5t24.5 151.5q23 84 44.5 175t21.5 100q0 10 1 20t-1 25q8 0 17 26.5t9 48.5q0 59 29 88q23 41 66 41q33 0 61.5 -21.5t34.5 -49.5q6 -43 -58 -314q0 -25 -28 -147q-18 -70 -29 -133 q-8 -59 -19.5 -102.5t-19.5 -41.5q-84 -360 -215 -659q-31 -72 -74 -112t-90 -40q-57 0 -104 60q-61 80 -90 163t-47 238q-37 227 -37 459v66q2 143 -19 143q-12 0 -28.5 -37t-40.5 -109q-10 -33 -92 -241l-35 -90q-37 -74 -56 -150q-63 -164 -99 -291t-40 -143 q-6 -23 -11 -43t-11 -37q-16 -43 -26.5 -58.5t-27.5 -15.5q-20 0 -53 21q-67 35 -67 111zM707 1585q0 27 35.5 79t97.5 83q25 8 51 8q59 0 94 -33q43 -41 68.5 -57t50.5 -16q10 0 35 8q27 8 78 33q39 20 71 34q20 8 41 -22.5t17 -50.5q0 -16 -12.5 -40t-45.5 -40 q-8 -4 -51 -29q-49 -29 -75.5 -42t-37.5 -13q-32 0 -54.5 10t-44 25.5t-32.5 21.5q-8 4 -28.5 23.5t-41 34t-34.5 14.5t-24.5 -8.5t-24.5 -26.5q-8 -12 -19.5 -23.5t-25.5 -13.5q-2 -12 -12.5 -26.5t-14.5 -4.5q-29 4 -45 25t-16 47z" />
<glyph unicode="&#xd2;" horiz-adv-x="1015" d="M205 162q0 57 10 143t21 137q8 8 9 24.5t-1 20.5q0 6 10 41q25 76 35 127q55 168 108.5 268.5t118.5 188.5q139 143 297 217q80 47 115 47q6 0 18 -4q252 -55 301 -319q18 -125 19 -189q0 -102 -37 -206.5t-133 -262.5q-82 -164 -185.5 -279.5t-207 -173t-193.5 -57.5 q-80 0 -135 43q-80 60 -123 107t-45 90q-2 10 -2 37zM398 252q-2 -59 1 -82t21 -51q14 -23 52 -42.5t67 -13.5q49 7 76.5 19t57.5 42t97 107q86 98 121 144.5t64.5 116t66.5 200.5l12 47q12 43 17.5 71t5.5 60l-2 129q-2 37 -14.5 80t-28.5 62q-16 18 -44 31.5t-56 13.5 q-20 0 -48 -10q-39 -16 -108.5 -87t-123.5 -145t-54 -98q0 -2 -2 -12.5t-9 -18.5q-53 -57 -107 -241.5t-62 -321.5zM950 1733q0 23 17.5 43t40 32.5t28.5 12.5q29 0 47 -27q23 -18 68 -126.5t45 -135.5q0 -16 -39 -52t-55 -40l-8 -2q-13 0 -21 15t-12 46q-6 20 -49 96 q-29 49 -45.5 82t-16.5 56z" />
<glyph unicode="&#xd3;" horiz-adv-x="1015" d="M205 162q0 57 10 143t21 137q8 8 9 24.5t-1 20.5q0 6 10 41q25 76 35 127q55 168 108.5 268.5t118.5 188.5q139 143 297 217q80 47 115 47q6 0 18 -4q252 -55 301 -319q18 -125 19 -189q0 -102 -37 -206.5t-133 -262.5q-82 -164 -185.5 -279.5t-207 -173t-193.5 -57.5 q-80 0 -135 43q-80 60 -123 107t-45 90q-2 10 -2 37zM398 252q-2 -59 1 -82t21 -51q14 -23 52 -42.5t67 -13.5q49 7 76.5 19t57.5 42t97 107q86 98 121 144.5t64.5 116t66.5 200.5l12 47q12 43 17.5 71t5.5 60l-2 129q-2 37 -14.5 80t-28.5 62q-16 18 -44 31.5t-56 13.5 q-20 0 -48 -10q-39 -16 -108.5 -87t-123.5 -145t-54 -98q0 -2 -2 -12.5t-9 -18.5q-53 -57 -107 -241.5t-62 -321.5zM944 1550l2 21q0 18 86 108t115 101q16 10 31 12q27 0 52 -28.5t25 -75.5q0 -20 -25.5 -46t-76.5 -67q-8 -6 -42 -35t-48 -49q-27 -39 -57 -39q-62 0 -62 98 z" />
<glyph unicode="&#xd4;" horiz-adv-x="1015" d="M205 162q0 57 10 143t21 137q8 8 9 24.5t-1 20.5q0 6 10 41q25 76 35 127q55 168 108.5 268.5t118.5 188.5q139 143 297 217q80 47 115 47q6 0 18 -4q252 -55 301 -319q18 -125 19 -189q0 -102 -37 -206.5t-133 -262.5q-82 -164 -185.5 -279.5t-207 -173t-193.5 -57.5 q-80 0 -135 43q-80 60 -123 107t-45 90q-2 10 -2 37zM398 252q-2 -59 1 -82t21 -51q14 -23 52 -42.5t67 -13.5q49 7 76.5 19t57.5 42t97 107q86 98 121 144.5t64.5 116t66.5 200.5l12 47q12 43 17.5 71t5.5 60l-2 129q-2 37 -14.5 80t-28.5 62q-16 18 -44 31.5t-56 13.5 q-20 0 -48 -10q-39 -16 -108.5 -87t-123.5 -145t-54 -98q0 -2 -2 -12.5t-9 -18.5q-53 -57 -107 -241.5t-62 -321.5zM840 1530q0 23 16 45q16 20 92 87t115 87q27 20 53 20q31 0 49 -24q33 -27 86.5 -81t75.5 -79q18 -20 18 -47q0 -29 -20 -52.5t-47 -23.5q-33 0 -59 33 q-41 49 -111 109q-35 -20 -85 -55.5t-79 -59.5q-24 -25 -49 -25q-23 0 -39 20.5t-16 45.5z" />
<glyph unicode="&#xd5;" horiz-adv-x="1015" d="M205 162q0 57 10 143t21 137q8 8 9 24.5t-1 20.5q0 6 10 41q25 76 35 127q55 168 108.5 268.5t118.5 188.5q139 143 297 217q80 47 115 47q6 0 18 -4q252 -55 301 -319q18 -125 19 -189q0 -102 -37 -206.5t-133 -262.5q-82 -164 -185.5 -279.5t-207 -173t-193.5 -57.5 q-80 0 -135 43q-80 60 -123 107t-45 90q-2 10 -2 37zM398 252q-2 -59 1 -82t21 -51q14 -23 52 -42.5t67 -13.5q49 7 76.5 19t57.5 42t97 107q86 98 121 144.5t64.5 116t66.5 200.5l12 47q12 43 17.5 71t5.5 60l-2 129q-2 37 -14.5 80t-28.5 62q-16 18 -44 31.5t-56 13.5 q-20 0 -48 -10q-39 -16 -108.5 -87t-123.5 -145t-54 -98q0 -2 -2 -12.5t-9 -18.5q-53 -57 -107 -241.5t-62 -321.5zM748 1585q0 27 35.5 79t97.5 83q25 8 51 8q59 0 94 -33q43 -41 68.5 -57t50.5 -16q10 0 35 8q27 8 78 33q39 20 71 34q20 8 41 -22.5t17 -50.5 q0 -16 -12.5 -40t-45.5 -40q-8 -4 -51 -29q-49 -29 -75.5 -42t-37.5 -13q-32 0 -54.5 10t-44 25.5t-32.5 21.5q-8 4 -28.5 23.5t-41 34t-34.5 14.5t-24.5 -8.5t-24.5 -26.5q-8 -12 -19.5 -23.5t-25.5 -13.5q-2 -12 -12.5 -26.5t-14.5 -4.5q-29 4 -45 25t-16 47z" />
<glyph unicode="&#xd6;" horiz-adv-x="1015" d="M205 162q0 57 10 143t21 137q8 8 9 24.5t-1 20.5q0 6 10 41q25 76 35 127q55 168 108.5 268.5t118.5 188.5q139 143 297 217q80 47 115 47q6 0 18 -4q252 -55 301 -319q18 -125 19 -189q0 -102 -37 -206.5t-133 -262.5q-82 -164 -185.5 -279.5t-207 -173t-193.5 -57.5 q-80 0 -135 43q-80 60 -123 107t-45 90q-2 10 -2 37zM398 252q-2 -59 1 -82t21 -51q14 -23 52 -42.5t67 -13.5q49 7 76.5 19t57.5 42t97 107q86 98 121 144.5t64.5 116t66.5 200.5l12 47q12 43 17.5 71t5.5 60l-2 129q-2 37 -14.5 80t-28.5 62q-16 18 -44 31.5t-56 13.5 q-20 0 -48 -10q-39 -16 -108.5 -87t-123.5 -145t-54 -98q0 -2 -2 -12.5t-9 -18.5q-53 -57 -107 -241.5t-62 -321.5zM817 1616q6 23 22.5 58.5t43.5 58.5q6 4 16 16t21 14q18 12 34 13q41 0 76 -62q16 -37 17 -57q0 -23 -13.5 -46.5t-44.5 -58.5q-43 -57 -82 -57 q-27 0 -51 25q-18 16 -30.5 50t-8.5 46zM1135 1616q6 23 22.5 58.5t42.5 58.5q6 4 16.5 16t20.5 14q18 12 35 13q41 0 76 -62q16 -37 16 -57q0 -23 -13.5 -46.5t-43.5 -58.5q-43 -57 -82 -57q-27 0 -51 25q-19 16 -31 50t-8 46z" />
<glyph unicode="&#xd7;" horiz-adv-x="913" d="M293 682q0 25 15.5 41t35.5 16q27 0 47 -26q31 -31 121 -107q6 -4 15.5 -14t23.5 -23l43 -41q72 78 115 121q82 82 143 82q25 0 41 -15.5t16 -33.5q0 -29 -26 -47l-107 -123l-37 -39l-41 -43l136 -133q25 -20 43 -57q28 -29 28 -60q0 -10 -4 -22q-4 -33 -29 -33 q-31 0 -98 55q-43 29 -174 148l-133 -138q-20 -25 -57 -43q-25 -27 -58 -26q-12 0 -24 4q-33 4 -33 27q0 31 55 98q33 51 146 174q-76 72 -121 115q-78 80 -82 143z" />
<glyph unicode="&#xd8;" horiz-adv-x="1015" d="M168 -127q0 66 65 170q-35 41 -38 82q-2 10 -2 37q0 57 10 143t20 137q8 8 9 24.5t-1 20.5q0 6 11 41q25 76 34 127q55 168 108.5 268.5t119.5 188.5q139 143 297 217q80 47 114 47q6 0 19 -4q102 -23 174 -82q80 113 84 123q6 23 27 23l16 -4q4 4 37 4t37 -2 q0 -2 5 -12.5t15 -28.5q10 -21 10 -41q0 -25 -12 -58q-6 -23 -19.5 -38t-47.5 -46l-56 -53q23 -47 31 -104q18 -125 18 -189q0 -102 -36.5 -206.5t-133.5 -262.5q-82 -164 -185 -279.5t-206.5 -173t-193.5 -57.5q-80 0 -136 43l-24 19q-41 -70 -43 -78q-14 -45 -21.5 -58.5 t-23.5 -17.5q-37 2 -59.5 21.5t-22.5 58.5zM387 287q319 487 338 506h2q8 0 17.5 11t13.5 23q6 18 18 35t23 19q2 6 12 20t12 21q0 4 8.5 13t10.5 15q51 51 155 193q-18 18 -43.5 30.5t-54.5 12.5q-27 0 -47 -10q-39 -16 -108.5 -87t-124 -145t-54.5 -98q0 -2 -2 -12.5 t-8 -18.5q-51 -53 -102.5 -220t-65.5 -308zM430 94q23 -16 49.5 -25.5t46.5 -5.5q49 6 77 18.5t57.5 42.5t97.5 107q86 98 120.5 144.5t64.5 116t67 200.5l12 49q12 41 17 68t5 59l-2 101q-27 -27 -84 -102.5t-59 -84.5q-2 -4 -6 -13t-16 -13h-3q-4 0 -9 -8.5t-5 -10.5 q0 -16 -63 -94q-139 -201 -367 -549z" />
<glyph unicode="&#xd9;" horiz-adv-x="987" d="M244 240q0 137 39 323q31 150 105.5 357.5t152.5 345.5q47 80 81.5 110.5t67.5 26.5q45 -8 71.5 -38t26.5 -65q0 -41 -34 -63q-16 -18 -45 -72.5t-37 -68.5l-49 -92q-72 -205 -106 -315.5t-54 -233.5q-37 -170 -42 -202t-5 -87q6 -12 16 -31.5t18.5 -29t18.5 -11.5 q37 -16 68 -16q37 0 81 24q8 16 23.5 25.5t20.5 11.5q4 -6 6 -6q6 0 10 14v3q0 10 18 28q20 8 56 52t66 92.5t30 60.5q0 10 11 22.5t15 16.5q14 14 73 124.5t108 213.5q31 100 85 282.5t64 233.5q4 27 12.5 45t10.5 25q16 12 35 12q33 0 67.5 -21.5t40.5 -25.5 q10 -12 10 -35q0 -25 -18 -102q-10 -41 -27 -123q-33 -129 -78 -244t-116 -277q-8 -18 -18.5 -39.5t-20.5 -48.5v-12q-25 -14 -39 -43q-6 -10 -15.5 -27.5t-19.5 -23.5q-6 -18 -11 -30.5t-7 -16.5q-2 -12 -18.5 -22.5t-20.5 -12.5q-8 -4 -12.5 -18.5t-8.5 -18.5 q-70 -104 -178 -200.5t-190 -127.5q-41 -16 -72 -16q-27 0 -41 4q-115 29 -170 117t-55 246zM919 1733q0 23 17.5 43t40 32.5t28.5 12.5q29 0 47 -27q23 -18 68 -126.5t45 -135.5q0 -16 -39 -52t-55 -40l-8 -2q-13 0 -21 15t-12 46q-6 20 -49 96q-29 49 -45.5 82t-16.5 56z " />
<glyph unicode="&#xda;" horiz-adv-x="987" d="M244 240q0 137 39 323q31 150 105.5 357.5t152.5 345.5q47 80 81.5 110.5t67.5 26.5q45 -8 71.5 -38t26.5 -65q0 -41 -34 -63q-16 -18 -45 -72.5t-37 -68.5l-49 -92q-72 -205 -106 -315.5t-54 -233.5q-37 -170 -42 -202t-5 -87q6 -12 16 -31.5t18.5 -29t18.5 -11.5 q37 -16 68 -16q37 0 81 24q8 16 23.5 25.5t20.5 11.5q4 -6 6 -6q6 0 10 14v3q0 10 18 28q20 8 56 52t66 92.5t30 60.5q0 10 11 22.5t15 16.5q14 14 73 124.5t108 213.5q31 100 85 282.5t64 233.5q4 27 12.5 45t10.5 25q16 12 35 12q33 0 67.5 -21.5t40.5 -25.5 q10 -12 10 -35q0 -25 -18 -102q-10 -41 -27 -123q-33 -129 -78 -244t-116 -277q-8 -18 -18.5 -39.5t-20.5 -48.5v-12q-25 -14 -39 -43q-6 -10 -15.5 -27.5t-19.5 -23.5q-6 -18 -11 -30.5t-7 -16.5q-2 -12 -18.5 -22.5t-20.5 -12.5q-8 -4 -12.5 -18.5t-8.5 -18.5 q-70 -104 -178 -200.5t-190 -127.5q-41 -16 -72 -16q-27 0 -41 4q-115 29 -170 117t-55 246zM913 1550l2 21q0 18 86 108t115 101q16 10 31 12q27 0 52 -28.5t25 -75.5q0 -20 -25.5 -46t-76.5 -67q-8 -6 -42 -35t-48 -49q-27 -39 -57 -39q-62 0 -62 98z" />
<glyph unicode="&#xdb;" horiz-adv-x="987" d="M244 240q0 137 39 323q31 150 105.5 357.5t152.5 345.5q47 80 81.5 110.5t67.5 26.5q45 -8 71.5 -38t26.5 -65q0 -41 -34 -63q-16 -18 -45 -72.5t-37 -68.5l-49 -92q-72 -205 -106 -315.5t-54 -233.5q-37 -170 -42 -202t-5 -87q6 -12 16 -31.5t18.5 -29t18.5 -11.5 q37 -16 68 -16q37 0 81 24q8 16 23.5 25.5t20.5 11.5q4 -6 6 -6q6 0 10 14v3q0 10 18 28q20 8 56 52t66 92.5t30 60.5q0 10 11 22.5t15 16.5q14 14 73 124.5t108 213.5q31 100 85 282.5t64 233.5q4 27 12.5 45t10.5 25q16 12 35 12q33 0 67.5 -21.5t40.5 -25.5 q10 -12 10 -35q0 -25 -18 -102q-10 -41 -27 -123q-33 -129 -78 -244t-116 -277q-8 -18 -18.5 -39.5t-20.5 -48.5v-12q-25 -14 -39 -43q-6 -10 -15.5 -27.5t-19.5 -23.5q-6 -18 -11 -30.5t-7 -16.5q-2 -12 -18.5 -22.5t-20.5 -12.5q-8 -4 -12.5 -18.5t-8.5 -18.5 q-70 -104 -178 -200.5t-190 -127.5q-41 -16 -72 -16q-27 0 -41 4q-115 29 -170 117t-55 246zM809 1530q0 23 16 45q16 20 92 87t115 87q27 20 53 20q31 0 49 -24q33 -27 86.5 -81t75.5 -79q18 -20 18 -47q0 -29 -20 -52.5t-47 -23.5q-33 0 -59 33q-41 49 -111 109 q-35 -20 -85 -55.5t-79 -59.5q-24 -25 -49 -25q-23 0 -39 20.5t-16 45.5z" />
<glyph unicode="&#xdc;" horiz-adv-x="987" d="M244 240q0 137 39 323q31 150 105.5 357.5t152.5 345.5q47 80 81.5 110.5t67.5 26.5q45 -8 71.5 -38t26.5 -65q0 -41 -34 -63q-16 -18 -45 -72.5t-37 -68.5l-49 -92q-72 -205 -106 -315.5t-54 -233.5q-37 -170 -42 -202t-5 -87q6 -12 16 -31.5t18.5 -29t18.5 -11.5 q37 -16 68 -16q37 0 81 24q8 16 23.5 25.5t20.5 11.5q4 -6 6 -6q6 0 10 14v3q0 10 18 28q20 8 56 52t66 92.5t30 60.5q0 10 11 22.5t15 16.5q14 14 73 124.5t108 213.5q31 100 85 282.5t64 233.5q4 27 12.5 45t10.5 25q16 12 35 12q33 0 67.5 -21.5t40.5 -25.5 q10 -12 10 -35q0 -25 -18 -102q-10 -41 -27 -123q-33 -129 -78 -244t-116 -277q-8 -18 -18.5 -39.5t-20.5 -48.5v-12q-25 -14 -39 -43q-6 -10 -15.5 -27.5t-19.5 -23.5q-6 -18 -11 -30.5t-7 -16.5q-2 -12 -18.5 -22.5t-20.5 -12.5q-8 -4 -12.5 -18.5t-8.5 -18.5 q-70 -104 -178 -200.5t-190 -127.5q-41 -16 -72 -16q-27 0 -41 4q-115 29 -170 117t-55 246zM786 1616q6 23 22.5 58.5t43.5 58.5q6 4 16 16t21 14q18 12 34 13q41 0 76 -62q16 -37 17 -57q0 -23 -13.5 -46.5t-44.5 -58.5q-43 -57 -82 -57q-27 0 -51 25q-18 16 -30.5 50 t-8.5 46zM1104 1616q6 23 22.5 58.5t42.5 58.5q6 4 16.5 16t20.5 14q18 12 35 13q41 0 76 -62q16 -37 16 -57q0 -23 -13.5 -46.5t-43.5 -58.5q-43 -57 -82 -57q-27 0 -51 25q-19 16 -31 50t-8 46z" />
<glyph unicode="&#xdd;" horiz-adv-x="1032" d="M430 -63q0 18 16 77l13 49q2 49 19.5 117t41.5 111q0 31 20.5 95.5t43.5 119.5l24 69l-37 46q-45 68 -67.5 120t-32.5 125q-23 82 -22 172q0 29 4 160q2 88 27.5 138t27.5 57q23 20 47 20q37 0 57.5 -59.5t18.5 -134.5q12 -414 82 -471q6 -2 18 -3q18 0 35.5 14.5 t56.5 57.5q49 55 64 70q49 49 110.5 119.5t85.5 99.5q143 174 189 201q8 16 42 27.5t46 13.5q8 -2 12 -11.5t9 -27t14 -29.5q4 -8 18 -24.5t12 -26.5q-2 -14 -88 -101q-45 -39 -143 -141t-156 -174q-82 -94 -149.5 -167t-97.5 -103q0 -2 -3.5 -2t-5.5 -2q-6 -18 -34 -136 l-41 -133q-10 -31 -29 -97.5t-31 -96.5q-37 -139 -63.5 -190.5t-55.5 -41.5q-12 2 -79 50q-18 20 -19 43zM907 1552l2 21q0 18 86 108t115 101q16 10 31 12q27 0 52 -28.5t25 -75.5q0 -20 -25.5 -46t-76.5 -67q-8 -6 -42 -35t-48 -49q-27 -39 -57 -39q-62 0 -62 98z" />
<glyph unicode="&#xde;" horiz-adv-x="966" d="M154 -90q0 31 24 121l15 49q111 379 116 362q4 16 15.5 46t17.5 38q4 31 22.5 79t36.5 65q0 23 35 100.5t41 77.5q0 2 5 15.5t22 35.5q0 10 4 26.5t18 26.5q2 6 6.5 24.5t3.5 25t-6 8.5q-4 10 -4 24q0 29 37 31q12 0 29 35q4 8 8 10q106 279 107 309q0 14 27.5 23.5 t49.5 9.5q10 10 33 10l33 -32q14 -14 18 -30t4 -46q0 -33 -5 -48.5t-33 -76.5l-29 -60l67 13q35 0 78 -4t70 -11q74 -35 122 -103.5t48 -119.5q0 -61 -44 -190t-79 -156q10 0 -9.5 -23.5t-46 -49t-40.5 -29.5q0 -4 -16.5 -29t-39.5 -37q-41 -25 -61 -41t-35 -37q0 10 -6 10 q-8 0 -23.5 -13t-23.5 -17q-92 -55 -178 -72q-14 -12 -74 -12l-70 10l-32 -86q-10 -43 -31 -117q-20 -55 -31 -110q-6 -35 -25.5 -67t-41 -48t-31.5 -8q-4 2 -29.5 12t-45 26.5t-19.5 33.5q-4 8 -4 16zM516 428q92 -2 155.5 28.5t127.5 92.5q29 29 70.5 79t68.5 87 q27 39 42 91t15 97q0 35 -10 55q-31 43 -98 43q-70 0 -135 -36q-18 -8 -79 -132t-112 -254t-45 -151z" />
<glyph unicode="&#xdf;" horiz-adv-x="815" d="M45 -285q12 20 12 72l-2 57q18 45 19 90q8 35 34.5 140.5t41.5 148.5q20 94 30 109q27 84 53 153q-4 27 21 94.5t55 112.5q6 37 17.5 72t21.5 56.5t14 27.5q-4 4 -4 18q0 23 2 33q20 12 27.5 25.5t7.5 19.5t76 106.5t117 149.5q119 115 184 131q33 6 81 9t65 3 q10 2 41.5 -15t62.5 -40.5t41 -46.5q20 -50 20 -113q0 -127 -82 -235q-20 -33 -45.5 -56.5t-29.5 -23.5q-6 -4 -21.5 -21.5t-23.5 -39.5q-12 -12 -29.5 -33t-22.5 -21q-12 0 -28.5 -33.5t-7.5 -50.5l-11 -12q-16 -2 -6 -31.5t25.5 -58.5t19.5 -37q12 -2 26.5 -26.5 t33.5 -73.5q0 -4 8 -76l6 -66q-8 -88 -76.5 -148t-150.5 -67q-18 -4 -47 -4t-61 10.5t-46 14.5q-45 16 -74.5 53t-29.5 74q0 18 8 33q2 6 10 9t8 1q12 0 18 1l5 1l61 -2q23 -2 39 -8t25 -6q10 0 22 18q20 4 34.5 5t18.5 1q2 0 3 19q-2 2 0 2q4 0 14 5t18 14t4 22 q-2 37 -8 56t-31 52q-23 59 -58.5 112.5t-49.5 67.5q-6 10 -6 19q0 16 12 47q2 10 6 15t6 7q0 2 64 80q102 121 115 144q35 20 67.5 51t32.5 41q-4 12 3 32.5t26 45.5q18 29 28 51t10 37q0 14 -6 28q-23 12 -45 13q-61 0 -127 -76q-59 -74 -67 -76q-47 -61 -110.5 -183 t-98.5 -224q8 -14 -4.5 -46t-32.5 -47q2 -12 2 -36q0 -16 -1 -26.5t-1 -12.5q0 -12 -5 -22.5t-7 -12.5q-14 0 -15 -2q-2 -8 -8 -37t-20 -62q-33 -88 -40 -117.5t-20 -121.5q-43 -129 -61 -240l-2 -26q0 -16 4 -33q-6 -23 -14.5 -81t-8.5 -93q0 -41 -15 -58.5t-50 -15.5 q-35 8 -73 42t-44 67q2 2 2 18z" />
<glyph unicode="&#xe0;" horiz-adv-x="894" d="M156 152q-16 16 22.5 106t104.5 213q12 12 31.5 43t25.5 35q0 8 6 15t15 7l16 33q8 18 80 88t113 94q39 27 84 27q49 0 83 -29l56 -47q61 -51 69 -59l76 -68l-35 -102q-18 -55 -18 -105q0 -78 43 -145q10 -23 27.5 -35t46.5 -16q45 -8 45 -45q0 -45 -16.5 -67.5 t-39.5 -28.5q-33 -4 -45 -5q-59 0 -108 31t-86 105q-8 12 -21.5 44.5t-15.5 45.5q-14 -20 -47 -54q-211 -213 -342 -213q-45 0 -80 23q-6 12 -35 32.5t-29 24.5q0 8 -9 23.5t-17 28.5zM359 213q33 -4 127 74q10 8 22 19t27 24q57 47 89 78.5t64 76.5l45 74 q-20 45 -36.5 60.5t-32.5 15.5q-41 0 -102.5 -73t-147.5 -220q-23 -37 -37 -77t-18 -52zM610 1151q0 23 17.5 43t40 32.5t28.5 12.5q29 0 47 -27q23 -18 68 -126.5t45 -135.5q0 -16 -39 -52t-55 -40l-8 -2q-13 0 -21 15.5t-12 46.5q-6 20 -49 96q-29 49 -45.5 81.5 t-16.5 55.5z" />
<glyph unicode="&#xe1;" horiz-adv-x="894" d="M156 152q-16 16 22.5 106t104.5 213q12 12 31.5 43t25.5 35q0 8 6 15t15 7l16 33q8 18 80 88t113 94q39 27 84 27q49 0 83 -29l56 -47q61 -51 69 -59l76 -68l-35 -102q-18 -55 -18 -105q0 -78 43 -145q10 -23 27.5 -35t46.5 -16q45 -8 45 -45q0 -45 -16.5 -67.5 t-39.5 -28.5q-33 -4 -45 -5q-59 0 -108 31t-86 105q-8 12 -21.5 44.5t-15.5 45.5q-14 -20 -47 -54q-211 -213 -342 -213q-45 0 -80 23q-6 12 -35 32.5t-29 24.5q0 8 -9 23.5t-17 28.5zM359 213q33 -4 127 74q10 8 22 19t27 24q57 47 89 78.5t64 76.5l45 74 q-20 45 -36.5 60.5t-32.5 15.5q-41 0 -102.5 -73t-147.5 -220q-23 -37 -37 -77t-18 -52zM760 979l2 20q4 18 88 108.5t113 100.5q16 10 30 13q27 0 52.5 -29t25.5 -76q0 -18 -23.5 -42.5t-76.5 -67.5q-74 -57 -92 -86q-27 -39 -58 -39q-61 0 -61 98z" />
<glyph unicode="&#xe2;" horiz-adv-x="894" d="M156 152q-16 16 22.5 106t104.5 213q12 12 31.5 43t25.5 35q0 8 6 15t15 7l16 33q8 18 80 88t113 94q39 27 84 27q49 0 83 -29l56 -47q61 -51 69 -59l76 -68l-35 -102q-18 -55 -18 -105q0 -78 43 -145q10 -23 27.5 -35t46.5 -16q45 -8 45 -45q0 -45 -16.5 -67.5 t-39.5 -28.5q-33 -4 -45 -5q-59 0 -108 31t-86 105q-8 12 -21.5 44.5t-15.5 45.5q-14 -20 -47 -54q-211 -213 -342 -213q-45 0 -80 23q-6 12 -35 32.5t-29 24.5q0 8 -9 23.5t-17 28.5zM359 213q33 -4 127 74q10 8 22 19t27 24q57 47 89 78.5t64 76.5l45 74 q-20 45 -36.5 60.5t-32.5 15.5q-41 0 -102.5 -73t-147.5 -220q-23 -37 -37 -77t-18 -52zM512 944q0 23 16 45q16 20 92 87t115 87q27 20 53 21q31 0 50 -25q33 -27 86 -81t75 -79q18 -20 19 -47q0 -29 -20.5 -52t-47.5 -23q-33 0 -59 32q-41 49 -111 109q-35 -20 -85 -55 t-79 -60q-24 -24 -49 -24q-23 0 -39 20.5t-16 44.5z" />
<glyph unicode="&#xe3;" horiz-adv-x="894" d="M156 152q-16 16 22.5 106t104.5 213q12 12 31.5 43t25.5 35q0 8 6 15t15 7l16 33q8 18 80 88t113 94q39 27 84 27q49 0 83 -29l56 -47q61 -51 69 -59l76 -68l-35 -102q-18 -55 -18 -105q0 -78 43 -145q10 -23 27.5 -35t46.5 -16q45 -8 45 -45q0 -45 -16.5 -67.5 t-39.5 -28.5q-33 -4 -45 -5q-59 0 -108 31t-86 105q-8 12 -21.5 44.5t-15.5 45.5q-14 -20 -47 -54q-211 -213 -342 -213q-45 0 -80 23q-6 12 -35 32.5t-29 24.5q0 8 -9 23.5t-17 28.5zM359 213q33 -4 127 74q10 8 22 19t27 24q57 47 89 78.5t64 76.5l45 74 q-20 45 -36.5 60.5t-32.5 15.5q-41 0 -102.5 -73t-147.5 -220q-23 -37 -37 -77t-18 -52zM465 950q0 27 35.5 79t97.5 83q25 8 51 8q59 0 94 -33q43 -41 69 -57t50 -16q10 0 35 8q27 8 78 33q39 20 71 35q20 8 41 -23t17 -51q0 -16 -12.5 -40t-45.5 -40q-8 -4 -51 -29 q-49 -29 -75.5 -42t-36.5 -13q-33 0 -55.5 10t-44 25.5t-31.5 21.5q-8 4 -29 23.5t-41.5 34t-34.5 14.5t-24.5 -8t-24.5 -27q-8 -12 -19.5 -23.5t-25.5 -13.5q-2 -12 -12.5 -26.5t-14.5 -3.5q-29 4 -45 24.5t-16 46.5z" />
<glyph unicode="&#xe4;" horiz-adv-x="894" d="M156 152q-16 16 22.5 106t104.5 213q12 12 31.5 43t25.5 35q0 8 6 15t15 7l16 33q8 18 80 88t113 94q39 27 84 27q49 0 83 -29l56 -47q61 -51 69 -59l76 -68l-35 -102q-18 -55 -18 -105q0 -78 43 -145q10 -23 27.5 -35t46.5 -16q45 -8 45 -45q0 -45 -16.5 -67.5 t-39.5 -28.5q-33 -4 -45 -5q-59 0 -108 31t-86 105q-8 12 -21.5 44.5t-15.5 45.5q-14 -20 -47 -54q-211 -213 -342 -213q-45 0 -80 23q-6 12 -35 32.5t-29 24.5q0 8 -9 23.5t-17 28.5zM359 213q33 -4 127 74q10 8 22 19t27 24q57 47 89 78.5t64 76.5l45 74 q-20 45 -36.5 60.5t-32.5 15.5q-41 0 -102.5 -73t-147.5 -220q-23 -37 -37 -77t-18 -52zM532 975q6 23 22.5 58.5t43.5 58.5q6 4 16.5 16t20.5 14q18 12 35 13q41 0 75 -62q16 -37 17 -57q0 -23 -13.5 -46.5t-44.5 -58.5q-43 -57 -82 -57q-27 0 -51 25q-18 16 -30.5 50 t-8.5 46zM850 975q6 23 22.5 58.5t42.5 58.5q6 4 16.5 16t20.5 14q18 12 35 13q41 0 76 -62q16 -37 16 -57q0 -23 -13 -46.5t-44 -58.5q-43 -57 -82 -57q-27 0 -51 25q-19 16 -31 50t-8 46z" />
<glyph unicode="&#xe5;" horiz-adv-x="894" d="M156 152q-16 16 22.5 106t104.5 213q12 12 31.5 43t25.5 35q0 8 6 15t15 7l16 33q8 18 80 88t113 94q39 27 84 27q49 0 83 -29l56 -47q61 -51 69 -59l76 -68l-35 -102q-18 -55 -18 -105q0 -78 43 -145q10 -23 27.5 -35t46.5 -16q45 -8 45 -45q0 -45 -16.5 -67.5 t-39.5 -28.5q-33 -4 -45 -5q-59 0 -108 31t-86 105q-8 12 -21.5 44.5t-15.5 45.5q-14 -20 -47 -54q-211 -213 -342 -213q-45 0 -80 23q-6 12 -35 32.5t-29 24.5q0 8 -9 23.5t-17 28.5zM359 213q33 -4 127 74q10 8 22 19t27 24q57 47 89 78.5t64 76.5l45 74 q-20 45 -36.5 60.5t-32.5 15.5q-41 0 -102.5 -73t-147.5 -220q-23 -37 -37 -77t-18 -52zM672 981q0 47 20.5 99.5t57 89t83.5 36.5q80 0 129.5 -35.5t49.5 -101.5q0 -94 -51.5 -172t-131.5 -78q-139 0 -157 162zM784 997q0 -18 15.5 -38.5t27.5 -20.5q33 0 51.5 20.5 t18.5 61.5q-2 29 -11.5 46t-33.5 17q-35 0 -51.5 -20.5t-16.5 -65.5z" />
<glyph unicode="&#xe6;" horiz-adv-x="1175" d="M141 168q0 29 31 101.5t78 160.5l33 53q14 16 36 56q6 14 13.5 23t15.5 9l21 39q20 37 74.5 85t113.5 83t92 35q18 0 40 -8t36 -21l98 -84l31 -26q70 76 135 106q39 18 65.5 25.5t61.5 7.5q82 0 134.5 -28.5t75 -67.5t22.5 -70v-12v-6q-4 -29 -5 -43q-33 -82 -107.5 -158 t-191.5 -76q-41 0 -78.5 9.5t-50.5 9.5q-29 0 -39 -19.5t-10 -58.5q0 -59 26 -91t69 -32q57 0 89.5 17.5t65.5 48.5q18 18 32.5 27t33.5 9q18 0 42.5 -25.5t26.5 -45.5q-4 -27 -45 -76t-106.5 -87t-141.5 -38q-117 0 -188.5 66.5t-71.5 187.5v27q-10 -14 -43 -48 q-207 -213 -342 -213q-41 0 -71 19q-12 16 -39 33q-33 23 -33 28q0 10 -14.5 36t-14.5 32zM346 213q-8 -4 14.5 2t55.5 24.5t71 57.5q19 18 42.5 38.5t35.5 31.5q41 33 64.5 57.5t46.5 60.5l45 74q-20 45 -35.5 60.5t-32.5 15.5q-29 0 -81 -50t-112.5 -146.5t-113.5 -225.5z M938 518q2 -10 31.5 -17t62.5 -7q37 0 51 8q21 10 64 52t45 58q0 20 -18.5 33.5t-49.5 18.5h-22q-27 0 -77 -44.5t-87 -101.5z" />
<glyph unicode="&#xe7;" horiz-adv-x="727" d="M113 -281q0 23 13.5 37.5t39.5 14.5q23 0 80 -21q61 -20 90 -20q37 0 51 28q6 8 7 19q0 14 -11.5 31.5t-21.5 27.5t-14 17q-25 29 -64 65q-20 33 -20 53q0 68 165 152l115 -62q-57 -29 -86 -50t-29 -46q2 -4 41 -53q23 -25 42.5 -52.5t25.5 -52.5q4 -25 4 -34 q0 -68 -54 -119t-118 -51q-45 0 -110.5 15t-96.5 28q-20 8 -34.5 29.5t-14.5 43.5zM191 213q0 96 43 223t106 207q51 59 88 96t68 49q27 10 67.5 18.5t61.5 8.5q41 -10 76.5 -28.5t35.5 -41.5l11 -10q14 0 33.5 -45t19.5 -82q0 -18 -6 -30q-8 -39 -31.5 -76t-40.5 -37 q-23 0 -22 -12q0 -10 -25 -11q-20 0 -43 9.5t-27 23.5q0 10 17 82q6 31 6 51q0 37 -25 37q-6 0 -30 -8q-53 -29 -85 -67t-56.5 -103.5t-57.5 -190.5q-6 -25 -6 -45q0 -25 6 -40t12 -17q10 -4 37 -4q51 0 82 18q37 20 72 46t43 32q4 4 16 23.5t27 25.5q12 18 30.5 22.5 t37 4.5h24.5q27 -8 51.5 -37t7.5 -37q-6 0 -8 -4t-2 -6q4 -10 -33 -54t-82 -84t-61 -40q-8 0 -14.5 -2t-6.5 -10t-62 -38t-101 -38q-25 -4 -39 -4q-84 0 -148.5 54t-64.5 138z" />
<glyph unicode="&#xe8;" horiz-adv-x="665" d="M189 252q0 47 6 104q4 49 40 135.5t98 168t146 120.5q39 18 66 25.5t61 7.5q84 0 136.5 -30.5t74 -69.5t21.5 -68v-10v-6q0 -25 -29 -90.5t-91 -123t-161 -63.5q-49 0 -95 9.5t-58 9.5q-31 0 -39 -22.5t-8 -76.5q6 -57 31.5 -79.5t74.5 -22.5q25 0 57 14q33 16 78 52 q25 20 39 28t35 8q18 0 43 -24.5t27 -46.5q-4 -25 -45 -74t-107 -88t-141 -39q-117 0 -188.5 65.5t-71.5 186.5zM428 518q2 -10 31 -17t61 -7q40 0 54 8q20 10 62 52t44 58q0 20 -17.5 33.5t-47.5 18.5h-23q-27 0 -77 -44.5t-87 -101.5zM491 1151q0 23 17.5 43t40 32.5 t28.5 12.5q29 0 47 -27q23 -18 68 -126.5t45 -135.5q0 -16 -39 -52t-55 -40l-8 -2q-13 0 -21 15.5t-12 46.5q-6 20 -49 96q-29 49 -45.5 81.5t-16.5 55.5z" />
<glyph unicode="&#xe9;" horiz-adv-x="665" d="M189 252q0 47 6 104q4 49 40 135.5t98 168t146 120.5q39 18 66 25.5t61 7.5q84 0 136.5 -30.5t74 -69.5t21.5 -68v-10v-6q0 -25 -29 -90.5t-91 -123t-161 -63.5q-49 0 -95 9.5t-58 9.5q-31 0 -39 -22.5t-8 -76.5q6 -57 31.5 -79.5t74.5 -22.5q25 0 57 14q33 16 78 52 q25 20 39 28t35 8q18 0 43 -24.5t27 -46.5q-4 -25 -45 -74t-107 -88t-141 -39q-117 0 -188.5 65.5t-71.5 186.5zM428 518q2 -10 31 -17t61 -7q40 0 54 8q20 10 62 52t44 58q0 20 -17.5 33.5t-47.5 18.5h-23q-27 0 -77 -44.5t-87 -101.5zM641 979l2 20q4 18 88 108.5 t113 100.5q16 10 30 13q27 0 52.5 -29t25.5 -76q0 -18 -23.5 -42.5t-76.5 -67.5q-74 -57 -92 -86q-27 -39 -58 -39q-61 0 -61 98z" />
<glyph unicode="&#xea;" horiz-adv-x="665" d="M189 252q0 47 6 104q4 49 40 135.5t98 168t146 120.5q39 18 66 25.5t61 7.5q84 0 136.5 -30.5t74 -69.5t21.5 -68v-10v-6q0 -25 -29 -90.5t-91 -123t-161 -63.5q-49 0 -95 9.5t-58 9.5q-31 0 -39 -22.5t-8 -76.5q6 -57 31.5 -79.5t74.5 -22.5q25 0 57 14q33 16 78 52 q25 20 39 28t35 8q18 0 43 -24.5t27 -46.5q-4 -25 -45 -74t-107 -88t-141 -39q-117 0 -188.5 65.5t-71.5 186.5zM393 944q0 23 16 45q16 20 92 87t115 87q27 20 53 21q31 0 50 -25q33 -27 86 -81t75 -79q18 -20 19 -47q0 -29 -20.5 -52t-47.5 -23q-33 0 -59 32 q-41 49 -111 109q-35 -20 -85 -55t-79 -60q-24 -24 -49 -24q-23 0 -39 20.5t-16 44.5zM428 518q2 -10 31 -17t61 -7q40 0 54 8q20 10 62 52t44 58q0 20 -17.5 33.5t-47.5 18.5h-23q-27 0 -77 -44.5t-87 -101.5z" />
<glyph unicode="&#xeb;" horiz-adv-x="665" d="M189 252q0 47 6 104q4 49 40 135.5t98 168t146 120.5q39 18 66 25.5t61 7.5q84 0 136.5 -30.5t74 -69.5t21.5 -68v-10v-6q0 -25 -29 -90.5t-91 -123t-161 -63.5q-49 0 -95 9.5t-58 9.5q-31 0 -39 -22.5t-8 -76.5q6 -57 31.5 -79.5t74.5 -22.5q25 0 57 14q33 16 78 52 q25 20 39 28t35 8q18 0 43 -24.5t27 -46.5q-4 -25 -45 -74t-107 -88t-141 -39q-117 0 -188.5 65.5t-71.5 186.5zM413 975q6 23 22.5 58.5t43.5 58.5q6 4 16.5 16t20.5 14q18 12 35 13q41 0 75 -62q16 -37 17 -57q0 -23 -13.5 -46.5t-44.5 -58.5q-43 -57 -82 -57 q-27 0 -51 25q-18 16 -30.5 50t-8.5 46zM428 518q2 -10 31 -17t61 -7q40 0 54 8q20 10 62 52t44 58q0 20 -17.5 33.5t-47.5 18.5h-23q-27 0 -77 -44.5t-87 -101.5zM731 975q6 23 22.5 58.5t42.5 58.5q6 4 16.5 16t20.5 14q18 12 35 13q41 0 76 -62q16 -37 16 -57 q0 -23 -13 -46.5t-44 -58.5q-43 -57 -82 -57q-27 0 -51 25q-19 16 -31 50t-8 46z" />
<glyph unicode="&#xec;" horiz-adv-x="382" d="M176 137q0 39 10 60q0 10 4.5 24.5t4.5 18.5q-2 12 16 67q25 55 62.5 170t52.5 164q0 10 8 17.5t24 9.5q23 8 58 -19.5t57 -62.5q12 -12 12 -33q0 -31 -26 -86q-10 -23 -19.5 -55.5t-15.5 -61.5q-25 -55 -39 -102q-6 -27 -8 -41q-14 -76 -27 -98q-12 -51 -34.5 -77 t-51.5 -26q-35 0 -59 29q-29 28 -29 102zM325 1151q0 23 17.5 43t40 32.5t28.5 12.5q29 0 47 -27q23 -18 68 -126.5t45 -135.5q0 -16 -39 -52t-55 -40l-8 -2q-13 0 -21 15.5t-12 46.5q-6 20 -49 96q-29 49 -45.5 81.5t-16.5 55.5z" />
<glyph unicode="&#xed;" horiz-adv-x="382" d="M176 137q0 39 10 60q0 10 4.5 24.5t4.5 18.5q-2 12 16 67q25 55 62.5 170t52.5 164q0 10 8 17.5t24 9.5q23 8 58 -19.5t57 -62.5q12 -12 12 -33q0 -31 -26 -86q-10 -23 -19.5 -55.5t-15.5 -61.5q-25 -55 -39 -102q-6 -27 -8 -41q-14 -76 -27 -98q-12 -51 -34.5 -77 t-51.5 -26q-35 0 -59 29q-29 28 -29 102zM455 979l2 20q4 18 88 108.5t113 100.5q16 10 30 13q27 0 52.5 -29t25.5 -76q0 -18 -23.5 -42.5t-76.5 -67.5q-74 -57 -92 -86q-27 -39 -58 -39q-61 0 -61 98z" />
<glyph unicode="&#xee;" horiz-adv-x="382" d="M176 137q0 39 10 60q0 10 4.5 24.5t4.5 18.5q-2 12 16 67q25 55 62.5 170t52.5 164q0 10 8 17.5t24 9.5q23 8 58 -19.5t57 -62.5q12 -12 12 -33q0 -31 -26 -86q-10 -23 -19.5 -55.5t-15.5 -61.5q-25 -55 -39 -102q-6 -27 -8 -41q-14 -76 -27 -98q-12 -51 -34.5 -77 t-51.5 -26q-35 0 -59 29q-29 28 -29 102zM248 944q0 23 16 45q16 20 92 87t115 87q27 20 53 21q31 0 50 -25q33 -27 86 -81t75 -79q18 -20 19 -47q0 -29 -20.5 -52t-47.5 -23q-33 0 -59 32q-41 49 -111 109q-35 -20 -85 -55t-79 -60q-24 -24 -49 -24q-23 0 -39 20.5 t-16 44.5z" />
<glyph unicode="&#xef;" horiz-adv-x="382" d="M176 137q0 39 10 60q0 10 4.5 24.5t4.5 18.5q-2 12 16 67q25 55 62.5 170t52.5 164q0 10 8 17.5t24 9.5q23 8 58 -19.5t57 -62.5q12 -12 12 -33q0 -31 -26 -86q-10 -23 -19.5 -55.5t-15.5 -61.5q-25 -55 -39 -102q-6 -27 -8 -41q-14 -76 -27 -98q-12 -51 -34.5 -77 t-51.5 -26q-35 0 -59 29q-29 28 -29 102zM247 975q6 23 22.5 58.5t43.5 58.5q6 4 16.5 16t20.5 14q18 12 35 13q41 0 75 -62q16 -37 17 -57q0 -23 -13.5 -46.5t-44.5 -58.5q-43 -57 -82 -57q-27 0 -51 25q-18 16 -30.5 50t-8.5 46zM565 975q6 23 22.5 58.5t42.5 58.5 q6 4 16.5 16t20.5 14q18 12 35 13q41 0 76 -62q16 -37 16 -57q0 -23 -13 -46.5t-44 -58.5q-43 -57 -82 -57q-27 0 -51 25q-19 16 -31 50t-8 46z" />
<glyph unicode="&#xf0;" horiz-adv-x="714" d="M166 261q0 3 4 6t6 7q12 2 8 25q-6 16 13.5 79.5t48.5 108.5q16 37 57 95.5t76 87.5q86 86 196 123q41 10 50 10q12 0 22 -8.5t27 -22.5l8 -4q-10 102 -33 170l-61 -14q-37 -6 -47 -6q-16 0 -25 2q-8 -2 -22 -2q-35 0 -60 24q-16 16 -16 29q0 33 104 65q23 10 40.5 17.5 t29.5 13.5q-37 59 -47 72l-39 39q-39 33 -53 59q-2 8 41 45t59 39q12 8 46 -12.5t44 -32.5q6 6 23.5 -13.5t35 -43t27.5 -37.5q29 -41 41 -64l27 6q33 8 67 9q49 0 82 -21q29 -18 29 -47q0 -20 -15.5 -33.5t-44.5 -15.5q-41 -14 -90 -27q37 -123 37 -262 q0 -121 -27.5 -236.5t-80.5 -207.5q-41 -72 -89.5 -118t-115.5 -95q-55 -39 -97 -61.5t-83 -24.5q-25 -4 -39.5 3t-40.5 29q-47 45 -83 99.5t-30 87.5q4 12 4 20q0 10 -2 17.5t-4 9.5q-8 8 -8 11zM348 227q0 -27 12.5 -41t32.5 -14q55 0 131 82q25 35 45 57q35 39 54.5 71 t38.5 81q14 61 14 112q0 35 -12 41q-20 10 -41 11q-47 0 -95 -47q-57 -53 -88.5 -115t-81.5 -186q-10 -35 -10 -52z" />
<glyph unicode="&#xf1;" horiz-adv-x="921" d="M174 176q0 57 20.5 109.5t61.5 132.5q18 61 47 123q31 72 44.5 109.5t17.5 78.5q0 2 -1 2h-1q0 8 6 14.5t14 6.5q4 6 25 6q53 0 92 -29t39 -88q0 -31 -11.5 -58.5t-41.5 -90.5l-23 -46q-6 -12 -18.5 -35.5t-12.5 -29.5q51 35 121 92q102 82 168 127t96 45q27 0 75 -29.5 t56 -54.5q0 -14 -3 -43t-5 -51l2 -64q2 -16 2 -49q0 -66 -8 -92q2 -2 4 -6t2 -6l-2 -4q2 -20 22.5 -65.5t20.5 -49.5q0 -23 -29.5 -50.5t-56.5 -31.5q-129 5 -129 146q0 39 6 75q4 45 4 64v10v23q-6 41 -26 41q-37 0 -136.5 -71t-207.5 -169q-33 -35 -56 -66 q-20 -27 -30.5 -33t-32.5 -6q-29 4 -65.5 43t-49.5 70zM477 950q0 27 35.5 79t97.5 83q25 8 51 8q59 0 94 -33q43 -41 69 -57t50 -16q10 0 35 8q27 8 78 33q39 20 71 35q20 8 41 -23t17 -51q0 -16 -12.5 -40t-45.5 -40q-8 -4 -51 -29q-49 -29 -75.5 -42t-36.5 -13 q-33 0 -55.5 10t-44 25.5t-31.5 21.5q-8 4 -29 23.5t-41.5 34t-34.5 14.5t-24.5 -8t-24.5 -27q-8 -12 -19.5 -23.5t-25.5 -13.5q-2 -12 -12.5 -26.5t-14.5 -3.5q-29 4 -45 24.5t-16 46.5z" />
<glyph unicode="&#xf2;" horiz-adv-x="722" d="M172 281.5q0 3.5 4 6.5t6 7q12 0 9 22q-4 16 14 71.5t47 103.5q23 37 67 92t79 84q102 88 184 106q41 10 80 10q59 0 92 -32q45 -18 65.5 -53t26.5 -93q2 -12 2 -41q0 -152 -115 -315q-47 -68 -94 -109t-115 -82q-37 -25 -77.5 -33t-110.5 -12q-25 0 -39 8.5t-41 30.5 q-41 43 -63.5 89t-16.5 81q6 14 5 28.5t-1 18.5q-8 8 -8 11.5zM377 264q0 -70 49 -69q47 0 119 69q39 35 56.5 71t49.5 126q12 18 13 74q0 49 -15 55q-10 8 -24 8q-18 0 -60 -29q-72 -61 -119.5 -127.5t-66.5 -152.5q-2 -8 -2 -25zM522 1151q0 23 17.5 43t40 32.5t28.5 12.5 q29 0 47 -27q23 -18 68 -126.5t45 -135.5q0 -16 -39 -52t-55 -40l-8 -2q-13 0 -21 15.5t-12 46.5q-6 20 -49 96q-29 49 -45.5 81.5t-16.5 55.5z" />
<glyph unicode="&#xf3;" horiz-adv-x="722" d="M172 281.5q0 3.5 4 6.5t6 7q12 0 9 22q-4 16 14 71.5t47 103.5q23 37 67 92t79 84q102 88 184 106q41 10 80 10q59 0 92 -32q45 -18 65.5 -53t26.5 -93q2 -12 2 -41q0 -152 -115 -315q-47 -68 -94 -109t-115 -82q-37 -25 -77.5 -33t-110.5 -12q-25 0 -39 8.5t-41 30.5 q-41 43 -63.5 89t-16.5 81q6 14 5 28.5t-1 18.5q-8 8 -8 11.5zM377 264q0 -70 49 -69q47 0 119 69q39 35 56.5 71t49.5 126q12 18 13 74q0 49 -15 55q-10 8 -24 8q-18 0 -60 -29q-72 -61 -119.5 -127.5t-66.5 -152.5q-2 -8 -2 -25zM672 979l2 20q4 18 88 108.5t113 100.5 q16 10 30 13q27 0 52.5 -29t25.5 -76q0 -18 -23.5 -42.5t-76.5 -67.5q-74 -57 -92 -86q-27 -39 -58 -39q-61 0 -61 98z" />
<glyph unicode="&#xf4;" horiz-adv-x="722" d="M172 281.5q0 3.5 4 6.5t6 7q12 0 9 22q-4 16 14 71.5t47 103.5q23 37 67 92t79 84q102 88 184 106q41 10 80 10q59 0 92 -32q45 -18 65.5 -53t26.5 -93q2 -12 2 -41q0 -152 -115 -315q-47 -68 -94 -109t-115 -82q-37 -25 -77.5 -33t-110.5 -12q-25 0 -39 8.5t-41 30.5 q-41 43 -63.5 89t-16.5 81q6 14 5 28.5t-1 18.5q-8 8 -8 11.5zM377 264q0 -70 49 -69q47 0 119 69q39 35 56.5 71t49.5 126q12 18 13 74q0 49 -15 55q-10 8 -24 8q-18 0 -60 -29q-72 -61 -119.5 -127.5t-66.5 -152.5q-2 -8 -2 -25zM424 944q0 23 16 45q16 20 92 87t115 87 q27 20 53 21q31 0 50 -25q33 -27 86 -81t75 -79q18 -20 19 -47q0 -29 -20.5 -52t-47.5 -23q-33 0 -59 32q-41 49 -111 109q-35 -20 -85 -55t-79 -60q-24 -24 -49 -24q-23 0 -39 20.5t-16 44.5z" />
<glyph unicode="&#xf5;" horiz-adv-x="722" d="M172 281.5q0 3.5 4 6.5t6 7q12 0 9 22q-4 16 14 71.5t47 103.5q23 37 67 92t79 84q102 88 184 106q41 10 80 10q59 0 92 -32q45 -18 65.5 -53t26.5 -93q2 -12 2 -41q0 -152 -115 -315q-47 -68 -94 -109t-115 -82q-37 -25 -77.5 -33t-110.5 -12q-25 0 -39 8.5t-41 30.5 q-41 43 -63.5 89t-16.5 81q6 14 5 28.5t-1 18.5q-8 8 -8 11.5zM377 264q0 -70 49 -69q47 0 119 69q39 35 56.5 71t49.5 126q12 18 13 74q0 49 -15 55q-10 8 -24 8q-18 0 -60 -29q-72 -61 -119.5 -127.5t-66.5 -152.5q-2 -8 -2 -25zM377 950q0 27 35.5 79t97.5 83q25 8 51 8 q59 0 94 -33q43 -41 69 -57t50 -16q10 0 35 8q27 8 78 33q39 20 71 35q20 8 41 -23t17 -51q0 -16 -12.5 -40t-45.5 -40q-8 -4 -51 -29q-49 -29 -75.5 -42t-36.5 -13q-33 0 -55.5 10t-44 25.5t-31.5 21.5q-8 4 -29 23.5t-41.5 34t-34.5 14.5t-24.5 -8t-24.5 -27 q-8 -12 -19.5 -23.5t-25.5 -13.5q-2 -12 -12.5 -26.5t-14.5 -3.5q-29 4 -45 24.5t-16 46.5z" />
<glyph unicode="&#xf6;" horiz-adv-x="722" d="M172 281.5q0 3.5 4 6.5t6 7q12 0 9 22q-4 16 14 71.5t47 103.5q23 37 67 92t79 84q102 88 184 106q41 10 80 10q59 0 92 -32q45 -18 65.5 -53t26.5 -93q2 -12 2 -41q0 -152 -115 -315q-47 -68 -94 -109t-115 -82q-37 -25 -77.5 -33t-110.5 -12q-25 0 -39 8.5t-41 30.5 q-41 43 -63.5 89t-16.5 81q6 14 5 28.5t-1 18.5q-8 8 -8 11.5zM377 264q0 -70 49 -69q47 0 119 69q39 35 56.5 71t49.5 126q12 18 13 74q0 49 -15 55q-10 8 -24 8q-18 0 -60 -29q-72 -61 -119.5 -127.5t-66.5 -152.5q-2 -8 -2 -25zM444 975q6 23 22.5 58.5t43.5 58.5 q6 4 16.5 16t20.5 14q18 12 35 13q41 0 75 -62q16 -37 17 -57q0 -23 -13.5 -46.5t-44.5 -58.5q-43 -57 -82 -57q-27 0 -51 25q-18 16 -30.5 50t-8.5 46zM762 975q6 23 22.5 58.5t42.5 58.5q6 4 16.5 16t20.5 14q18 12 35 13q41 0 76 -62q16 -37 16 -57q0 -23 -13 -46.5 t-44 -58.5q-43 -57 -82 -57q-27 0 -51 25q-19 16 -31 50t-8 46z" />
<glyph unicode="&#xf7;" horiz-adv-x="913" d="M193 430q0 35 114 47q61 14 231.5 21.5t284.5 7.5q115 0 160 -43q18 -18 18 -43q0 -23 -19 -37t-48 -10l-160 -11q-68 -2 -200 -6t-226 -4q-41 0 -72 10q-51 0 -73 41q-10 12 -10 27zM387 53.5q-2 20.5 4 24.5q16 18 41 72q25 47 29 55t12 18t14 13q16 8 27 8 q27 0 58.5 -18.5t48.5 -43.5q14 -33 14 -57q0 -49 -47 -109q-20 -27 -49 -41t-58 -14t-47 12q-20 15 -32.5 37.5t-14.5 43zM575.5 726q-2.5 19 2.5 24q18 23 47 84l22 45q14 29 27 30q10 6 26 6q27 0 59 -18t48 -43q14 -33 14 -57q0 -49 -47 -109q-18 -27 -47 -41t-57 -14 q-31 0 -47 14q-21 15 -33 37.5t-14.5 41.5z" />
<glyph unicode="&#xf8;" horiz-adv-x="722" d="M109 8q0 45 61 107l49 49v16q2 6 2 19q0 12 -2 19t-2 9q-8 6 -9 9.5t2 7.5t5 8q8 2 8 8t-4 14q-6 16 7.5 75t35.5 110q16 39 52 100.5t67 93.5q51 59 85 88t77 45q35 14 71 15q49 0 86 -29q84 -25 119 -78q84 74 88 80q6 16 17 17q10 0 22 -12.5t19 -26.5l2 -11 q0 -16 -19 -34q-8 -16 -22.5 -29.5t-38 -30t-39.5 -29.5q6 -33 6 -71q0 -113 -72 -250q-39 -78 -76.5 -128t-91.5 -95q-37 -31 -97 -56.5t-111 -35.5q-25 -2 -40.5 3t-43.5 23q-45 35 -74 86q-68 -70 -74 -82q-10 -23 -17 -33t-16 -10q-33 8 -32 39zM365 209q0 -27 12 -42 t33 -15q61 0 170 122q36 43 59 79t45 98q6 14 14 59q-57 -45 -149 -127q-66 -55 -184 -174zM403 352q141 139 238 205q16 8 61 43q-4 10 -8 12q-18 12 -41 13q-41 0 -98 -50q-53 -45 -83 -90t-69 -133z" />
<glyph unicode="&#xf9;" horiz-adv-x="757" d="M211 213q0 10 4 39q4 76 21.5 145.5t66.5 177.5l62 123l32 64q10 4 33 4q33 0 61.5 -12.5t30.5 -32.5q6 -8 6 -31q0 -66 -55 -174l-16 -39q-37 -88 -53.5 -137t-16.5 -82t25 -43q10 -6 24 -6q41 0 99.5 63.5t119.5 212.5q29 70 35 144q-4 23 12.5 49.5t42.5 42.5 q8 12 22.5 19.5t18.5 -1.5l33 2q6 2 19.5 -18.5t19.5 -24.5q20 -16 21 -65q0 -68 -50 -187q-39 -82 -52 -126t-15 -84q0 -43 7 -67t36 -48q33 -23 26 -107q-4 -14 -22 -22t-45 -8q-45 0 -76 20q-18 19 -29.5 48.5t-27.5 90.5q-4 12 -4 36v34q-8 -18 -20.5 -39.5t-24.5 -30.5 q-47 -47 -95 -69q-66 -41 -112 -41q-57 0 -99 53q-66 53 -65 127zM500 1155q0 23 17.5 43t40 32.5t28.5 12.5q29 0 47 -27q23 -18 68 -126.5t45 -135.5q0 -16 -39 -52t-55 -40l-8 -2q-13 0 -21 15.5t-12 46.5q-6 20 -49 96q-29 49 -45.5 81.5t-16.5 55.5z" />
<glyph unicode="&#xfa;" horiz-adv-x="757" d="M211 213q0 10 4 39q4 76 21.5 145.5t66.5 177.5l62 123l32 64q10 4 33 4q33 0 61.5 -12.5t30.5 -32.5q6 -8 6 -31q0 -66 -55 -174l-16 -39q-37 -88 -53.5 -137t-16.5 -82t25 -43q10 -6 24 -6q41 0 99.5 63.5t119.5 212.5q29 70 35 144q-4 23 12.5 49.5t42.5 42.5 q8 12 22.5 19.5t18.5 -1.5l33 2q6 2 19.5 -18.5t19.5 -24.5q20 -16 21 -65q0 -68 -50 -187q-39 -82 -52 -126t-15 -84q0 -43 7 -67t36 -48q33 -23 26 -107q-4 -14 -22 -22t-45 -8q-45 0 -76 20q-18 19 -29.5 48.5t-27.5 90.5q-4 12 -4 36v34q-8 -18 -20.5 -39.5t-24.5 -30.5 q-47 -47 -95 -69q-66 -41 -112 -41q-57 0 -99 53q-66 53 -65 127zM600 973l2 20q4 18 88 108.5t113 100.5q16 10 30 13q27 0 52.5 -29t25.5 -76q0 -18 -23.5 -42.5t-76.5 -67.5q-74 -57 -92 -86q-27 -39 -58 -39q-61 0 -61 98z" />
<glyph unicode="&#xfb;" horiz-adv-x="757" d="M211 213q0 10 4 39q4 76 21.5 145.5t66.5 177.5l62 123l32 64q10 4 33 4q33 0 61.5 -12.5t30.5 -32.5q6 -8 6 -31q0 -66 -55 -174l-16 -39q-37 -88 -53.5 -137t-16.5 -82t25 -43q10 -6 24 -6q41 0 99.5 63.5t119.5 212.5q29 70 35 144q-4 23 12.5 49.5t42.5 42.5 q8 12 22.5 19.5t18.5 -1.5l33 2q6 2 19.5 -18.5t19.5 -24.5q20 -16 21 -65q0 -68 -50 -187q-39 -82 -52 -126t-15 -84q0 -43 7 -67t36 -48q33 -23 26 -107q-4 -14 -22 -22t-45 -8q-45 0 -76 20q-18 19 -29.5 48.5t-27.5 90.5q-4 12 -4 36v34q-8 -18 -20.5 -39.5t-24.5 -30.5 q-47 -47 -95 -69q-66 -41 -112 -41q-57 0 -99 53q-66 53 -65 127zM444 944q0 23 16 45q16 20 92 87t115 87q27 20 53 21q31 0 50 -25q33 -27 86 -81t75 -79q18 -20 19 -47q0 -29 -20.5 -52t-47.5 -23q-33 0 -59 32q-41 49 -111 109q-35 -20 -85 -55t-79 -60q-24 -24 -49 -24 q-23 0 -39 20.5t-16 44.5z" />
<glyph unicode="&#xfc;" horiz-adv-x="757" d="M211 213q0 10 4 39q4 76 21.5 145.5t66.5 177.5l62 123l32 64q10 4 33 4q33 0 61.5 -12.5t30.5 -32.5q6 -8 6 -31q0 -66 -55 -174l-16 -39q-37 -88 -53.5 -137t-16.5 -82t25 -43q10 -6 24 -6q41 0 99.5 63.5t119.5 212.5q29 70 35 144q-4 23 12.5 49.5t42.5 42.5 q8 12 22.5 19.5t18.5 -1.5l33 2q6 2 19.5 -18.5t19.5 -24.5q20 -16 21 -65q0 -68 -50 -187q-39 -82 -52 -126t-15 -84q0 -43 7 -67t36 -48q33 -23 26 -107q-4 -14 -22 -22t-45 -8q-45 0 -76 20q-18 19 -29.5 48.5t-27.5 90.5q-4 12 -4 36v34q-8 -18 -20.5 -39.5t-24.5 -30.5 q-47 -47 -95 -69q-66 -41 -112 -41q-57 0 -99 53q-66 53 -65 127zM465 975q6 23 22.5 58.5t43.5 58.5q6 4 16.5 16t20.5 14q18 12 35 13q41 0 75 -62q16 -37 17 -57q0 -23 -13.5 -46.5t-44.5 -58.5q-43 -57 -82 -57q-27 0 -51 25q-18 16 -30.5 50t-8.5 46zM783 975 q6 23 22.5 58.5t42.5 58.5q6 4 16.5 16t20.5 14q18 12 35 13q41 0 76 -62q16 -37 16 -57q0 -23 -13 -46.5t-44 -58.5q-43 -57 -82 -57q-27 0 -51 25q-19 16 -31 50t-8 46z" />
<glyph unicode="&#xfd;" horiz-adv-x="698" d="M-139 -311q0 35 27.5 54t60.5 19q20 0 31 -10q4 -2 32.5 -22.5t77.5 -20.5q92 0 180 121q86 137 131 219q-41 25 -79.5 83t-34.5 81v23q-16 0 -23.5 61t-7.5 152q0 98 4 137q8 33 9 81t1 62q-2 29 11.5 50.5t25.5 29.5q27 10 43 10q94 0 94 -201q0 -39 -2 -59 q-4 -98 -4 -139q0 -158 43 -205q18 43 31 61q29 59 33 76q4 14 22 47l27 56q4 12 26.5 78.5t45.5 107.5q8 16 24.5 48t26.5 46.5t22 18.5q16 14 35 14q18 0 39 -12q27 -29 39 -48.5t12 -45.5q0 -43 -33 -103q-16 -47 -35.5 -88t-29.5 -53l-47 -109q-31 -68 -76 -157 q-55 -115 -78 -170l-26 -43q-102 -164 -158 -230q-45 -41 -106.5 -85t-98.5 -50q-39 -8 -86 -8q-84 0 -149.5 28.5t-75.5 69.5zM588 979l2 20q4 18 88 108.5t113 100.5q16 10 30 13q27 0 52.5 -29t25.5 -76q0 -18 -23.5 -42.5t-76.5 -67.5q-74 -57 -92 -86q-27 -39 -58 -39 q-61 0 -61 98z" />
<glyph unicode="&#xfe;" horiz-adv-x="774" d="M61 -371q0 8 5 33q23 86 22 119q0 10 4 29.5t6 35.5q8 14 15.5 44t7.5 53q0 10 7 23.5t17 21.5q0 12 6.5 37.5t8.5 35.5q10 55 79.5 262t118.5 334q29 68 127.5 333t98.5 284q0 8 5 15t17 20q16 16 43 16q33 0 68 -22q14 -23 20 -39.5t6 -36.5q0 -6 -4 -39 q0 -25 -41 -127.5t-114 -276.5q-14 -33 -38 -91t-22 -56q100 61 187 61q92 0 147 -64.5t55 -152.5q0 -35 -32.5 -103.5t-53.5 -86.5q-12 0 -32 -43q-25 -33 -93.5 -69t-93.5 -27q-2 0 -6 -5.5t-4 -13.5t-61.5 -28.5t-106.5 -20.5q-25 0 -37 3t-24 13q-14 -14 -15 -26 q0 -20 -20.5 -64.5t-32.5 -44.5q-2 -2 -5 -8t5 -14q0 -6 -2 -29t-10 -35q0 -18 -6.5 -50t-14.5 -48q0 -25 -7 -48.5t-15 -23.5q-12 -4 -13 -59q-2 -49 -31.5 -88t-56.5 -39l-18 -2q-20 0 -31 18q-2 2 -18.5 24.5t-16.5 65.5zM395 258q0 -18 13 -18q28 0 107 31.5t116 62.5 q47 39 71.5 71.5t24.5 65.5q0 29 -18 55q-14 23 -43 23q-68 0 -177 -105q-37 -39 -65.5 -97t-28.5 -89z" />
<glyph unicode="&#xff;" horiz-adv-x="698" d="M-139 -311q0 35 27.5 54t60.5 19q20 0 31 -10q4 -2 32.5 -22.5t77.5 -20.5q92 0 180 121q86 137 131 219q-41 25 -79.5 83t-34.5 81v23q-16 0 -23.5 61t-7.5 152q0 98 4 137q8 33 9 81t1 62q-2 29 11.5 50.5t25.5 29.5q27 10 43 10q94 0 94 -201q0 -39 -2 -59 q-4 -98 -4 -139q0 -158 43 -205q18 43 31 61q29 59 33 76q4 14 22 47l27 56q4 12 26.5 78.5t45.5 107.5q8 16 24.5 48t26.5 46.5t22 18.5q16 14 35 14q18 0 39 -12q27 -29 39 -48.5t12 -45.5q0 -43 -33 -103q-16 -47 -35.5 -88t-29.5 -53l-47 -109q-31 -68 -76 -157 q-55 -115 -78 -170l-26 -43q-102 -164 -158 -230q-45 -41 -106.5 -85t-98.5 -50q-39 -8 -86 -8q-84 0 -149.5 28.5t-75.5 69.5zM360 975q6 23 22.5 58.5t43.5 58.5q6 4 16.5 16t20.5 14q18 12 35 13q41 0 75 -62q16 -37 17 -57q0 -23 -13.5 -46.5t-44.5 -58.5 q-43 -57 -82 -57q-27 0 -51 25q-18 16 -30.5 50t-8.5 46zM678 975q6 23 22.5 58.5t42.5 58.5q6 4 16.5 16t20.5 14q18 12 35 13q41 0 76 -62q16 -37 16 -57q0 -23 -13 -46.5t-44 -58.5q-43 -57 -82 -57q-27 0 -51 25q-19 16 -31 50t-8 46z" />
<glyph unicode="&#x100;" horiz-adv-x="1028" d="M76 -18q0 20 17.5 58t60.5 120q12 27 47 94q88 168 88 248q-2 4 -2 12q0 20 33 37q6 6 44 34.5t60 65.5q27 61 68 136t141 245q98 180 209 326q20 29 46 45t44 16q63 0 130 -49t87 -98q8 -14 8 -62q0 -63 -14 -215q-4 -27 -8 -84q-6 -92 -19 -196q-23 -229 -33 -358.5 t-10 -241.5q0 -57 2 -84v-15l-2 -47q-12 -12 -49 -12q-41 0 -82 13.5t-45 31.5q-2 2 -6 4t-4 19l2 45l6 114l10 314l-26 -2q-41 0 -173 -16.5t-167 -26.5q-18 0 -45 -25t-47 -63q-6 -20 -29 -58.5t-23 -44.5q-12 -8 -21 -21.5t-11 -17.5q0 -23 -40 -116t-79 -152l-55 -78 l-72 55q-23 12 -32 22.5t-9 27.5zM606 637q15 2 58 9t76 9q98 25 135 25q20 0 28 -4q6 -8 13.5 -11t9.5 -3q4 16 32.5 223t28.5 254q0 33 -2 56.5t-4 29.5q-18 0 -83.5 -97.5t-127.5 -220.5q-47 -84 -65 -84q-14 -14 -61.5 -96t-37.5 -90zM798 1630q0 20 28 31.5t87 17.5 q74 16 125 22.5t129 6.5q94 0 141 -41q20 -20 21 -43q0 -25 -18.5 -39t-49.5 -10l-143 -8q-12 0 -59.5 -5.5t-104.5 -5.5q-41 1 -72 11q-51 0 -73 39q-10 16 -11 24z" />
<glyph unicode="&#x101;" horiz-adv-x="894" d="M156 152q-16 16 22.5 106t104.5 213q12 12 31.5 43t25.5 35q0 8 6 15t15 7l16 33q8 18 80 88t113 94q39 27 84 27q49 0 83 -29l56 -47q61 -51 69 -59l76 -68l-35 -102q-18 -55 -18 -105q0 -78 43 -145q10 -23 27.5 -35t46.5 -16q45 -8 45 -45q0 -45 -16.5 -67.5 t-39.5 -28.5q-33 -4 -45 -5q-59 0 -108 31t-86 105q-8 12 -21.5 44.5t-15.5 45.5q-14 -20 -47 -54q-211 -213 -342 -213q-45 0 -80 23q-6 12 -35 32.5t-29 24.5q0 8 -9 23.5t-17 28.5zM359 213q33 -4 127 74q10 8 22 19t27 24q57 47 89 78.5t64 76.5l45 74 q-20 45 -36.5 60.5t-32.5 15.5q-41 0 -102.5 -73t-147.5 -220q-23 -37 -37 -77t-18 -52zM545 1001q0 20 27.5 31.5t86.5 18.5q74 16 125 22t129 6q94 0 142 -41q20 -20 20 -43q0 -25 -18.5 -39t-48.5 -10l-144 -8q-12 0 -59 -5t-105 -5q-40 0 -71 10q-51 0 -74 39 q-10 16 -10 24z" />
<glyph unicode="&#x102;" horiz-adv-x="1028" d="M76 -18q0 20 17.5 58t60.5 120q12 27 47 94q88 168 88 248q-2 4 -2 12q0 20 33 37q6 6 44 34.5t60 65.5q27 61 68 136t141 245q98 180 209 326q20 29 46 45t44 16q63 0 130 -49t87 -98q8 -14 8 -62q0 -63 -14 -215q-4 -27 -8 -84q-6 -92 -19 -196q-23 -229 -33 -358.5 t-10 -241.5q0 -57 2 -84v-15l-2 -47q-12 -12 -49 -12q-41 0 -82 13.5t-45 31.5q-2 2 -6 4t-4 19l2 45l6 114l10 314l-26 -2q-41 0 -173 -16.5t-167 -26.5q-18 0 -45 -25t-47 -63q-6 -20 -29 -58.5t-23 -44.5q-12 -8 -21 -21.5t-11 -17.5q0 -23 -40 -116t-79 -152l-55 -78 l-72 55q-23 12 -32 22.5t-9 27.5zM606 637q15 2 58 9t76 9q98 25 135 25q20 0 28 -4q6 -8 13.5 -11t9.5 -3q4 16 32.5 223t28.5 254q0 33 -2 56.5t-4 29.5q-18 0 -83.5 -97.5t-127.5 -220.5q-47 -84 -65 -84q-14 -14 -61.5 -96t-37.5 -90zM844 1620q0 31 8 57q12 47 35.5 72 t50.5 25q23 0 39 -17.5t16 -44.5q0 -14 -2 -22q-6 -18 -6 -43q0 -70 108 -68q59 2 119 107q47 84 90 83q23 0 37 -22.5t14 -52.5q0 -8 -4 -29q-12 -53 -50 -106.5t-94 -88t-124 -34.5q-98 0 -167.5 48t-69.5 136z" />
<glyph unicode="&#x103;" horiz-adv-x="894" d="M156 152q-16 16 22.5 106t104.5 213q12 12 31.5 43t25.5 35q0 8 6 15t15 7l16 33q8 18 80 88t113 94q39 27 84 27q49 0 83 -29l56 -47q61 -51 69 -59l76 -68l-35 -102q-18 -55 -18 -105q0 -78 43 -145q10 -23 27.5 -35t46.5 -16q45 -8 45 -45q0 -45 -16.5 -67.5 t-39.5 -28.5q-33 -4 -45 -5q-59 0 -108 31t-86 105q-8 12 -21.5 44.5t-15.5 45.5q-14 -20 -47 -54q-211 -213 -342 -213q-45 0 -80 23q-6 12 -35 32.5t-29 24.5q0 8 -9 23.5t-17 28.5zM359 213q33 -4 127 74q10 8 22 19t27 24q57 47 89 78.5t64 76.5l45 74 q-20 45 -36.5 60.5t-32.5 15.5q-41 0 -102.5 -73t-147.5 -220q-23 -37 -37 -77t-18 -52zM555 1057q0 31 8 57q12 47 35.5 71.5t50.5 24.5q23 0 39 -17t16 -44q0 -14 -2 -23q-6 -18 -6 -43q0 -70 109 -67q59 2 119 106q47 84 90 84q23 0 37 -22.5t14 -53.5q0 -8 -4 -28 q-12 -53 -50 -106.5t-94.5 -88.5t-124.5 -35q-98 0 -167.5 48.5t-69.5 136.5z" />
<glyph unicode="&#x104;" horiz-adv-x="1028" d="M76 -18q0 20 17.5 58t60.5 120q12 27 47 94q88 168 88 248q-2 4 -2 12q0 20 33 37q6 6 44 34.5t60 65.5q27 61 68 136t141 245q98 180 209 326q20 29 46 45t44 16q63 0 130 -49t87 -98q8 -14 8 -62q0 -63 -14 -215q-4 -27 -8 -84q-6 -92 -19 -196q-23 -229 -33 -358.5 t-10 -241.5q0 -57 2 -84v-15l-2 -47q-12 -12 -49 -12q-41 0 -82 13.5t-45 31.5q-2 2 -6 4t-4 19l2 45l6 114l10 314l-26 -2q-41 0 -173 -16.5t-167 -26.5q-18 0 -45 -25t-47 -63q-6 -20 -29 -58.5t-23 -44.5q-12 -8 -21 -21.5t-11 -17.5q0 -23 -40 -116t-79 -152l-55 -78 l-72 55q-23 12 -32 22.5t-9 27.5zM606 637q15 2 58 9t76 9q98 25 135 25q20 0 28 -4q6 -8 13.5 -11t9.5 -3q4 16 32.5 223t28.5 254q0 33 -2 56.5t-4 29.5q-18 0 -83.5 -97.5t-127.5 -220.5q-47 -84 -65 -84q-14 -14 -61.5 -96t-37.5 -90zM656 -266q0 43 24 82 q35 61 115 134t160 124l112 -61q-47 -29 -108.5 -81t-98.5 -95q-25 -31 -35 -46.5t-10 -31.5q0 -14 9 -25q4 -8 13 -10t23 -2q35 4 67 21.5t42 21.5l55 31q12 6 23 6q18 0 27.5 -16.5t9.5 -39.5q0 -25 -10.5 -45t-30.5 -28l-47 -21q-156 -70 -201 -75q-53 14 -96 57t-43 100 z" />
<glyph unicode="&#x105;" horiz-adv-x="894" d="M156 152q-16 16 22.5 106t104.5 213q12 12 31.5 43t25.5 35q0 8 6 15t15 7l16 33q8 18 80 88t113 94q39 27 84 27q49 0 83 -29l56 -47q61 -51 69 -59l76 -68l-35 -102q-18 -55 -18 -105q0 -78 43 -145q10 -23 27.5 -35t46.5 -16q45 -8 45 -45q0 -45 -16.5 -67.5 t-39.5 -28.5q-33 -4 -45 -5q-59 0 -108 31t-86 105q-8 12 -21.5 44.5t-15.5 45.5q-14 -20 -47 -54q-211 -213 -342 -213q-45 0 -80 23q-6 12 -35 32.5t-29 24.5q0 8 -9 23.5t-17 28.5zM359 213q33 -4 127 74q10 8 22 19t27 24q57 47 89 78.5t64 76.5l45 74 q-20 45 -36.5 60.5t-32.5 15.5q-41 0 -102.5 -73t-147.5 -220q-23 -37 -37 -77t-18 -52zM625 -150q0 43 24 82q35 61 115 134t160 124l112 -61q-47 -29 -108.5 -81t-98.5 -95q-25 -31 -35 -46.5t-10 -31.5q0 -14 9 -25q4 -8 13 -10t23 -2q35 4 67 21.5t42 21.5l55 31 q12 6 23 6q18 0 27.5 -16.5t9.5 -39.5q0 -25 -10.5 -45t-30.5 -28l-47 -21q-156 -70 -201 -75q-53 14 -96 57t-43 100z" />
<glyph unicode="&#x106;" horiz-adv-x="987" d="M234 256q0 121 14 206t49 173l19 43q33 84 47 110q35 80 123 207q82 123 130 183.5t99 104.5t149 112q59 43 146 43q68 0 124 -33t85 -102q20 -35 20 -97q0 -98 -47 -212.5t-113 -174.5q-14 -14 -38 -14q-25 0 -53.5 14.5t-51.5 34.5q-18 35 -20 41t8 8q18 23 54 87.5 t48 101.5l13 57q12 53 12 70q0 18 -15 32q-6 6 -16 6q-16 0 -57 -20q-47 -20 -111.5 -82.5t-128.5 -148.5q-94 -123 -144 -203t-77 -162l-23 -53q2 -8 -6 -41t-18 -53q-29 -119 -29 -215q0 -76 15.5 -131.5t44.5 -81.5q16 -14 47 -15q33 0 74.5 15.5t89 36t65.5 28.5 q47 18 89 43t63 45q53 39 86 39q27 8 42 -16.5t15 -67.5q0 -29 -39 -68.5t-92 -70.5q-23 -23 -100 -53q-66 -47 -153 -84t-159 -37q-16 0 -41 4q-63 22 -121.5 65t-85.5 109q-33 92 -32 217zM930 1550l2 21q0 18 86 108t115 101q16 10 31 12q27 0 52 -28.5t25 -75.5 q0 -20 -25.5 -46t-76.5 -67q-8 -6 -42 -35t-48 -49q-27 -39 -57 -39q-62 0 -62 98z" />
<glyph unicode="&#x107;" horiz-adv-x="727" d="M191 213q0 96 43 223t106 207q51 59 88 96t68 49q27 10 67.5 18.5t61.5 8.5q41 -10 76.5 -28.5t35.5 -41.5l11 -10q14 0 33.5 -45t19.5 -82q0 -18 -6 -30q-8 -39 -31.5 -76t-40.5 -37q-23 0 -22 -12q0 -10 -25 -11q-20 0 -43 9.5t-27 23.5q0 10 17 82q6 31 6 51 q0 37 -25 37q-6 0 -30 -8q-53 -29 -85 -67t-56.5 -103.5t-57.5 -190.5q-6 -25 -6 -45q0 -25 6 -40t12 -17q10 -4 37 -4q51 0 82 18q37 20 72 46t43 32q4 4 16 23.5t27 25.5q12 18 30.5 22.5t37 4.5h24.5q27 -8 51.5 -37t7.5 -37q-6 0 -8 -4t-2 -6q4 -10 -33 -54t-82 -84 t-61 -40q-8 0 -14.5 -2t-6.5 -10t-62 -38t-101 -38q-25 -4 -39 -4q-84 0 -148.5 54t-64.5 138zM670 979l2 20q4 18 88 108.5t113 100.5q16 10 30 13q27 0 52.5 -29t25.5 -76q0 -18 -23.5 -42.5t-76.5 -67.5q-74 -57 -92 -86q-27 -39 -58 -39q-61 0 -61 98z" />
<glyph unicode="&#x108;" horiz-adv-x="987" d="M234 256q0 121 14 206t49 173l19 43q33 84 47 110q35 80 123 207q82 123 130 183.5t99 104.5t149 112q59 43 146 43q68 0 124 -33t85 -102q20 -35 20 -97q0 -98 -47 -212.5t-113 -174.5q-14 -14 -38 -14q-25 0 -53.5 14.5t-51.5 34.5q-18 35 -20 41t8 8q18 23 54 87.5 t48 101.5l13 57q12 53 12 70q0 18 -15 32q-6 6 -16 6q-16 0 -57 -20q-47 -20 -111.5 -82.5t-128.5 -148.5q-94 -123 -144 -203t-77 -162l-23 -53q2 -8 -6 -41t-18 -53q-29 -119 -29 -215q0 -76 15.5 -131.5t44.5 -81.5q16 -14 47 -15q33 0 74.5 15.5t89 36t65.5 28.5 q47 18 89 43t63 45q53 39 86 39q27 8 42 -16.5t15 -67.5q0 -29 -39 -68.5t-92 -70.5q-23 -23 -100 -53q-66 -47 -153 -84t-159 -37q-16 0 -41 4q-63 22 -121.5 65t-85.5 109q-33 92 -32 217zM826 1530q0 23 16 45q16 20 92 87t115 87q27 20 53 20q31 0 49 -24 q33 -27 86.5 -81t75.5 -79q18 -20 18 -47q0 -29 -20 -52.5t-47 -23.5q-33 0 -59 33q-41 49 -111 109q-35 -20 -85 -55.5t-79 -59.5q-24 -25 -49 -25q-23 0 -39 20.5t-16 45.5z" />
<glyph unicode="&#x109;" horiz-adv-x="727" d="M191 213q0 96 43 223t106 207q51 59 88 96t68 49q27 10 67.5 18.5t61.5 8.5q41 -10 76.5 -28.5t35.5 -41.5l11 -10q14 0 33.5 -45t19.5 -82q0 -18 -6 -30q-8 -39 -31.5 -76t-40.5 -37q-23 0 -22 -12q0 -10 -25 -11q-20 0 -43 9.5t-27 23.5q0 10 17 82q6 31 6 51 q0 37 -25 37q-6 0 -30 -8q-53 -29 -85 -67t-56.5 -103.5t-57.5 -190.5q-6 -25 -6 -45q0 -25 6 -40t12 -17q10 -4 37 -4q51 0 82 18q37 20 72 46t43 32q4 4 16 23.5t27 25.5q12 18 30.5 22.5t37 4.5h24.5q27 -8 51.5 -37t7.5 -37q-6 0 -8 -4t-2 -6q4 -10 -33 -54t-82 -84 t-61 -40q-8 0 -14.5 -2t-6.5 -10t-62 -38t-101 -38q-25 -4 -39 -4q-84 0 -148.5 54t-64.5 138zM422 944q0 23 16 45q16 20 92 87t115 87q27 20 53 21q31 0 50 -25q33 -27 86 -81t75 -79q18 -20 19 -47q0 -29 -20.5 -52t-47.5 -23q-33 0 -59 32q-41 49 -111 109 q-35 -20 -85 -55t-79 -60q-24 -24 -49 -24q-23 0 -39 20.5t-16 44.5z" />
<glyph unicode="&#x10a;" horiz-adv-x="987" d="M234 256q0 121 14 206t49 173l19 43q33 84 47 110q35 80 123 207q82 123 130 183.5t99 104.5t149 112q59 43 146 43q68 0 124 -33t85 -102q20 -35 20 -97q0 -98 -47 -212.5t-113 -174.5q-14 -14 -38 -14q-25 0 -53.5 14.5t-51.5 34.5q-18 35 -20 41t8 8q18 23 54 87.5 t48 101.5l13 57q12 53 12 70q0 18 -15 32q-6 6 -16 6q-16 0 -57 -20q-47 -20 -111.5 -82.5t-128.5 -148.5q-94 -123 -144 -203t-77 -162l-23 -53q2 -8 -6 -41t-18 -53q-29 -119 -29 -215q0 -76 15.5 -131.5t44.5 -81.5q16 -14 47 -15q33 0 74.5 15.5t89 36t65.5 28.5 q47 18 89 43t63 45q53 39 86 39q27 8 42 -16.5t15 -67.5q0 -29 -39 -68.5t-92 -70.5q-23 -23 -100 -53q-66 -47 -153 -84t-159 -37q-16 0 -41 4q-63 22 -121.5 65t-85.5 109q-33 92 -32 217zM959 1606q4 25 21.5 60.5t45.5 59.5q6 4 17.5 16.5t19.5 14.5q18 12 37 12 q41 0 78 -59q16 -37 16 -59q0 -25 -13 -49.5t-46 -61.5q-43 -57 -82 -57q-27 0 -57 24q-19 17 -31 51.5t-6 47.5z" />
<glyph unicode="&#x10b;" horiz-adv-x="727" d="M191 213q0 96 43 223t106 207q51 59 88 96t68 49q27 10 67.5 18.5t61.5 8.5q41 -10 76.5 -28.5t35.5 -41.5l11 -10q14 0 33.5 -45t19.5 -82q0 -18 -6 -30q-8 -39 -31.5 -76t-40.5 -37q-23 0 -22 -12q0 -10 -25 -11q-20 0 -43 9.5t-27 23.5q0 10 17 82q6 31 6 51 q0 37 -25 37q-6 0 -30 -8q-53 -29 -85 -67t-56.5 -103.5t-57.5 -190.5q-6 -25 -6 -45q0 -25 6 -40t12 -17q10 -4 37 -4q51 0 82 18q37 20 72 46t43 32q4 4 16 23.5t27 25.5q12 18 30.5 22.5t37 4.5h24.5q27 -8 51.5 -37t7.5 -37q-6 0 -8 -4t-2 -6q4 -10 -33 -54t-82 -84 t-61 -40q-8 0 -14.5 -2t-6.5 -10t-62 -38t-101 -38q-25 -4 -39 -4q-84 0 -148.5 54t-64.5 138zM635 971q4 25 21.5 60.5t46.5 60.5q6 4 17 16t19 14q18 12 37 13q41 0 78 -60q16 -37 16 -59q0 -25 -13 -49.5t-46 -61.5q-43 -57 -82 -57q-27 0 -57 24q-19 17 -31 51.5 t-6 47.5z" />
<glyph unicode="&#x10c;" horiz-adv-x="987" d="M234 256q0 121 14 206t49 173l19 43q33 84 47 110q35 80 123 207q82 123 130 183.5t99 104.5t149 112q59 43 146 43q68 0 124 -33t85 -102q20 -35 20 -97q0 -98 -47 -212.5t-113 -174.5q-14 -14 -38 -14q-25 0 -53.5 14.5t-51.5 34.5q-18 35 -20 41t8 8q18 23 54 87.5 t48 101.5l13 57q12 53 12 70q0 18 -15 32q-6 6 -16 6q-16 0 -57 -20q-47 -20 -111.5 -82.5t-128.5 -148.5q-94 -123 -144 -203t-77 -162l-23 -53q2 -8 -6 -41t-18 -53q-29 -119 -29 -215q0 -76 15.5 -131.5t44.5 -81.5q16 -14 47 -15q33 0 74.5 15.5t89 36t65.5 28.5 q47 18 89 43t63 45q53 39 86 39q27 8 42 -16.5t15 -67.5q0 -29 -39 -68.5t-92 -70.5q-23 -23 -100 -53q-66 -47 -153 -84t-159 -37q-16 0 -41 4q-63 22 -121.5 65t-85.5 109q-33 92 -32 217zM809 1688q0 31 20.5 54t49.5 23q31 0 57 -32q27 -35 111 -107q35 20 84 54t80 57 q29 25 51 24q25 0 40 -19.5t15 -45.5q0 -23 -12 -41t-94 -87t-121 -89q-26 -21 -51 -21q-31 0 -49 25q-33 27 -87.5 81t-76.5 78q-16 16 -17 46z" />
<glyph unicode="&#x10d;" horiz-adv-x="727" d="M191 213q0 96 43 223t106 207q51 59 88 96t68 49q27 10 67.5 18.5t61.5 8.5q41 -10 76.5 -28.5t35.5 -41.5l11 -10q14 0 33.5 -45t19.5 -82q0 -18 -6 -30q-8 -39 -31.5 -76t-40.5 -37q-23 0 -22 -12q0 -10 -25 -11q-20 0 -43 9.5t-27 23.5q0 10 17 82q6 31 6 51 q0 37 -25 37q-6 0 -30 -8q-53 -29 -85 -67t-56.5 -103.5t-57.5 -190.5q-6 -25 -6 -45q0 -25 6 -40t12 -17q10 -4 37 -4q51 0 82 18q37 20 72 46t43 32q4 4 16 23.5t27 25.5q12 18 30.5 22.5t37 4.5h24.5q27 -8 51.5 -37t7.5 -37q-6 0 -8 -4t-2 -6q4 -10 -33 -54t-82 -84 t-61 -40q-8 0 -14.5 -2t-6.5 -10t-62 -38t-101 -38q-25 -4 -39 -4q-84 0 -148.5 54t-64.5 138zM483 1120q0 31 20.5 54.5t49.5 23.5q31 0 57 -33q27 -35 111 -106q35 20 84 54t80 56q29 25 51 25q25 0 40 -19.5t15 -46.5q0 -23 -12 -41t-94 -86.5t-121 -89.5 q-26 -20 -51 -20q-31 0 -49 24q-33 27 -87.5 81.5t-76.5 78.5q-16 16 -17 45z" />
<glyph unicode="&#x10e;" horiz-adv-x="1183" d="M96 -27q0 35 15.5 58.5t48.5 29.5h6q8 0 33 -8q0 59 14 109q18 84 115 360l24 70q14 35 41 131q23 76 50.5 155.5t40.5 100.5q6 16 12 45q31 104 61 180l15 68l-23 10q-18 -6 -33 -6q-10 0 -22 6q-18 -6 -50 20.5t-36 47.5q-4 6 -5 18t-1 16q2 14 49 32t116.5 30 t133.5 12q29 0 43 -2q51 -4 126.5 -23.5t137.5 -41.5q68 -25 144.5 -86.5t137 -143.5t80.5 -168q6 -27 12.5 -74t6.5 -83q0 -43 -8 -54q-7 -8 -7 -20t9 -14q-4 -12 -14.5 -45t-22.5 -70q-6 -74 -48 -181.5t-79 -170.5q-10 0 -16.5 -3.5t1.5 -5.5q0 -10 -22 -39 q-6 -4 -25.5 -29.5t-27.5 -31.5q-2 -14 -12.5 -23.5t-18.5 -9.5l-3 -1t-3 -7q-37 -53 -146.5 -146.5t-185.5 -123.5q-20 -14 -48 -26.5t-38 -16.5q-14 -12 -154 -25q-20 -2 -44.5 -4t-49.5 -6q-12 -2 -41 -2q-66 0 -172 26q-27 8 -39 18.5t-27.5 30t-23.5 29.5 q-27 39 -27 88zM361 -31q37 -16 71 -12q12 2 34 4t32 2q61 4 91 9t50 22q90 61 146.5 105t68.5 57q4 10 43 24l58 60q51 55 65 65q2 14 7 29.5t5 23.5q25 27 74 128.5t68 175.5q18 85 18 159q0 211 -151 340q-43 37 -140.5 80t-111.5 39q-10 -2 -52.5 -114.5t-89.5 -250.5 l-92 -258q-8 -33 -18 -61.5t-17 -50.5q-27 -76 -26 -86q-59 -92 -88 -312q-4 -12 -23 -94q-14 -68 -20 -65zM907 1688q0 31 20.5 54t49.5 23q31 0 57 -32q27 -35 111 -107q35 20 84 54t80 57q29 25 51 24q25 0 40 -19.5t15 -45.5q0 -23 -12 -41t-94 -87t-121 -89 q-26 -21 -51 -21q-31 0 -49 25q-33 27 -87.5 81t-76.5 78q-16 16 -17 46z" />
<glyph unicode="&#x10f;" horiz-adv-x="940" d="M168 211q0 78 41 187.5t102 176.5q45 68 109 103t129 35q61 0 109 -27q29 -14 47 -14q20 0 26 26q2 10 25 82l22 66q45 135 78 217t80 180q20 43 43 63.5t41 18.5q27 0 58.5 -17.5t41.5 -43.5q6 -14 7 -35q0 -23 -13 -47q-53 -92 -131 -301t-121 -363q-16 -55 -23 -153.5 t-7 -192.5q0 -90 6 -113q4 -12 4 -32q0 -35 -23.5 -48.5t-60.5 -17.5q-27 -6 -51.5 12.5t-36.5 42.5q-10 29 -14.5 56.5t-6.5 74.5l-2 70l-84 -76q-129 -121 -239 -121q-33 6 -83 55.5t-65 84.5q-8 16 -8 51zM348 231q-4 -14 4.5 -23t26.5 -9q14 0 41 10q47 18 104 61 q61 45 89 80t45 88q4 10 4 29q0 37 -35 68q-20 16 -47 16q-43 0 -90 -45q-53 -49 -86 -109.5t-56 -165.5zM1059 913q0 14 8 34t21 32q43 43 76.5 88t31.5 74q-2 49 30 91t70 42q27 0 48 -21q8 -53 8 -84q0 -59 -23 -110q-8 -20 -48 -68.5t-48 -48.5t-22.5 -16.5t-18.5 -20.5 q-12 -12 -94 -12q-21 0 -26 3t-13 17z" />
<glyph unicode="&#x110;" horiz-adv-x="1183" d="M96 -27q0 35 15.5 58.5t48.5 29.5h6q8 0 33 -8q0 59 14 109q18 80 113 352l24 72q-29 0 -59 10q-51 0 -74 39q-10 16 -10 24q0 20 27.5 31.5t87.5 18.5l71 14q23 76 50.5 155.5t39.5 100.5q6 16 13 45q31 104 61 180l14 68l-22 10q-18 -6 -33 -6q-10 0 -22 6 q-18 -6 -50 20.5t-36 47.5q-4 6 -5.5 18t-1.5 16q2 14 49.5 32t117 30t132.5 12q29 0 43 -2q51 -4 127 -23.5t138 -41.5q68 -25 144.5 -86.5t137 -143.5t80.5 -168q6 -27 12.5 -74t6.5 -83q0 -43 -9 -54q-6 -8 -6 -20t8 -14q-4 -12 -14 -45t-22 -70q-6 -74 -48.5 -181.5 t-78.5 -170.5q-10 0 -16.5 -3.5t1.5 -5.5q0 -10 -22 -39q-6 -4 -25.5 -29.5t-28.5 -31.5q-2 -14 -12 -23.5t-18 -9.5l-3 -1t-3 -7q-37 -53 -146.5 -146.5t-185.5 -123.5q-20 -14 -48 -26.5t-38 -16.5q-14 -12 -154 -25q-20 -2 -44.5 -4t-49.5 -6q-12 -2 -41 -2 q-66 0 -172 26q-27 8 -39 18.5t-27.5 30t-23.5 29.5q-27 39 -27 88zM360 -31q37 -16 72 -12q12 2 33.5 4t32.5 2q61 4 90.5 9t50.5 22q90 61 146.5 105t68.5 57q4 10 43 24l57 60q51 55 66 65q2 14 7 29.5t5 23.5q25 27 74 128.5t68 175.5q18 85 18 159q0 211 -152 340 q-43 37 -140 80t-112 39q-10 -2 -54 -121t-93 -260l-57 -162q88 -2 133 -41q20 -20 20 -43q0 -25 -18.5 -39t-48.5 -10l-133 -8l-21 -59q-23 -68 -22 -78q-59 -92 -88 -312q-4 -12 -23 -94q-14 -68 -21 -65z" />
<glyph unicode="&#x111;" horiz-adv-x="804" d="M168 211q0 78 41 187.5t102 176.5q45 68 109 103t129 35q61 0 109 -27q29 -14 47 -14q20 0 26 26q2 10 25 82l22 66q45 135 78 217t80 180q20 43 43 63.5t41 18.5q27 0 58.5 -17.5t41.5 -43.5q6 -14 7 -35q0 -23 -13 -47q-53 -92 -131 -301t-121 -363q-16 -55 -23 -153.5 t-7 -192.5q0 -90 6 -113q4 -12 4 -32q0 -35 -23.5 -48.5t-60.5 -17.5q-27 -6 -51.5 12.5t-36.5 42.5q-10 29 -14.5 56.5t-6.5 74.5l-2 70l-84 -76q-129 -121 -239 -121q-33 6 -83 55.5t-65 84.5q-8 16 -8 51zM348 231q-4 -14 4.5 -23t26.5 -9q14 0 41 10q47 18 104 61 q61 45 89 80t45 88q4 10 4 29q0 37 -35 68q-20 16 -47 16q-43 0 -90 -45q-53 -49 -86 -109.5t-56 -165.5zM580 1020q0 35 114 47q129 29 287 29q98 0 143 -43q18 -18 19 -43q0 -23 -19.5 -37t-48.5 -10l-143 -11q-10 0 -71.5 -5t-125.5 -5q-41 0 -72 10q-51 0 -73 41 q-10 12 -10 27z" />
<glyph unicode="&#x112;" horiz-adv-x="1122" d="M197 268q0 61 21.5 150.5t43.5 138.5q45 109 199 348q8 8 11 11.5t2 4.5l-1 1q0 14 60 127q35 37 34 63q0 14 -6 23q-6 8 16.5 35.5t62.5 61.5t85 58q55 43 109 43q16 0 27.5 -5t13.5 -15q0 -12 82 8q37 8 53 10q8 10 42 17.5t95 15.5q33 -2 81 0t62 4q14 4 42 -18.5 t44 -57.5q4 -12 5 -18q0 -31 -39 -52.5t-113 -29.5q-76 -10 -133 -20.5t-143 -28.5l-43 -8q-63 -10 -94 -26.5t-66 -72.5q-14 -10 -37 -52t-45 -87l-41 -55q-47 -63 -58.5 -83t-5.5 -28q8 -2 30 -6t36 -6q18 10 51 14t47 8l45 13q127 33 186.5 47t88.5 18q10 8 24 8 q23 0 44.5 -21.5t31.5 -49.5q8 -29 8 -37q0 -35 -41 -52.5t-164 -45.5q-178 -43 -223 -56q-133 -39 -196 -39q-53 0 -52 35q-18 10 -42.5 -37t-42 -116.5t-17.5 -120.5q0 -27 6 -45q18 -49 55 -83t103 -53q14 -2 35.5 -4t50.5 -2q41 0 82 17q160 27 225 73q10 4 19.5 14.5 t17.5 10.5l-2 -4q0 -2 12 9t27 24q57 49 127 49q25 0 42 -7t19 -14q12 -20 -12.5 -65t-76.5 -94.5t-116 -85.5q-100 -53 -224 -79t-238 -28q-50 4 -99 30.5t-90 55.5t-55 39q-35 35 -53.5 75t-30.5 105q-4 25 -4 43zM843 1630q0 20 28 31.5t87 17.5q74 16 125 22.5t129 6.5 q94 0 141 -41q20 -20 21 -43q0 -25 -18.5 -39t-49.5 -10l-143 -8q-12 0 -59.5 -5.5t-104.5 -5.5q-41 1 -72 11q-51 0 -73 39q-10 16 -11 24z" />
<glyph unicode="&#x113;" horiz-adv-x="665" d="M189 252q0 47 6 104q4 49 40 135.5t98 168t146 120.5q39 18 66 25.5t61 7.5q84 0 136.5 -30.5t74 -69.5t21.5 -68v-10v-6q0 -25 -29 -90.5t-91 -123t-161 -63.5q-49 0 -95 9.5t-58 9.5q-31 0 -39 -22.5t-8 -76.5q6 -57 31.5 -79.5t74.5 -22.5q25 0 57 14q33 16 78 52 q25 20 39 28t35 8q18 0 43 -24.5t27 -46.5q-4 -25 -45 -74t-107 -88t-141 -39q-117 0 -188.5 65.5t-71.5 186.5zM426 1001q0 20 27.5 31.5t86.5 18.5q74 16 125 22t129 6q94 0 142 -41q20 -20 20 -43q0 -25 -18.5 -39t-48.5 -10l-144 -8q-12 0 -59 -5t-105 -5q-40 0 -71 10 q-51 0 -74 39q-10 16 -10 24zM428 518q2 -10 31 -17t61 -7q40 0 54 8q20 10 62 52t44 58q0 20 -17.5 33.5t-47.5 18.5h-23q-27 0 -77 -44.5t-87 -101.5z" />
<glyph unicode="&#x114;" horiz-adv-x="1122" d="M197 268q0 61 21.5 150.5t43.5 138.5q45 109 199 348q8 8 11 11.5t2 4.5l-1 1q0 14 60 127q35 37 34 63q0 14 -6 23q-6 8 16.5 35.5t62.5 61.5t85 58q55 43 109 43q16 0 27.5 -5t13.5 -15q0 -12 82 8q37 8 53 10q8 10 42 17.5t95 15.5q33 -2 81 0t62 4q14 4 42 -18.5 t44 -57.5q4 -12 5 -18q0 -31 -39 -52.5t-113 -29.5q-76 -10 -133 -20.5t-143 -28.5l-43 -8q-63 -10 -94 -26.5t-66 -72.5q-14 -10 -37 -52t-45 -87l-41 -55q-47 -63 -58.5 -83t-5.5 -28q8 -2 30 -6t36 -6q18 10 51 14t47 8l45 13q127 33 186.5 47t88.5 18q10 8 24 8 q23 0 44.5 -21.5t31.5 -49.5q8 -29 8 -37q0 -35 -41 -52.5t-164 -45.5q-178 -43 -223 -56q-133 -39 -196 -39q-53 0 -52 35q-18 10 -42.5 -37t-42 -116.5t-17.5 -120.5q0 -27 6 -45q18 -49 55 -83t103 -53q14 -2 35.5 -4t50.5 -2q41 0 82 17q160 27 225 73q10 4 19.5 14.5 t17.5 10.5l-2 -4q0 -2 12 9t27 24q57 49 127 49q25 0 42 -7t19 -14q12 -20 -12.5 -65t-76.5 -94.5t-116 -85.5q-100 -53 -224 -79t-238 -28q-50 4 -99 30.5t-90 55.5t-55 39q-35 35 -53.5 75t-30.5 105q-4 25 -4 43zM889 1620q0 31 8 57q12 47 35.5 72t50.5 25 q23 0 39 -17.5t16 -44.5q0 -14 -2 -22q-6 -18 -6 -43q0 -70 108 -68q59 2 119 107q47 84 90 83q23 0 37 -22.5t14 -52.5q0 -8 -4 -29q-12 -53 -50 -106.5t-94 -88t-124 -34.5q-98 0 -167.5 48t-69.5 136z" />
<glyph unicode="&#x115;" horiz-adv-x="665" d="M189 252q0 47 6 104q4 49 40 135.5t98 168t146 120.5q39 18 66 25.5t61 7.5q84 0 136.5 -30.5t74 -69.5t21.5 -68v-10v-6q0 -25 -29 -90.5t-91 -123t-161 -63.5q-49 0 -95 9.5t-58 9.5q-31 0 -39 -22.5t-8 -76.5q6 -57 31.5 -79.5t74.5 -22.5q25 0 57 14q33 16 78 52 q25 20 39 28t35 8q18 0 43 -24.5t27 -46.5q-4 -25 -45 -74t-107 -88t-141 -39q-117 0 -188.5 65.5t-71.5 186.5zM428 518q2 -10 31 -17t61 -7q40 0 54 8q20 10 62 52t44 58q0 20 -17.5 33.5t-47.5 18.5h-23q-27 0 -77 -44.5t-87 -101.5zM436 1057q0 31 8 57q12 47 35.5 71.5 t50.5 24.5q23 0 39 -17t16 -44q0 -14 -2 -23q-6 -18 -6 -43q0 -70 109 -67q59 2 119 106q47 84 90 84q23 0 37 -22.5t14 -53.5q0 -8 -4 -28q-12 -53 -50 -106.5t-94.5 -88.5t-124.5 -35q-98 0 -167.5 48.5t-69.5 136.5z" />
<glyph unicode="&#x116;" horiz-adv-x="1122" d="M197 268q0 61 21.5 150.5t43.5 138.5q45 109 199 348q8 8 11 11.5t2 4.5l-1 1q0 14 60 127q35 37 34 63q0 14 -6 23q-6 8 16.5 35.5t62.5 61.5t85 58q55 43 109 43q16 0 27.5 -5t13.5 -15q0 -12 82 8q37 8 53 10q8 10 42 17.5t95 15.5q33 -2 81 0t62 4q14 4 42 -18.5 t44 -57.5q4 -12 5 -18q0 -31 -39 -52.5t-113 -29.5q-76 -10 -133 -20.5t-143 -28.5l-43 -8q-63 -10 -94 -26.5t-66 -72.5q-14 -10 -37 -52t-45 -87l-41 -55q-47 -63 -58.5 -83t-5.5 -28q8 -2 30 -6t36 -6q18 10 51 14t47 8l45 13q127 33 186.5 47t88.5 18q10 8 24 8 q23 0 44.5 -21.5t31.5 -49.5q8 -29 8 -37q0 -35 -41 -52.5t-164 -45.5q-178 -43 -223 -56q-133 -39 -196 -39q-53 0 -52 35q-18 10 -42.5 -37t-42 -116.5t-17.5 -120.5q0 -27 6 -45q18 -49 55 -83t103 -53q14 -2 35.5 -4t50.5 -2q41 0 82 17q160 27 225 73q10 4 19.5 14.5 t17.5 10.5l-2 -4q0 -2 12 9t27 24q57 49 127 49q25 0 42 -7t19 -14q12 -20 -12.5 -65t-76.5 -94.5t-116 -85.5q-100 -53 -224 -79t-238 -28q-50 4 -99 30.5t-90 55.5t-55 39q-35 35 -53.5 75t-30.5 105q-4 25 -4 43zM1028 1606q4 25 21.5 60.5t45.5 59.5q6 4 17.5 16.5 t19.5 14.5q18 12 37 12q41 0 78 -59q16 -37 16 -59q0 -25 -13 -49.5t-46 -61.5q-43 -57 -82 -57q-27 0 -57 24q-19 17 -31 51.5t-6 47.5z" />
<glyph unicode="&#x117;" horiz-adv-x="665" d="M189 252q0 47 6 104q4 49 40 135.5t98 168t146 120.5q39 18 66 25.5t61 7.5q84 0 136.5 -30.5t74 -69.5t21.5 -68v-10v-6q0 -25 -29 -90.5t-91 -123t-161 -63.5q-49 0 -95 9.5t-58 9.5q-31 0 -39 -22.5t-8 -76.5q6 -57 31.5 -79.5t74.5 -22.5q25 0 57 14q33 16 78 52 q25 20 39 28t35 8q18 0 43 -24.5t27 -46.5q-4 -25 -45 -74t-107 -88t-141 -39q-117 0 -188.5 65.5t-71.5 186.5zM428 518q2 -10 31 -17t61 -7q40 0 54 8q20 10 62 52t44 58q0 20 -17.5 33.5t-47.5 18.5h-23q-27 0 -77 -44.5t-87 -101.5zM606 971q4 25 21.5 60.5t46.5 60.5 q6 4 17 16t19 14q18 12 37 13q41 0 78 -60q16 -37 16 -59q0 -25 -13 -49.5t-46 -61.5q-43 -57 -82 -57q-27 0 -57 24q-19 17 -31 51.5t-6 47.5z" />
<glyph unicode="&#x118;" horiz-adv-x="1122" d="M197 268q0 61 21.5 150.5t43.5 138.5q45 109 199 348q8 8 11 11.5t2 4.5l-1 1q0 14 60 127q35 37 34 63q0 14 -6 23q-6 8 16.5 35.5t62.5 61.5t85 58q55 43 109 43q16 0 27.5 -5t13.5 -15q0 -12 82 8q37 8 53 10q8 10 42 17.5t95 15.5q33 -2 81 0t62 4q14 4 42 -18.5 t44 -57.5q4 -12 5 -18q0 -31 -39 -52.5t-113 -29.5q-76 -10 -133 -20.5t-143 -28.5l-43 -8q-63 -10 -94 -26.5t-66 -72.5q-14 -10 -37 -52t-45 -87l-41 -55q-47 -63 -58.5 -83t-5.5 -28q8 -2 30 -6t36 -6q18 10 51 14t47 8l45 13q127 33 186.5 47t88.5 18q10 8 24 8 q23 0 44.5 -21.5t31.5 -49.5q8 -29 8 -37q0 -35 -41 -52.5t-164 -45.5q-178 -43 -223 -56q-133 -39 -196 -39q-53 0 -52 35q-18 10 -42.5 -37t-42 -116.5t-17.5 -120.5q0 -27 6 -45q18 -49 55 -83t103 -53q14 -2 35.5 -4t50.5 -2q41 0 82 17q160 27 225 73q10 4 19.5 14.5 t17.5 10.5l-2 -4q0 -2 12 9t27 24q57 49 127 49q25 0 42 -7t19 -14q12 -20 -12.5 -65t-76.5 -94.5t-116 -85.5q-100 -53 -224 -79t-238 -28q-50 4 -99 30.5t-90 55.5t-55 39q-35 35 -53.5 75t-30.5 105q-4 25 -4 43zM615 -205q0 43 24 82q35 61 115 134t160 124l112 -61 q-47 -29 -108.5 -81t-98.5 -95q-25 -31 -35 -46.5t-10 -31.5q0 -14 9 -25q4 -8 13 -10t23 -2q35 4 67 21.5t42 21.5l55 31q12 6 23 6q18 0 27.5 -16.5t9.5 -39.5q0 -25 -10.5 -45t-30.5 -28l-47 -21q-156 -70 -201 -75q-53 14 -96 57t-43 100z" />
<glyph unicode="&#x119;" horiz-adv-x="665" d="M178 -205q0 43 24 82q35 61 115 134t160 124l112 -61q-47 -29 -108.5 -81t-98.5 -95q-25 -31 -35 -46.5t-10 -31.5q0 -14 9 -25q4 -8 13 -10t23 -2q35 4 67 21.5t42 21.5l55 31q12 6 23 6q18 0 27.5 -16.5t9.5 -39.5q0 -25 -10.5 -45t-30.5 -28l-47 -21 q-156 -70 -201 -75q-53 14 -96 57t-43 100zM189 252q0 47 6 104q4 49 40 135.5t98 168t146 120.5q39 18 66 25.5t61 7.5q84 0 136.5 -30.5t74 -69.5t21.5 -68v-10v-6q0 -25 -29 -90.5t-91 -123t-161 -63.5q-49 0 -95 9.5t-58 9.5q-31 0 -39 -22.5t-8 -76.5q6 -57 31.5 -79.5 t74.5 -22.5q25 0 57 14q33 16 78 52q25 20 39 28t35 8q18 0 43 -24.5t27 -46.5q-4 -25 -45 -74t-107 -88t-141 -39q-117 0 -188.5 65.5t-71.5 186.5zM428 518q2 -10 31 -17t61 -7q40 0 54 8q20 10 62 52t44 58q0 20 -17.5 33.5t-47.5 18.5h-23q-27 0 -77 -44.5t-87 -101.5z " />
<glyph unicode="&#x11a;" horiz-adv-x="1122" d="M197 268q0 61 21.5 150.5t43.5 138.5q45 109 199 348q8 8 11 11.5t2 4.5l-1 1q0 14 60 127q35 37 34 63q0 14 -6 23q-6 8 16.5 35.5t62.5 61.5t85 58q55 43 109 43q16 0 27.5 -5t13.5 -15q0 -12 82 8q37 8 53 10q8 10 42 17.5t95 15.5q33 -2 81 0t62 4q14 4 42 -18.5 t44 -57.5q4 -12 5 -18q0 -31 -39 -52.5t-113 -29.5q-76 -10 -133 -20.5t-143 -28.5l-43 -8q-63 -10 -94 -26.5t-66 -72.5q-14 -10 -37 -52t-45 -87l-41 -55q-47 -63 -58.5 -83t-5.5 -28q8 -2 30 -6t36 -6q18 10 51 14t47 8l45 13q127 33 186.5 47t88.5 18q10 8 24 8 q23 0 44.5 -21.5t31.5 -49.5q8 -29 8 -37q0 -35 -41 -52.5t-164 -45.5q-178 -43 -223 -56q-133 -39 -196 -39q-53 0 -52 35q-18 10 -42.5 -37t-42 -116.5t-17.5 -120.5q0 -27 6 -45q18 -49 55 -83t103 -53q14 -2 35.5 -4t50.5 -2q41 0 82 17q160 27 225 73q10 4 19.5 14.5 t17.5 10.5l-2 -4q0 -2 12 9t27 24q57 49 127 49q25 0 42 -7t19 -14q12 -20 -12.5 -65t-76.5 -94.5t-116 -85.5q-100 -53 -224 -79t-238 -28q-50 4 -99 30.5t-90 55.5t-55 39q-35 35 -53.5 75t-30.5 105q-4 25 -4 43zM878 1688q0 31 20.5 54t49.5 23q31 0 57 -32 q27 -35 111 -107q35 20 84 54t80 57q29 25 51 24q25 0 40 -19.5t15 -45.5q0 -23 -12 -41t-94 -87t-121 -89q-26 -21 -51 -21q-31 0 -49 25q-33 27 -87.5 81t-76.5 78q-16 16 -17 46z" />
<glyph unicode="&#x11b;" horiz-adv-x="665" d="M189 252q0 47 6 104q4 49 40 135.5t98 168t146 120.5q39 18 66 25.5t61 7.5q84 0 136.5 -30.5t74 -69.5t21.5 -68v-10v-6q0 -25 -29 -90.5t-91 -123t-161 -63.5q-49 0 -95 9.5t-58 9.5q-31 0 -39 -22.5t-8 -76.5q6 -57 31.5 -79.5t74.5 -22.5q25 0 57 14q33 16 78 52 q25 20 39 28t35 8q18 0 43 -24.5t27 -46.5q-4 -25 -45 -74t-107 -88t-141 -39q-117 0 -188.5 65.5t-71.5 186.5zM428 518q2 -10 31 -17t61 -7q40 0 54 8q20 10 62 52t44 58q0 20 -17.5 33.5t-47.5 18.5h-23q-27 0 -77 -44.5t-87 -101.5zM454 1120q0 31 20.5 54.5t49.5 23.5 q31 0 57 -33q27 -35 111 -106q35 20 84 54t80 56q29 25 51 25q25 0 40 -19.5t15 -46.5q0 -23 -12 -41t-94 -86.5t-121 -89.5q-26 -20 -51 -20q-31 0 -49 24q-33 27 -87.5 81.5t-76.5 78.5q-16 16 -17 45z" />
<glyph unicode="&#x11c;" horiz-adv-x="1019" d="M232 166q0 270 84 514q96 285 203.5 444.5t205.5 221.5q31 18 92.5 36.5t122.5 18.5q33 0 76 -6q86 -23 169 -78t83 -121q0 -33 -37 -66.5t-76 -33.5q-20 0 -30 12q-39 55 -78 83t-94 28q-150 0 -269 -185.5t-188.5 -433.5t-79.5 -420q0 -66 18.5 -96.5t65.5 -30.5 q78 0 183.5 60.5t174.5 169.5q88 166 88 223q0 33 -30 33q-102 0 -147.5 8t-59.5 39q-27 8 -27 41q0 47 41 69.5t143 22.5q86 -2 140.5 -17.5t87.5 -61.5t33 -132q0 -37 -7 -68q-39 -176 -155.5 -307t-257 -199.5t-246.5 -68.5q-57 0 -109.5 37t-86 105.5t-33.5 158.5z M842 1530q0 23 16 45q16 20 92 87t115 87q27 20 53 20q31 0 49 -24q33 -27 86.5 -81t75.5 -79q18 -20 18 -47q0 -29 -20 -52.5t-47 -23.5q-33 0 -59 33q-41 49 -111 109q-35 -20 -85 -55.5t-79 -59.5q-24 -25 -49 -25q-23 0 -39 20.5t-16 45.5z" />
<glyph unicode="&#x11d;" horiz-adv-x="727" d="M123 -102q8 29 59 28q25 0 45.5 -7t22.5 -17q18 -53 45 -82q16 -27 35.5 -41.5t38.5 -14.5q12 0 16 5q33 25 50.5 59.5t48.5 128.5q47 164 73 233q6 23 21 52l-37 -29q-20 -16 -45 -33.5t-53 -29.5q-14 -18 -72 -19q-43 0 -82 12q-39 20 -58.5 47t-39.5 80q-8 16 -9 52 q0 88 41 188q39 80 123 170t146 108q49 25 102 25q23 0 33 -4q33 -4 51.5 -14.5t61.5 -46.5q98 -98 114 -140q8 -16 8 -41q0 -47 -30 -88q-6 -10 -22.5 -31.5t-29 -44t-18.5 -51.5q-6 -39 -23.5 -93t-23.5 -73q-16 -43 -37 -114l-33 -127q-45 -156 -104.5 -241t-110.5 -114 q-27 -10 -51 -10q-45 0 -93 30t-83 81q-23 31 -57.5 115.5t-22.5 91.5zM363 350q0 -45 24 -55q66 2 103 22.5t86 98.5q37 51 50 92t9 90q-2 51 -45 51t-74.5 -24.5t-83.5 -87.5q-31 -41 -51 -99q-18 -51 -18 -88zM426 944q0 23 16 45q16 20 92 87t115 87q27 20 53 21 q31 0 50 -25q33 -27 86 -81t75 -79q18 -20 19 -47q0 -29 -20.5 -52t-47.5 -23q-33 0 -59 32q-41 49 -111 109q-35 -20 -85 -55t-79 -60q-24 -24 -49 -24q-23 0 -39 20.5t-16 44.5z" />
<glyph unicode="&#x11e;" horiz-adv-x="1019" d="M232 166q0 270 84 514q96 285 203.5 444.5t205.5 221.5q31 18 92.5 36.5t122.5 18.5q33 0 76 -6q86 -23 169 -78t83 -121q0 -33 -37 -66.5t-76 -33.5q-20 0 -30 12q-39 55 -78 83t-94 28q-150 0 -269 -185.5t-188.5 -433.5t-79.5 -420q0 -66 18.5 -96.5t65.5 -30.5 q78 0 183.5 60.5t174.5 169.5q88 166 88 223q0 33 -30 33q-102 0 -147.5 8t-59.5 39q-27 8 -27 41q0 47 41 69.5t143 22.5q86 -2 140.5 -17.5t87.5 -61.5t33 -132q0 -37 -7 -68q-39 -176 -155.5 -307t-257 -199.5t-246.5 -68.5q-57 0 -109.5 37t-86 105.5t-33.5 158.5z M836 1620q0 31 8 57q12 47 35.5 72t50.5 25q23 0 39 -17.5t16 -44.5q0 -14 -2 -22q-6 -18 -6 -43q0 -70 108 -68q59 2 119 107q47 84 90 83q23 0 37 -22.5t14 -52.5q0 -8 -4 -29q-12 -53 -50 -106.5t-94 -88t-124 -34.5q-98 0 -167.5 48t-69.5 136z" />
<glyph unicode="&#x11f;" horiz-adv-x="727" d="M123 -102q8 29 59 28q25 0 45.5 -7t22.5 -17q18 -53 45 -82q16 -27 35.5 -41.5t38.5 -14.5q12 0 16 5q33 25 50.5 59.5t48.5 128.5q47 164 73 233q6 23 21 52l-37 -29q-20 -16 -45 -33.5t-53 -29.5q-14 -18 -72 -19q-43 0 -82 12q-39 20 -58.5 47t-39.5 80q-8 16 -9 52 q0 88 41 188q39 80 123 170t146 108q49 25 102 25q23 0 33 -4q33 -4 51.5 -14.5t61.5 -46.5q98 -98 114 -140q8 -16 8 -41q0 -47 -30 -88q-6 -10 -22.5 -31.5t-29 -44t-18.5 -51.5q-6 -39 -23.5 -93t-23.5 -73q-16 -43 -37 -114l-33 -127q-45 -156 -104.5 -241t-110.5 -114 q-27 -10 -51 -10q-45 0 -93 30t-83 81q-23 31 -57.5 115.5t-22.5 91.5zM363 350q0 -45 24 -55q66 2 103 22.5t86 98.5q37 51 50 92t9 90q-2 51 -45 51t-74.5 -24.5t-83.5 -87.5q-31 -41 -51 -99q-18 -51 -18 -88zM469 1057q0 31 8 57q12 47 35.5 71.5t50.5 24.5q23 0 39 -17 t16 -44q0 -14 -2 -23q-6 -18 -6 -43q0 -70 109 -67q59 2 119 106q47 84 90 84q23 0 37 -22.5t14 -53.5q0 -8 -4 -28q-12 -53 -50 -106.5t-94.5 -88.5t-124.5 -35q-98 0 -167.5 48.5t-69.5 136.5z" />
<glyph unicode="&#x120;" horiz-adv-x="1019" d="M232 166q0 270 84 514q96 285 203.5 444.5t205.5 221.5q31 18 92.5 36.5t122.5 18.5q33 0 76 -6q86 -23 169 -78t83 -121q0 -33 -37 -66.5t-76 -33.5q-20 0 -30 12q-39 55 -78 83t-94 28q-150 0 -269 -185.5t-188.5 -433.5t-79.5 -420q0 -66 18.5 -96.5t65.5 -30.5 q78 0 183.5 60.5t174.5 169.5q88 166 88 223q0 33 -30 33q-102 0 -147.5 8t-59.5 39q-27 8 -27 41q0 47 41 69.5t143 22.5q86 -2 140.5 -17.5t87.5 -61.5t33 -132q0 -37 -7 -68q-39 -176 -155.5 -307t-257 -199.5t-246.5 -68.5q-57 0 -109.5 37t-86 105.5t-33.5 158.5z M975 1606q4 25 21.5 60.5t45.5 59.5q6 4 17.5 16.5t19.5 14.5q18 12 37 12q41 0 78 -59q16 -37 16 -59q0 -25 -13 -49.5t-46 -61.5q-43 -57 -82 -57q-27 0 -57 24q-19 17 -31 51.5t-6 47.5z" />
<glyph unicode="&#x121;" horiz-adv-x="727" d="M123 -102q8 29 59 28q25 0 45.5 -7t22.5 -17q18 -53 45 -82q16 -27 35.5 -41.5t38.5 -14.5q12 0 16 5q33 25 50.5 59.5t48.5 128.5q47 164 73 233q6 23 21 52l-37 -29q-20 -16 -45 -33.5t-53 -29.5q-14 -18 -72 -19q-43 0 -82 12q-39 20 -58.5 47t-39.5 80q-8 16 -9 52 q0 88 41 188q39 80 123 170t146 108q49 25 102 25q23 0 33 -4q33 -4 51.5 -14.5t61.5 -46.5q98 -98 114 -140q8 -16 8 -41q0 -47 -30 -88q-6 -10 -22.5 -31.5t-29 -44t-18.5 -51.5q-6 -39 -23.5 -93t-23.5 -73q-16 -43 -37 -114l-33 -127q-45 -156 -104.5 -241t-110.5 -114 q-27 -10 -51 -10q-45 0 -93 30t-83 81q-23 31 -57.5 115.5t-22.5 91.5zM363 350q0 -45 24 -55q66 2 103 22.5t86 98.5q37 51 50 92t9 90q-2 51 -45 51t-74.5 -24.5t-83.5 -87.5q-31 -41 -51 -99q-18 -51 -18 -88zM547 971q4 25 21.5 60.5t46.5 60.5q6 4 17 16t19 14 q18 12 37 13q41 0 78 -60q16 -37 16 -59q0 -25 -13 -49.5t-46 -61.5q-43 -57 -82 -57q-27 0 -57 24q-19 17 -31 51.5t-6 47.5z" />
<glyph unicode="&#x122;" horiz-adv-x="1019" d="M232 166q0 270 84 514q96 285 203.5 444.5t205.5 221.5q31 18 92.5 36.5t122.5 18.5q33 0 76 -6q86 -23 169 -78t83 -121q0 -33 -37 -66.5t-76 -33.5q-20 0 -30 12q-39 55 -78 83t-94 28q-150 0 -269 -185.5t-188.5 -433.5t-79.5 -420q0 -66 18.5 -96.5t65.5 -30.5 q78 0 183.5 60.5t174.5 169.5q88 166 88 223q0 33 -30 33q-102 0 -147.5 8t-59.5 39q-27 8 -27 41q0 47 41 69.5t143 22.5q86 -2 140.5 -17.5t87.5 -61.5t33 -132q0 -37 -7 -68q-39 -176 -155.5 -307t-257 -199.5t-246.5 -68.5q-57 0 -109.5 37t-86 105.5t-33.5 158.5z M256 -471q0 14 29 39q49 37 75.5 86t42.5 111q0 33 18.5 53.5t53.5 20.5q23 0 44.5 -27t21.5 -84q0 -23 -8.5 -43t-26.5 -55q-6 -14 -51 -59.5t-56 -45.5q-6 0 -20 -11t-66 -11q-20 0 -36.5 8t-20.5 18z" />
<glyph unicode="&#x123;" horiz-adv-x="727" d="M123 -102q8 29 59 28q25 0 45.5 -7t22.5 -17q18 -53 45 -82q16 -27 35.5 -41.5t38.5 -14.5q12 0 16 5q33 25 50.5 59.5t47.5 128.5q47 164 74 233q6 23 21 52l-37 -29q-20 -16 -45 -33.5t-54 -29.5q-14 -18 -71 -19q-41 0 -82 12q-39 20 -58.5 47t-40.5 80q-8 16 -8 52 q0 88 41 188q39 80 123 170t146 108q49 25 102 25q23 0 33 -4q33 -4 51 -14.5t61 -46.5q99 -99 115 -140q8 -16 8 -41q0 -47 -31 -88q-6 -10 -22 -31.5t-28.5 -44t-18.5 -51.5q-6 -39 -23.5 -93t-23.5 -73q-16 -43 -37 -114l-33 -127q-45 -156 -104.5 -241t-110.5 -114 q-27 -10 -51 -10q-45 0 -93 30t-83 81q-23 31 -57.5 115.5t-22.5 91.5zM362 350q0 -45 25 -55q66 2 102.5 22.5t85.5 98.5q37 51 50.5 92t9.5 90q-2 51 -45 51t-75 -24.5t-83 -87.5q-31 -41 -51 -99q-18 -51 -19 -88zM588 940q-2 39 9 64.5t46 78.5q8 14 47 54.5t45 40.5h15 q12 0 18 2q12 6 23 6q14 0 26 -2q20 -4 23.5 -6t5.5 -13q0 -4 9 -11t13 -13t-4 -15q-43 -31 -79.5 -67.5t-41.5 -65.5q-2 -35 -29.5 -57.5t-62.5 -22.5q-37 0 -63 27z" />
<glyph unicode="&#x124;" horiz-adv-x="1155" d="M150 -86q0 14 2 23q6 6 11 31.5t5 45.5q6 12 10 25.5t11 38.5q16 90 75.5 303t73.5 227v23q0 6 4 24.5t19 38.5q8 25 13 48.5t7 35.5q8 10 27.5 61.5t25.5 67.5q14 39 36 91.5t30 68.5v10q4 4 21.5 42t29.5 65q14 33 76 170q4 8 22.5 47t18.5 49q20 23 45 23 q31 0 58.5 -28t43.5 -59l21 -32l-76 -148q-31 -55 -55.5 -103t-24.5 -56q-6 -14 -21.5 -59.5t-33.5 -102.5q-29 -78 -47 -117q-16 -33 -17 -39q0 8 228 8q35 0 127 2t116 6l107 11l57 182q20 72 90 279q29 86 66 127.5t65 41.5q8 0 42 -23.5t40 -39.5q23 -23 23 -47 q0 -29 -33 -80q-25 -43 -70 -162q-18 -55 -22 -63q0 -43 -21 -64q-8 -8 -28.5 -58t-20.5 -58q0 -16 -6 -36t-14 -28l-15 -49q-72 -260 -112 -361q0 -10 -10.5 -36.5t-10.5 -36.5q-4 -14 -18 -57.5t-14 -51.5q-14 -63 -28.5 -149t-19.5 -121q-35 -4 -57 4t-42.5 21.5 t-29.5 17.5q-49 27 -49 74q0 27 19 63q6 10 39 133l18 76q16 45 28.5 87t22.5 73q33 119 41 127v20q-6 10 -121 10q-125 0 -260 -16h-123h-53q-10 -23 -59 -179.5t-55 -199.5q-14 -68 -45 -187.5t-48 -174.5q-12 4 -49 15t-51 11q-25 6 -40 26.5t-15 47.5zM912 1530 q0 23 16 45q16 20 92 87t115 87q27 20 53 20q31 0 49 -24q33 -27 86.5 -81t75.5 -79q18 -20 18 -47q0 -29 -20 -52.5t-47 -23.5q-33 0 -59 33q-41 49 -111 109q-35 -20 -85 -55.5t-79 -59.5q-24 -25 -49 -25q-23 0 -39 20.5t-16 45.5z" />
<glyph unicode="&#x125;" horiz-adv-x="950" d="M176 199q0 49 62 252q10 53 45 137q12 35 14 41q37 123 101 301l18 49q72 195 86 238l33 90q0 16 23.5 31.5t39.5 15.5q33 0 63.5 -43t32.5 -90q0 -25 -10 -45q-47 -102 -117 -318q-31 -90 -61.5 -171t-48.5 -116l-23 -45l-28 -108q0 -6 -2 -10.5t-2 -6.5q0 -6 2 -6 l34 35q59 59 142 121q68 47 69.5 53t16.5 19l20 16q66 47 142 47q23 0 53.5 -22.5t52 -62.5t21.5 -85v-16v-15q0 -51 -19.5 -134t-21.5 -95q10 0 30 4q31 0 44.5 -6t23.5 -16.5t18 -12.5q4 -4 4 -12q0 -47 -51 -82t-98 -39q-57 0 -92 43t-35 105q0 25 2 49t4 43q6 41 6 65 q0 27 -5 36t-17 9q-41 0 -142.5 -74.5t-205.5 -193.5q-66 -96 -125 -96q-37 6 -68 41t-31 80zM682 985q0 23 16 45q16 20 92 87t115 87q27 20 53 21q31 0 50 -25q33 -27 86 -81t75 -79q18 -20 19 -47q0 -29 -20.5 -52t-47.5 -23q-33 0 -59 32q-41 49 -111 109 q-35 -20 -85 -55t-79 -60q-24 -24 -49 -24q-23 0 -39 20.5t-16 44.5z" />
<glyph unicode="&#x126;" horiz-adv-x="1155" d="M150 -86q0 14 2 23q6 6 11 31.5t5 45.5q6 12 10 25.5t10 38.5q16 90 76 303t74 227v23q0 6 4 24.5t18 38.5q8 25 13.5 48.5t7.5 35.5q8 10 27.5 61.5t25.5 67.5q33 86 35 90h-41q-41 0 -66 9q-29 0 -40 5t-19 19q-10 20 -10 27q0 14 20.5 21t73.5 14q37 4 123 4 q10 16 51 110q10 23 25.5 60t40.5 88q4 8 22.5 47t18.5 49q20 23 45 23q31 0 58.5 -28t43.5 -59l21 -32l-76 -148l-60 -108l543 -8l43 127q29 86 66 127.5t65 41.5q8 0 42 -23.5t40 -39.5q23 -23 23 -47q0 -29 -33 -80q-18 -29 -49 -109q18 -2 30.5 -7t30.5 -17 q20 -23 21 -45q0 -39 -54 -33q-25 -4 -67 -4q-2 -2 -2 -5t-2 -5q0 -43 -21 -64q-8 -8 -28.5 -58t-20.5 -58q0 -16 -6 -36t-14 -28l-15 -49q-72 -260 -112 -361q0 -10 -10.5 -36.5t-10.5 -36.5q-4 -14 -18.5 -57.5t-14.5 -51.5q-14 -63 -28.5 -149t-18.5 -121q-35 -4 -57.5 4 t-43 21.5t-28.5 17.5q-49 27 -49 74q0 27 19 63q6 10 38 133l19 76q16 45 28.5 87t22.5 73q33 119 41 127v20q-6 10 -121 10q-125 0 -260 -16h-123h-53q-10 -23 -59.5 -179.5t-55.5 -199.5q-14 -68 -44.5 -187.5t-47.5 -174.5q-12 4 -49 15t-51 11q-25 6 -40 26.5t-15 47.5z M561 729q0 8 227 8q35 0 127.5 2t116.5 6l107 11l57 182l12 43l-546 12q-23 -55 -37 -108q-29 -78 -47 -117q-16 -33 -17 -39z" />
<glyph unicode="&#x127;" horiz-adv-x="950" d="M176 199q0 49 62 252q10 53 45 137q12 35 14 41q37 123 101 301l18 49q72 195 86 238l33 90q0 16 23.5 31.5t39.5 15.5q33 0 63.5 -43t32.5 -90q0 -25 -10 -45q-47 -102 -117 -318q-31 -90 -61.5 -171t-48.5 -116l-23 -45l-28 -108q0 -6 -2 -10.5t-2 -6.5q0 -6 2 -6 l34 35q59 59 142 121q68 47 69.5 53t16.5 19l20 16q66 47 142 47q23 0 53.5 -22.5t52 -62.5t21.5 -85v-16v-15q0 -51 -19.5 -134t-21.5 -95q10 0 30 4q31 0 44.5 -6t23.5 -16.5t18 -12.5q4 -4 4 -12q0 -47 -51 -82t-98 -39q-57 0 -92 43t-35 105q0 25 2 49t4 43q6 41 6 65 q0 27 -5 36t-17 9q-41 0 -142.5 -74.5t-205.5 -193.5q-66 -96 -125 -96q-37 6 -68 41t-31 80zM303 1085q0 20 27.5 31.5t86.5 18.5q74 16 125 22t129 6q94 0 142 -41q20 -20 20 -43q0 -25 -18.5 -39t-48.5 -10l-144 -8q-12 0 -59 -5t-105 -5q-40 0 -71 10q-51 0 -74 39 q-10 16 -10 24z" />
</font>
</defs>
</svg>
